<?xml version="1.0" encoding="utf-8"?>
<!-- Generator: Adobe Illustrator 18.1.1, SVG Export Plug-In . SVG Version: 6.00 Build 0)  -->
<svg version="1.1" id="Layer_1" xmlns="http://www.w3.org/2000/svg" xmlns:xlink="http://www.w3.org/1999/xlink" x="0px" y="0px"
	 viewBox="12 226 636.1 341" enable-background="new 12 226 636.1 341" xml:space="preserve">
<g>
	<path fill="#333333" d="M263.7,240h-1.9l-0.8-2h-3.4l-0.7,2h-1.8l3.3-8.6h1.8L263.7,240z M260.5,236.6l-1.2-3.2l-1.2,3.2H260.5z"/>
	<path fill="#333333" d="M264.6,240v-8.6h2.6l1.6,5.9l1.5-5.9h2.6v8.6h-1.6v-6.8l-1.7,6.8h-1.7l-1.7-6.8v6.8H264.6z"/>
	<path fill="#333333" d="M274.5,240v-8.6h1.7v8.6H274.5z"/>
	<path fill="#333333" d="M277.9,240v-8.6h1.7l3.5,5.7v-5.7h1.6v8.6H283l-3.5-5.6v5.6H277.9z"/>
	<path fill="#333333" d="M286.2,235.8c0-0.9,0.1-1.6,0.4-2.2c0.2-0.4,0.5-0.8,0.8-1.2s0.7-0.6,1.1-0.8c0.5-0.2,1.2-0.3,1.9-0.3
		c1.3,0,2.3,0.4,3,1.2s1.1,1.9,1.1,3.3c0,1.4-0.4,2.5-1.1,3.3s-1.8,1.2-3,1.2c-1.3,0-2.3-0.4-3-1.2
		C286.6,238.2,286.2,237.1,286.2,235.8z M288,235.7c0,1,0.2,1.7,0.7,2.2s1,0.8,1.7,0.8s1.3-0.2,1.7-0.7c0.4-0.5,0.7-1.2,0.7-2.2
		c0-1-0.2-1.7-0.6-2.2c-0.4-0.5-1-0.7-1.7-0.7s-1.3,0.2-1.7,0.7C288.2,234,288,234.7,288,235.7z"/>
	<path fill="#333333" d="M306.6,240h-1.9l-0.8-2h-3.4l-0.7,2h-1.8l3.3-8.6h1.8L306.6,240z M303.4,236.6l-1.2-3.2l-1.2,3.2H303.4z"/>
	<path fill="#333333" d="M313,236.8l1.7,0.5c-0.3,0.9-0.7,1.6-1.3,2.1s-1.4,0.7-2.3,0.7c-1.1,0-2.1-0.4-2.8-1.2
		c-0.7-0.8-1.1-1.8-1.1-3.2c0-1.4,0.4-2.5,1.1-3.3s1.7-1.2,2.9-1.2c1.1,0,1.9,0.3,2.6,0.9c0.4,0.4,0.7,0.9,0.9,1.6l-1.7,0.4
		c-0.1-0.4-0.3-0.8-0.6-1.1s-0.7-0.4-1.2-0.4c-0.6,0-1.2,0.2-1.5,0.7s-0.6,1.2-0.6,2.2c0,1.1,0.2,1.9,0.6,2.3s0.9,0.7,1.5,0.7
		c0.5,0,0.9-0.1,1.2-0.4C312.6,237.9,312.8,237.5,313,236.8z"/>
	<path fill="#333333" d="M316.1,240v-8.6h1.7v8.6H316.1z"/>
	<path fill="#333333" d="M319.5,231.4h3.2c0.7,0,1.3,0.1,1.6,0.2c0.5,0.1,0.9,0.4,1.3,0.8c0.4,0.4,0.6,0.8,0.8,1.4
		c0.2,0.5,0.3,1.2,0.3,2c0,0.7-0.1,1.3-0.3,1.8c-0.2,0.6-0.5,1.1-0.9,1.5c-0.3,0.3-0.7,0.5-1.2,0.7c-0.4,0.1-0.9,0.2-1.5,0.2h-3.3
		L319.5,231.4L319.5,231.4z M321.2,232.9v5.7h1.3c0.5,0,0.8,0,1-0.1c0.3-0.1,0.5-0.2,0.7-0.4c0.2-0.2,0.3-0.4,0.5-0.8
		c0.1-0.4,0.2-0.9,0.2-1.6s-0.1-1.2-0.2-1.5c-0.1-0.4-0.3-0.6-0.5-0.8c-0.2-0.2-0.5-0.3-0.8-0.4c-0.2-0.1-0.7-0.1-1.4-0.1
		L321.2,232.9L321.2,232.9z"/>
	<path fill="#333333" d="M327.7,237.2l1.7-0.2c0.1,0.6,0.3,1,0.6,1.2c0.3,0.3,0.7,0.4,1.3,0.4c0.6,0,1-0.1,1.3-0.4
		c0.3-0.2,0.4-0.5,0.4-0.8c0-0.2-0.1-0.4-0.2-0.5s-0.3-0.3-0.6-0.4c-0.2-0.1-0.7-0.2-1.4-0.4c-0.9-0.2-1.6-0.5-2-0.9
		c-0.5-0.5-0.8-1-0.8-1.7c0-0.4,0.1-0.8,0.4-1.2s0.6-0.7,1.1-0.9c0.5-0.2,1-0.3,1.7-0.3c1.1,0,1.9,0.2,2.4,0.7
		c0.5,0.5,0.8,1.1,0.9,1.9l-1.7,0.1c-0.1-0.4-0.2-0.8-0.5-1c-0.2-0.2-0.6-0.3-1.1-0.3c-0.5,0-0.9,0.1-1.2,0.3
		c-0.2,0.1-0.3,0.3-0.3,0.5c0,0.2,0.1,0.4,0.3,0.5c0.2,0.2,0.8,0.4,1.6,0.6c0.8,0.2,1.5,0.4,1.9,0.6c0.4,0.2,0.7,0.5,0.9,0.9
		c0.2,0.4,0.3,0.8,0.3,1.4c0,0.5-0.1,1-0.4,1.4c-0.3,0.4-0.7,0.7-1.2,1s-1.1,0.3-1.9,0.3c-1.1,0-1.9-0.3-2.5-0.8
		S327.8,238.2,327.7,237.2z"/>
</g>
<g>
	<path fill="#666666" d="M340.1,302.4v-8.6h1.7v3.4h3.4v-3.4h1.7v8.6h-1.7v-3.8h-3.4v3.8H340.1z"/>
	<path fill="#666666" d="M348,296.2h1.8l1.5,4.4l1.5-4.4h1.7l-2.2,6l-0.4,1.1c-0.1,0.4-0.3,0.6-0.4,0.8c-0.1,0.2-0.3,0.3-0.5,0.5
		c-0.2,0.1-0.4,0.2-0.6,0.3s-0.5,0.1-0.8,0.1c-0.3,0-0.6,0-0.9-0.1l-0.1-1.3c0.3,0.1,0.5,0.1,0.7,0.1c0.4,0,0.7-0.1,0.9-0.3
		s0.3-0.5,0.4-0.9L348,296.2z"/>
	<path fill="#666666" d="M361.2,302.4h-1.5v-0.9c-0.3,0.4-0.6,0.6-0.9,0.8c-0.3,0.2-0.7,0.3-1,0.3c-0.7,0-1.3-0.3-1.8-0.9
		c-0.5-0.6-0.8-1.4-0.8-2.4c0-1.1,0.2-1.9,0.7-2.4c0.5-0.5,1.1-0.8,1.9-0.8c0.7,0,1.3,0.3,1.8,0.9v-3.1h1.6
		C361.2,293.8,361.2,302.4,361.2,302.4z M356.8,299.2c0,0.7,0.1,1.1,0.3,1.4c0.3,0.4,0.6,0.6,1.1,0.6c0.4,0,0.7-0.2,1-0.5
		c0.3-0.3,0.4-0.8,0.4-1.4c0-0.7-0.1-1.2-0.4-1.5s-0.6-0.5-1-0.5c-0.4,0-0.7,0.2-1,0.5S356.8,298.6,356.8,299.2z"/>
	<path fill="#666666" d="M364.4,302.4h-1.6v-6.2h1.5v0.9c0.3-0.4,0.5-0.7,0.7-0.8c0.2-0.1,0.4-0.2,0.7-0.2c0.4,0,0.7,0.1,1.1,0.3
		l-0.5,1.4c-0.3-0.2-0.5-0.3-0.8-0.3c-0.2,0-0.4,0.1-0.6,0.2c-0.2,0.1-0.3,0.4-0.4,0.7c-0.1,0.3-0.1,1-0.1,2.1
		C364.4,300.5,364.4,302.4,364.4,302.4z"/>
	<path fill="#666666" d="M367.1,299.2c0-0.5,0.1-1.1,0.4-1.6c0.3-0.5,0.7-0.9,1.1-1.2c0.5-0.3,1-0.4,1.7-0.4c0.9,0,1.7,0.3,2.3,0.9
		c0.6,0.6,0.9,1.4,0.9,2.3c0,0.9-0.3,1.7-0.9,2.3c-0.6,0.6-1.4,0.9-2.3,0.9c-0.6,0-1.1-0.1-1.6-0.4c-0.5-0.3-0.9-0.6-1.2-1.1
		C367.2,300.5,367.1,299.9,367.1,299.2z M368.8,299.3c0,0.6,0.1,1.1,0.4,1.4s0.7,0.5,1.1,0.5s0.8-0.2,1.1-0.5s0.4-0.8,0.4-1.4
		c0-0.6-0.1-1.1-0.4-1.4s-0.7-0.5-1.1-0.5s-0.8,0.2-1.1,0.5S368.8,298.7,368.8,299.3z"/>
	<path fill="#666666" d="M374.8,296.2h1.5v0.9c0.2-0.3,0.5-0.6,0.8-0.8c0.3-0.2,0.7-0.3,1.1-0.3c0.7,0,1.3,0.3,1.8,0.9
		c0.5,0.6,0.8,1.4,0.8,2.4c0,1-0.3,1.8-0.8,2.4c-0.5,0.6-1.1,0.9-1.8,0.9c-0.3,0-0.7-0.1-0.9-0.2c-0.3-0.1-0.6-0.4-0.9-0.7v3.1h-1.6
		C374.8,304.8,374.8,296.2,374.8,296.2z M376.4,299.2c0,0.7,0.1,1.2,0.4,1.6c0.3,0.3,0.6,0.5,1,0.5c0.4,0,0.7-0.2,1-0.5
		c0.3-0.3,0.4-0.8,0.4-1.5c0-0.7-0.1-1.1-0.4-1.5c-0.3-0.3-0.6-0.5-1-0.5c-0.4,0-0.7,0.2-1,0.5C376.5,298.1,376.4,298.6,376.4,299.2
		z"/>
	<path fill="#666666" d="M383.8,293.8v3.2c0.5-0.6,1.2-0.9,1.9-0.9c0.4,0,0.7,0.1,1,0.2s0.5,0.3,0.7,0.5c0.2,0.2,0.3,0.5,0.3,0.7
		c0.1,0.3,0.1,0.7,0.1,1.2v3.6h-1.6v-3.3c0-0.7,0-1.1-0.1-1.2s-0.2-0.3-0.3-0.4c-0.2-0.1-0.4-0.2-0.6-0.2c-0.3,0-0.5,0.1-0.7,0.2
		s-0.4,0.3-0.5,0.6s-0.1,0.7-0.1,1.2v3.1h-1.6v-8.6C382.1,293.8,383.8,293.8,383.8,293.8z"/>
	<path fill="#666666" d="M389.5,295.4v-1.5h1.6v1.5H389.5z M389.5,302.4v-6.2h1.6v6.2H389.5z"/>
	<path fill="#666666" d="M392.8,302.4v-8.6h1.6v8.6H392.8z"/>
	<path fill="#666666" d="M396.1,295.4v-1.5h1.6v1.5H396.1z M396.1,302.4v-6.2h1.6v6.2H396.1z"/>
	<path fill="#666666" d="M404.9,298l-1.6,0.3c-0.1-0.3-0.2-0.6-0.4-0.7s-0.4-0.2-0.8-0.2c-0.4,0-0.7,0.1-1,0.4
		c-0.2,0.3-0.4,0.8-0.4,1.4c0,0.7,0.1,1.3,0.4,1.6c0.2,0.3,0.6,0.5,1,0.5c0.3,0,0.6-0.1,0.8-0.3c0.2-0.2,0.3-0.5,0.4-0.9l1.6,0.3
		c-0.2,0.7-0.5,1.3-1,1.7s-1.1,0.6-1.9,0.6c-0.9,0-1.6-0.3-2.2-0.9c-0.5-0.6-0.8-1.4-0.8-2.4c0-1,0.3-1.8,0.8-2.4
		c0.5-0.6,1.3-0.9,2.2-0.9c0.8,0,1.4,0.2,1.8,0.5C404.4,296.9,404.7,297.4,404.9,298z"/>
	<path fill="#666666" d="M410.7,298.1l-1.5-0.3c0.2-0.6,0.5-1,0.9-1.3c0.4-0.3,1-0.4,1.8-0.4c0.7,0,1.3,0.1,1.6,0.3
		c0.4,0.2,0.6,0.4,0.8,0.7c0.1,0.3,0.2,0.8,0.2,1.5l0,1.9c0,0.5,0,0.9,0.1,1.2c0.1,0.3,0.2,0.5,0.3,0.8h-1.6c0-0.1-0.1-0.3-0.2-0.5
		c0-0.1,0-0.2-0.1-0.2c-0.3,0.3-0.6,0.5-0.9,0.6c-0.3,0.1-0.7,0.2-1,0.2c-0.6,0-1.1-0.2-1.5-0.5c-0.4-0.3-0.6-0.8-0.6-1.3
		c0-0.4,0.1-0.7,0.3-0.9s0.4-0.5,0.7-0.6s0.7-0.3,1.3-0.4c0.8-0.1,1.3-0.3,1.6-0.4v-0.2c0-0.3-0.1-0.5-0.2-0.7
		c-0.2-0.1-0.5-0.2-0.9-0.2c-0.3,0-0.5,0.1-0.7,0.2S410.8,297.8,410.7,298.1z M412.9,299.4c-0.2,0.1-0.5,0.2-1,0.3s-0.8,0.2-0.9,0.3
		c-0.2,0.2-0.3,0.3-0.3,0.6c0,0.2,0.1,0.4,0.3,0.6s0.4,0.3,0.7,0.3c0.3,0,0.6-0.1,0.9-0.3c0.2-0.1,0.3-0.3,0.4-0.5
		c0-0.1,0.1-0.4,0.1-0.8L412.9,299.4L412.9,299.4z"/>
	<path fill="#666666" d="M416,296.2h1.5v0.8c0.5-0.7,1.2-1,1.9-1c0.4,0,0.7,0.1,1,0.2s0.5,0.4,0.7,0.7c0.3-0.3,0.6-0.6,0.9-0.7
		s0.7-0.2,1-0.2c0.5,0,0.8,0.1,1.2,0.3s0.6,0.5,0.7,0.8c0.1,0.3,0.2,0.7,0.2,1.3v4h-1.6v-3.6c0-0.6-0.1-1-0.2-1.2
		c-0.2-0.2-0.4-0.4-0.7-0.4c-0.2,0-0.4,0.1-0.6,0.2c-0.2,0.1-0.4,0.3-0.4,0.6s-0.1,0.7-0.1,1.3v3h-1.6V299c0-0.6,0-1-0.1-1.2
		c-0.1-0.2-0.1-0.3-0.3-0.4c-0.1-0.1-0.3-0.1-0.5-0.1c-0.3,0-0.5,0.1-0.7,0.2c-0.2,0.1-0.3,0.3-0.4,0.6c-0.1,0.3-0.1,0.7-0.1,1.3v3
		H416L416,296.2L416,296.2z"/>
	<path fill="#666666" d="M426.8,295.4v-1.5h1.6v1.5H426.8z M426.8,302.4v-6.2h1.6v6.2H426.8z"/>
	<path fill="#666666" d="M435.8,302.4h-1.6v-3.2c0-0.7,0-1.1-0.1-1.3c-0.1-0.2-0.2-0.4-0.3-0.5s-0.3-0.2-0.6-0.2
		c-0.3,0-0.5,0.1-0.8,0.2c-0.2,0.2-0.4,0.4-0.5,0.6c-0.1,0.3-0.1,0.7-0.1,1.4v2.8h-1.6v-6.2h1.5v0.9c0.5-0.7,1.2-1.1,2.1-1.1
		c0.4,0,0.7,0.1,1,0.2c0.3,0.1,0.5,0.3,0.7,0.5c0.2,0.2,0.3,0.4,0.3,0.7c0.1,0.3,0.1,0.6,0.1,1.1L435.8,302.4L435.8,302.4z"/>
	<path fill="#666666" d="M437.1,299.2c0-0.5,0.1-1.1,0.4-1.6c0.3-0.5,0.7-0.9,1.1-1.2c0.5-0.3,1-0.4,1.7-0.4c0.9,0,1.7,0.3,2.3,0.9
		c0.6,0.6,0.9,1.4,0.9,2.3c0,0.9-0.3,1.7-0.9,2.3c-0.6,0.6-1.4,0.9-2.3,0.9c-0.6,0-1.1-0.1-1.6-0.4c-0.5-0.3-0.9-0.6-1.2-1.1
		C437.2,300.5,437.1,299.9,437.1,299.2z M438.8,299.3c0,0.6,0.1,1.1,0.4,1.4c0.3,0.3,0.7,0.5,1.1,0.5s0.8-0.2,1.1-0.5
		s0.4-0.8,0.4-1.4c0-0.6-0.1-1.1-0.4-1.4s-0.7-0.5-1.1-0.5s-0.8,0.2-1.1,0.5C438.9,298.2,438.8,298.7,438.8,299.3z"/>
	<path fill="#666666" d="M449.4,298.1l-1.5-0.3c0.2-0.6,0.5-1,0.9-1.3c0.4-0.3,1-0.4,1.8-0.4c0.7,0,1.3,0.1,1.6,0.3
		c0.4,0.2,0.6,0.4,0.8,0.7c0.1,0.3,0.2,0.8,0.2,1.5l0,1.9c0,0.5,0,0.9,0.1,1.2c0.1,0.3,0.2,0.5,0.3,0.8h-1.6c0-0.1-0.1-0.3-0.2-0.5
		c0-0.1,0-0.2-0.1-0.2c-0.3,0.3-0.6,0.5-0.9,0.6c-0.3,0.1-0.7,0.2-1,0.2c-0.6,0-1.1-0.2-1.5-0.5c-0.4-0.3-0.6-0.8-0.6-1.3
		c0-0.4,0.1-0.7,0.3-0.9s0.4-0.5,0.7-0.6s0.7-0.3,1.3-0.4c0.8-0.1,1.3-0.3,1.6-0.4v-0.2c0-0.3-0.1-0.5-0.2-0.7
		c-0.2-0.1-0.5-0.2-0.9-0.2c-0.3,0-0.5,0.1-0.7,0.2S449.5,297.8,449.4,298.1z M451.6,299.4c-0.2,0.1-0.5,0.2-1,0.3
		c-0.5,0.1-0.8,0.2-0.9,0.3c-0.2,0.2-0.3,0.3-0.3,0.6c0,0.2,0.1,0.4,0.3,0.6s0.4,0.3,0.7,0.3c0.3,0,0.6-0.1,0.9-0.3
		c0.2-0.1,0.3-0.3,0.4-0.5c0-0.1,0.1-0.4,0.1-0.8L451.6,299.4L451.6,299.4z"/>
	<path fill="#666666" d="M460.2,298l-1.6,0.3c-0.1-0.3-0.2-0.6-0.4-0.7s-0.4-0.2-0.8-0.2c-0.4,0-0.7,0.1-1,0.4s-0.4,0.8-0.4,1.4
		c0,0.7,0.1,1.3,0.4,1.6c0.2,0.3,0.6,0.5,1,0.5c0.3,0,0.6-0.1,0.8-0.3c0.2-0.2,0.3-0.5,0.4-0.9l1.6,0.3c-0.2,0.7-0.5,1.3-1,1.7
		s-1.1,0.6-1.9,0.6c-0.9,0-1.6-0.3-2.2-0.9c-0.5-0.6-0.8-1.4-0.8-2.4c0-1,0.3-1.8,0.8-2.4s1.3-0.9,2.2-0.9c0.8,0,1.4,0.2,1.8,0.5
		C459.7,296.9,460,297.4,460.2,298z"/>
	<path fill="#666666" d="M461.5,295.4v-1.5h1.6v1.5H461.5z M461.5,302.4v-6.2h1.6v6.2H461.5z"/>
	<path fill="#666666" d="M470.5,302.4H469v-0.9c-0.3,0.4-0.6,0.6-0.9,0.8c-0.3,0.2-0.7,0.3-1,0.3c-0.7,0-1.3-0.3-1.8-0.9
		c-0.5-0.6-0.8-1.4-0.8-2.4c0-1.1,0.2-1.9,0.7-2.4c0.5-0.5,1.1-0.8,1.9-0.8c0.7,0,1.3,0.3,1.8,0.9v-3.1h1.6L470.5,302.4L470.5,302.4
		z M466.1,299.2c0,0.7,0.1,1.1,0.3,1.4c0.3,0.4,0.6,0.6,1.1,0.6c0.4,0,0.7-0.2,1-0.5s0.4-0.8,0.4-1.4c0-0.7-0.1-1.2-0.4-1.5
		s-0.6-0.5-1-0.5c-0.4,0-0.7,0.2-1,0.5S466.1,298.6,466.1,299.2z"/>
	<path fill="#666666" d="M471.6,300.6l1.7-0.3c0.1,0.3,0.2,0.6,0.4,0.7s0.5,0.2,0.9,0.2c0.4,0,0.7-0.1,1-0.2
		c0.1-0.1,0.2-0.3,0.2-0.4c0-0.1,0-0.2-0.1-0.3c-0.1-0.1-0.3-0.1-0.6-0.2c-1.3-0.3-2.2-0.6-2.5-0.8c-0.5-0.3-0.7-0.8-0.7-1.4
		c0-0.5,0.2-1,0.6-1.4s1.1-0.6,2-0.6c0.9,0,1.5,0.1,1.9,0.4c0.4,0.3,0.7,0.7,0.9,1.2l-1.6,0.3c-0.1-0.2-0.2-0.4-0.4-0.6
		c-0.2-0.1-0.5-0.2-0.8-0.2c-0.4,0-0.7,0.1-0.9,0.2c-0.1,0.1-0.2,0.2-0.2,0.3c0,0.1,0.1,0.2,0.2,0.3c0.1,0.1,0.7,0.3,1.5,0.5
		s1.5,0.4,1.8,0.7c0.3,0.3,0.5,0.7,0.5,1.2c0,0.6-0.2,1.1-0.7,1.5s-1.2,0.6-2.1,0.6c-0.8,0-1.5-0.2-2-0.5S471.7,301.2,471.6,300.6z"
		/>
</g>
<g>
	<path fill="#666666" d="M97.6,302.4v-8.6h1.7v3.4h3.4v-3.4h1.7v8.6h-1.7v-3.8h-3.4v3.8H97.6z"/>
	<path fill="#666666" d="M105.5,296.2h1.8l1.5,4.4l1.5-4.4h1.7l-2.2,6l-0.4,1.1c-0.1,0.4-0.3,0.6-0.4,0.8s-0.3,0.3-0.5,0.5
		c-0.2,0.1-0.4,0.2-0.6,0.3c-0.2,0.1-0.5,0.1-0.8,0.1c-0.3,0-0.6,0-0.9-0.1l-0.1-1.3c0.3,0.1,0.5,0.1,0.7,0.1c0.4,0,0.7-0.1,0.9-0.3
		c0.2-0.2,0.3-0.5,0.4-0.9L105.5,296.2z"/>
	<path fill="#666666" d="M118.7,302.4h-1.5v-0.9c-0.3,0.4-0.6,0.6-0.9,0.8c-0.3,0.2-0.7,0.3-1,0.3c-0.7,0-1.3-0.3-1.8-0.9
		s-0.8-1.4-0.8-2.4c0-1.1,0.2-1.9,0.7-2.4s1.1-0.8,1.9-0.8c0.7,0,1.3,0.3,1.8,0.9v-3.1h1.6V302.4z M114.3,299.2
		c0,0.7,0.1,1.1,0.3,1.4c0.3,0.4,0.6,0.6,1.1,0.6c0.4,0,0.7-0.2,1-0.5s0.4-0.8,0.4-1.4c0-0.7-0.1-1.2-0.4-1.5s-0.6-0.5-1-0.5
		c-0.4,0-0.7,0.2-1,0.5S114.3,298.6,114.3,299.2z"/>
	<path fill="#666666" d="M121.9,302.4h-1.6v-6.2h1.5v0.9c0.3-0.4,0.5-0.7,0.7-0.8s0.4-0.2,0.7-0.2c0.4,0,0.7,0.1,1.1,0.3l-0.5,1.4
		c-0.3-0.2-0.5-0.3-0.8-0.3c-0.2,0-0.4,0.1-0.6,0.2c-0.2,0.1-0.3,0.4-0.4,0.7s-0.1,1-0.1,2.1V302.4z"/>
	<path fill="#666666" d="M124.6,299.2c0-0.5,0.1-1.1,0.4-1.6s0.7-0.9,1.1-1.2s1-0.4,1.7-0.4c0.9,0,1.7,0.3,2.3,0.9s0.9,1.4,0.9,2.3
		c0,0.9-0.3,1.7-0.9,2.3c-0.6,0.6-1.4,0.9-2.3,0.9c-0.6,0-1.1-0.1-1.6-0.4c-0.5-0.3-0.9-0.6-1.2-1.1
		C124.7,300.5,124.6,299.9,124.6,299.2z M126.3,299.3c0,0.6,0.1,1.1,0.4,1.4s0.7,0.5,1.1,0.5s0.8-0.2,1.1-0.5
		c0.3-0.3,0.4-0.8,0.4-1.4c0-0.6-0.1-1.1-0.4-1.4c-0.3-0.3-0.7-0.5-1.1-0.5s-0.8,0.2-1.1,0.5C126.4,298.2,126.3,298.7,126.3,299.3z"
		/>
	<path fill="#666666" d="M132.2,296.2h1.5v0.9c0.2-0.3,0.5-0.6,0.8-0.8c0.3-0.2,0.7-0.3,1.1-0.3c0.7,0,1.3,0.3,1.8,0.9
		s0.8,1.4,0.8,2.4c0,1-0.3,1.8-0.8,2.4c-0.5,0.6-1.1,0.9-1.8,0.9c-0.3,0-0.7-0.1-0.9-0.2c-0.3-0.1-0.6-0.4-0.9-0.7v3.1h-1.6
		L132.2,296.2L132.2,296.2z M133.9,299.2c0,0.7,0.1,1.2,0.4,1.6c0.3,0.3,0.6,0.5,1,0.5c0.4,0,0.7-0.2,1-0.5s0.4-0.8,0.4-1.5
		c0-0.7-0.1-1.1-0.4-1.5s-0.6-0.5-1-0.5c-0.4,0-0.7,0.2-1,0.5C134,298.1,133.9,298.6,133.9,299.2z"/>
	<path fill="#666666" d="M141.2,293.8v3.2c0.5-0.6,1.2-0.9,1.9-0.9c0.4,0,0.7,0.1,1,0.2c0.3,0.1,0.5,0.3,0.7,0.5
		c0.2,0.2,0.3,0.5,0.3,0.7c0.1,0.3,0.1,0.7,0.1,1.2v3.6h-1.6v-3.3c0-0.7,0-1.1-0.1-1.2s-0.2-0.3-0.3-0.4s-0.4-0.2-0.6-0.2
		c-0.3,0-0.5,0.1-0.7,0.2s-0.4,0.3-0.5,0.6c-0.1,0.3-0.1,0.7-0.1,1.2v3.1h-1.6v-8.6C139.6,293.8,141.2,293.8,141.2,293.8z"/>
	<path fill="#666666" d="M146.6,299.2c0-0.5,0.1-1.1,0.4-1.6s0.7-0.9,1.1-1.2s1-0.4,1.7-0.4c0.9,0,1.7,0.3,2.3,0.9s0.9,1.4,0.9,2.3
		c0,0.9-0.3,1.7-0.9,2.3c-0.6,0.6-1.4,0.9-2.3,0.9c-0.6,0-1.1-0.1-1.6-0.4c-0.5-0.3-0.9-0.6-1.2-1.1
		C146.7,300.5,146.6,299.9,146.6,299.2z M148.2,299.3c0,0.6,0.1,1.1,0.4,1.4s0.7,0.5,1.1,0.5s0.8-0.2,1.1-0.5
		c0.3-0.3,0.4-0.8,0.4-1.4c0-0.6-0.1-1.1-0.4-1.4c-0.3-0.3-0.7-0.5-1.1-0.5s-0.8,0.2-1.1,0.5C148.4,298.2,148.2,298.7,148.2,299.3z"
		/>
	<path fill="#666666" d="M154.2,302.4v-8.6h1.6v3.1c0.5-0.6,1.1-0.9,1.8-0.9c0.8,0,1.4,0.3,1.9,0.8c0.5,0.5,0.7,1.3,0.7,2.4
		c0,1.1-0.3,1.9-0.8,2.5c-0.5,0.6-1.1,0.9-1.8,0.9c-0.4,0-0.7-0.1-1.1-0.3c-0.3-0.2-0.6-0.4-0.9-0.8v0.9L154.2,302.4L154.2,302.4z
		 M155.8,299.2c0,0.6,0.1,1.1,0.3,1.4c0.3,0.4,0.7,0.7,1.1,0.7c0.4,0,0.7-0.2,0.9-0.5s0.4-0.8,0.4-1.5c0-0.7-0.1-1.2-0.4-1.5
		s-0.6-0.5-1-0.5c-0.4,0-0.7,0.2-1,0.5S155.8,298.5,155.8,299.2z"/>
	<path fill="#666666" d="M161.6,295.4v-1.5h1.6v1.5H161.6z M161.6,302.4v-6.2h1.6v6.2H161.6z"/>
	<path fill="#666666" d="M170.4,298l-1.6,0.3c-0.1-0.3-0.2-0.6-0.4-0.7s-0.4-0.2-0.8-0.2c-0.4,0-0.7,0.1-1,0.4s-0.4,0.8-0.4,1.4
		c0,0.7,0.1,1.3,0.4,1.6c0.2,0.3,0.6,0.5,1,0.5c0.3,0,0.6-0.1,0.8-0.3c0.2-0.2,0.3-0.5,0.4-0.9l1.6,0.3c-0.2,0.7-0.5,1.3-1,1.7
		s-1.1,0.6-1.9,0.6c-0.9,0-1.6-0.3-2.2-0.9s-0.8-1.4-0.8-2.4c0-1,0.3-1.8,0.8-2.4s1.3-0.9,2.2-0.9c0.8,0,1.4,0.2,1.8,0.5
		C169.8,296.9,170.2,297.4,170.4,298z"/>
	<path fill="#666666" d="M176.2,298.1l-1.5-0.3c0.2-0.6,0.5-1,0.9-1.3s1-0.4,1.8-0.4c0.7,0,1.3,0.1,1.6,0.3s0.6,0.4,0.8,0.7
		s0.2,0.8,0.2,1.5l0,1.9c0,0.5,0,0.9,0.1,1.2s0.2,0.5,0.3,0.8h-1.6c0-0.1-0.1-0.3-0.2-0.5c0-0.1,0-0.2-0.1-0.2
		c-0.3,0.3-0.6,0.5-0.9,0.6s-0.7,0.2-1,0.2c-0.6,0-1.1-0.2-1.5-0.5c-0.4-0.3-0.6-0.8-0.6-1.3c0-0.4,0.1-0.7,0.3-0.9s0.4-0.5,0.7-0.6
		s0.7-0.3,1.3-0.4c0.8-0.1,1.3-0.3,1.6-0.4v-0.2c0-0.3-0.1-0.5-0.2-0.7c-0.2-0.1-0.5-0.2-0.9-0.2c-0.3,0-0.5,0.1-0.7,0.2
		S176.3,297.8,176.2,298.1z M178.4,299.4c-0.2,0.1-0.5,0.2-1,0.3c-0.5,0.1-0.8,0.2-0.9,0.3c-0.2,0.2-0.3,0.3-0.3,0.6
		c0,0.2,0.1,0.4,0.3,0.6s0.4,0.3,0.7,0.3c0.3,0,0.6-0.1,0.9-0.3c0.2-0.1,0.3-0.3,0.4-0.5c0-0.1,0.1-0.4,0.1-0.8L178.4,299.4
		L178.4,299.4z"/>
	<path fill="#666666" d="M181.5,296.2h1.5v0.9c0.5-0.7,1.2-1,1.9-1c0.4,0,0.7,0.1,1,0.2s0.5,0.4,0.7,0.7c0.3-0.3,0.6-0.6,0.9-0.7
		s0.7-0.2,1-0.2c0.5,0,0.8,0.1,1.2,0.3s0.6,0.5,0.7,0.8c0.1,0.3,0.2,0.7,0.2,1.3v4H189v-3.6c0-0.6-0.1-1-0.2-1.2
		c-0.2-0.2-0.4-0.4-0.7-0.4c-0.2,0-0.4,0.1-0.6,0.2s-0.4,0.3-0.4,0.6s-0.1,0.7-0.1,1.3v3h-1.6V299c0-0.6,0-1-0.1-1.2
		s-0.1-0.3-0.3-0.4s-0.3-0.1-0.5-0.1c-0.3,0-0.5,0.1-0.7,0.2s-0.3,0.3-0.4,0.6s-0.1,0.7-0.1,1.3v3h-1.6L181.5,296.2L181.5,296.2z"/>
	<path fill="#666666" d="M192.3,295.4v-1.5h1.6v1.5H192.3z M192.3,302.4v-6.2h1.6v6.2H192.3z"/>
	<path fill="#666666" d="M201.3,302.4h-1.6v-3.2c0-0.7,0-1.1-0.1-1.3s-0.2-0.4-0.3-0.5s-0.3-0.2-0.6-0.2c-0.3,0-0.5,0.1-0.8,0.2
		c-0.2,0.2-0.4,0.4-0.5,0.6s-0.1,0.7-0.1,1.4v2.8h-1.6v-6.2h1.5v0.9c0.5-0.7,1.2-1.1,2.1-1.1c0.4,0,0.7,0.1,1,0.2
		c0.3,0.1,0.5,0.3,0.7,0.5s0.3,0.4,0.3,0.7c0.1,0.3,0.1,0.6,0.1,1.1L201.3,302.4L201.3,302.4z"/>
	<path fill="#666666" d="M202.6,299.2c0-0.5,0.1-1.1,0.4-1.6s0.7-0.9,1.1-1.2s1-0.4,1.7-0.4c0.9,0,1.7,0.3,2.3,0.9s0.9,1.4,0.9,2.3
		c0,0.9-0.3,1.7-0.9,2.3c-0.6,0.6-1.4,0.9-2.3,0.9c-0.6,0-1.1-0.1-1.6-0.4c-0.5-0.3-0.9-0.6-1.2-1.1
		C202.7,300.5,202.6,299.9,202.6,299.2z M204.3,299.3c0,0.6,0.1,1.1,0.4,1.4s0.7,0.5,1.1,0.5s0.8-0.2,1.1-0.5
		c0.3-0.3,0.4-0.8,0.4-1.4c0-0.6-0.1-1.1-0.4-1.4c-0.3-0.3-0.7-0.5-1.1-0.5s-0.8,0.2-1.1,0.5C204.4,298.2,204.3,298.7,204.3,299.3z"
		/>
	<path fill="#666666" d="M214.8,298.1l-1.5-0.3c0.2-0.6,0.5-1,0.9-1.3s1-0.4,1.8-0.4c0.7,0,1.3,0.1,1.6,0.3s0.6,0.4,0.8,0.7
		s0.2,0.8,0.2,1.5l0,1.9c0,0.5,0,0.9,0.1,1.2s0.2,0.5,0.3,0.8h-1.6c0-0.1-0.1-0.3-0.2-0.5c0-0.1,0-0.2-0.1-0.2
		c-0.3,0.3-0.6,0.5-0.9,0.6s-0.7,0.2-1,0.2c-0.6,0-1.1-0.2-1.5-0.5c-0.4-0.3-0.6-0.8-0.6-1.3c0-0.4,0.1-0.7,0.3-0.9s0.4-0.5,0.7-0.6
		s0.7-0.3,1.3-0.4c0.8-0.1,1.3-0.3,1.6-0.4v-0.2c0-0.3-0.1-0.5-0.2-0.7c-0.2-0.1-0.5-0.2-0.9-0.2c-0.3,0-0.5,0.1-0.7,0.2
		S214.9,297.8,214.8,298.1z M217,299.4c-0.2,0.1-0.5,0.2-1,0.3c-0.5,0.1-0.8,0.2-0.9,0.3c-0.2,0.2-0.3,0.3-0.3,0.6
		c0,0.2,0.1,0.4,0.3,0.6s0.4,0.3,0.7,0.3c0.3,0,0.6-0.1,0.9-0.3c0.2-0.1,0.3-0.3,0.4-0.5c0-0.1,0.1-0.4,0.1-0.8L217,299.4L217,299.4
		z"/>
	<path fill="#666666" d="M225.7,298l-1.6,0.3c-0.1-0.3-0.2-0.6-0.4-0.7s-0.4-0.2-0.8-0.2c-0.4,0-0.7,0.1-1,0.4s-0.4,0.8-0.4,1.4
		c0,0.7,0.1,1.3,0.4,1.6c0.2,0.3,0.6,0.5,1,0.5c0.3,0,0.6-0.1,0.8-0.3c0.2-0.2,0.3-0.5,0.4-0.9l1.6,0.3c-0.2,0.7-0.5,1.3-1,1.7
		s-1.1,0.6-1.9,0.6c-0.9,0-1.6-0.3-2.2-0.9s-0.8-1.4-0.8-2.4c0-1,0.3-1.8,0.8-2.4s1.3-0.9,2.2-0.9c0.8,0,1.4,0.2,1.8,0.5
		C225.2,296.9,225.5,297.4,225.7,298z"/>
	<path fill="#666666" d="M227,295.4v-1.5h1.6v1.5H227z M227,302.4v-6.2h1.6v6.2H227z"/>
	<path fill="#666666" d="M236,302.4h-1.5v-0.9c-0.3,0.4-0.6,0.6-0.9,0.8c-0.3,0.2-0.7,0.3-1,0.3c-0.7,0-1.3-0.3-1.8-0.9
		s-0.8-1.4-0.8-2.4c0-1.1,0.2-1.9,0.7-2.4s1.1-0.8,1.9-0.8c0.7,0,1.3,0.3,1.8,0.9v-3.1h1.6V302.4z M231.6,299.2
		c0,0.7,0.1,1.1,0.3,1.4c0.3,0.4,0.6,0.6,1.1,0.6c0.4,0,0.7-0.2,1-0.5s0.4-0.8,0.4-1.4c0-0.7-0.1-1.2-0.4-1.5s-0.6-0.5-1-0.5
		c-0.4,0-0.7,0.2-1,0.5S231.6,298.6,231.6,299.2z"/>
	<path fill="#666666" d="M237,300.6l1.7-0.3c0.1,0.3,0.2,0.6,0.4,0.7s0.5,0.2,0.9,0.2c0.4,0,0.7-0.1,1-0.2c0.1-0.1,0.2-0.3,0.2-0.4
		c0-0.1,0-0.2-0.1-0.3c-0.1-0.1-0.3-0.2-0.6-0.2c-1.3-0.3-2.2-0.6-2.5-0.8c-0.5-0.3-0.7-0.8-0.7-1.4c0-0.5,0.2-1,0.6-1.4
		s1.1-0.6,2-0.6c0.9,0,1.5,0.1,1.9,0.4s0.7,0.7,0.9,1.2l-1.6,0.3c-0.1-0.2-0.2-0.4-0.4-0.6s-0.5-0.2-0.8-0.2c-0.4,0-0.7,0.1-0.9,0.2
		c-0.1,0.1-0.2,0.2-0.2,0.3c0,0.1,0.1,0.2,0.2,0.3c0.1,0.1,0.7,0.3,1.5,0.5s1.5,0.4,1.8,0.7c0.3,0.3,0.5,0.7,0.5,1.2
		c0,0.6-0.2,1.1-0.7,1.5s-1.2,0.6-2.1,0.6c-0.8,0-1.5-0.2-2-0.5C237.5,301.7,237.2,301.2,237,300.6z"/>
</g>
<g>
	<path fill="#666666" d="M394.7,320.5h1.5v0.9c0.2-0.3,0.5-0.6,0.8-0.8c0.3-0.2,0.7-0.3,1.1-0.3c0.7,0,1.3,0.3,1.8,0.9
		s0.8,1.4,0.8,2.4c0,1-0.3,1.8-0.8,2.4c-0.5,0.6-1.1,0.9-1.8,0.9c-0.3,0-0.7-0.1-0.9-0.2c-0.3-0.1-0.6-0.4-0.9-0.7v3.1h-1.6V320.5
		L394.7,320.5z M396.3,323.5c0,0.7,0.1,1.2,0.4,1.6c0.3,0.3,0.6,0.5,1,0.5c0.4,0,0.7-0.2,1-0.5s0.4-0.8,0.4-1.5
		c0-0.7-0.1-1.1-0.4-1.5c-0.3-0.3-0.6-0.5-1-0.5c-0.4,0-0.7,0.2-1,0.5C396.4,322.4,396.3,322.9,396.3,323.5z"/>
	<path fill="#666666" d="M401.7,323.5c0-0.5,0.1-1.1,0.4-1.6c0.3-0.5,0.7-0.9,1.1-1.2c0.5-0.3,1-0.4,1.7-0.4c0.9,0,1.7,0.3,2.3,0.9
		c0.6,0.6,0.9,1.4,0.9,2.3c0,0.9-0.3,1.7-0.9,2.3s-1.4,0.9-2.3,0.9c-0.6,0-1.1-0.1-1.6-0.4c-0.5-0.3-0.9-0.6-1.2-1.1
		C401.8,324.8,401.7,324.2,401.7,323.5z M403.4,323.6c0,0.6,0.1,1.1,0.4,1.4c0.3,0.3,0.7,0.5,1.1,0.5s0.8-0.2,1.1-0.5
		c0.3-0.3,0.4-0.8,0.4-1.4c0-0.6-0.1-1.1-0.4-1.4c-0.3-0.3-0.7-0.5-1.1-0.5s-0.8,0.2-1.1,0.5C403.5,322.5,403.4,323,403.4,323.6z"/>
	<path fill="#666666" d="M409.4,326.7v-8.6h1.6v8.6C411,326.7,409.4,326.7,409.4,326.7z"/>
	<path fill="#666666" d="M414,322.4l-1.5-0.3c0.2-0.6,0.5-1,0.9-1.3c0.4-0.3,1-0.4,1.8-0.4c0.7,0,1.3,0.1,1.6,0.3s0.6,0.4,0.8,0.7
		c0.1,0.3,0.2,0.8,0.2,1.5l0,1.9c0,0.5,0,0.9,0.1,1.2c0.1,0.3,0.2,0.5,0.3,0.8h-1.6c0-0.1-0.1-0.3-0.2-0.5c0-0.1,0-0.2-0.1-0.2
		c-0.3,0.3-0.6,0.5-0.9,0.6c-0.3,0.1-0.7,0.2-1,0.2c-0.6,0-1.1-0.2-1.5-0.5s-0.6-0.8-0.6-1.3c0-0.4,0.1-0.7,0.3-0.9
		c0.2-0.3,0.4-0.5,0.7-0.6c0.3-0.1,0.7-0.3,1.3-0.4c0.8-0.1,1.3-0.3,1.6-0.4v-0.2c0-0.3-0.1-0.5-0.2-0.7c-0.2-0.1-0.5-0.2-0.9-0.2
		c-0.3,0-0.5,0.1-0.7,0.2C414.2,321.9,414.1,322.1,414,322.4z M416.2,323.7c-0.2,0.1-0.5,0.2-1,0.3c-0.5,0.1-0.8,0.2-0.9,0.3
		c-0.2,0.2-0.3,0.3-0.3,0.6c0,0.2,0.1,0.4,0.3,0.6s0.4,0.3,0.7,0.3c0.3,0,0.6-0.1,0.9-0.3c0.2-0.1,0.3-0.3,0.4-0.5
		c0-0.1,0.1-0.4,0.1-0.8L416.2,323.7L416.2,323.7z"/>
	<path fill="#666666" d="M421,326.7h-1.6v-6.2h1.5v0.9c0.3-0.4,0.5-0.7,0.7-0.8s0.4-0.2,0.7-0.2c0.4,0,0.7,0.1,1.1,0.3l-0.5,1.4
		c-0.3-0.2-0.5-0.3-0.8-0.3c-0.2,0-0.4,0.1-0.6,0.2c-0.2,0.1-0.3,0.4-0.4,0.7s-0.1,1-0.1,2.1V326.7L421,326.7z"/>
</g>
<g>
	<path fill="#666666" d="M148.9,326.7h-1.6v-3.2c0-0.7,0-1.1-0.1-1.3s-0.2-0.4-0.3-0.5c-0.2-0.1-0.3-0.2-0.6-0.2
		c-0.3,0-0.5,0.1-0.8,0.2c-0.2,0.2-0.4,0.4-0.5,0.6c-0.1,0.3-0.1,0.7-0.1,1.4v2.8h-1.6v-6.2h1.5v0.9c0.5-0.7,1.2-1.1,2.1-1.1
		c0.4,0,0.7,0.1,1,0.2s0.5,0.3,0.7,0.5s0.3,0.4,0.3,0.7c0.1,0.3,0.1,0.6,0.1,1.1L148.9,326.7L148.9,326.7z"/>
	<path fill="#666666" d="M150.2,323.5c0-0.5,0.1-1.1,0.4-1.6c0.3-0.5,0.7-0.9,1.1-1.2c0.5-0.3,1-0.4,1.7-0.4c0.9,0,1.7,0.3,2.3,0.9
		c0.6,0.6,0.9,1.4,0.9,2.3c0,0.9-0.3,1.7-0.9,2.3s-1.4,0.9-2.3,0.9c-0.6,0-1.1-0.1-1.6-0.4s-0.9-0.6-1.2-1.1
		C150.3,324.8,150.2,324.2,150.2,323.5z M151.8,323.6c0,0.6,0.1,1.1,0.4,1.4s0.7,0.5,1.1,0.5s0.8-0.2,1.1-0.5s0.4-0.8,0.4-1.4
		c0-0.6-0.1-1.1-0.4-1.4s-0.7-0.5-1.1-0.5s-0.8,0.2-1.1,0.5S151.8,323,151.8,323.6z"/>
	<path fill="#666666" d="M163.5,326.7h-1.6v-3.2c0-0.7,0-1.1-0.1-1.3s-0.2-0.4-0.3-0.5c-0.2-0.1-0.3-0.2-0.6-0.2
		c-0.3,0-0.5,0.1-0.8,0.2c-0.2,0.2-0.4,0.4-0.5,0.6c-0.1,0.3-0.1,0.7-0.1,1.4v2.8h-1.6v-6.2h1.5v0.9c0.5-0.7,1.2-1.1,2.1-1.1
		c0.4,0,0.7,0.1,1,0.2s0.5,0.3,0.7,0.5s0.3,0.4,0.3,0.7c0.1,0.3,0.1,0.6,0.1,1.1L163.5,326.7L163.5,326.7z"/>
	<path fill="#666666" d="M165,324.4v-1.6h3.2v1.6H165z"/>
	<path fill="#666666" d="M169.2,320.5h1.5v0.9c0.2-0.3,0.5-0.6,0.8-0.8c0.3-0.2,0.7-0.3,1.1-0.3c0.7,0,1.3,0.3,1.8,0.9
		s0.8,1.4,0.8,2.4c0,1-0.3,1.8-0.8,2.4c-0.5,0.6-1.1,0.9-1.8,0.9c-0.3,0-0.7-0.1-0.9-0.2c-0.3-0.1-0.6-0.4-0.9-0.7v3.1h-1.6
		L169.2,320.5L169.2,320.5z M170.8,323.5c0,0.7,0.1,1.2,0.4,1.5c0.3,0.3,0.6,0.5,1,0.5c0.4,0,0.7-0.2,1-0.5s0.4-0.8,0.4-1.5
		c0-0.7-0.1-1.1-0.4-1.5s-0.6-0.5-1-0.5c-0.4,0-0.7,0.2-1,0.5S170.8,322.9,170.8,323.5z"/>
	<path fill="#666666" d="M176.1,323.5c0-0.5,0.1-1.1,0.4-1.6c0.3-0.5,0.7-0.9,1.1-1.2c0.5-0.3,1-0.4,1.7-0.4c0.9,0,1.7,0.3,2.3,0.9
		c0.6,0.6,0.9,1.4,0.9,2.3c0,0.9-0.3,1.7-0.9,2.3s-1.4,0.9-2.3,0.9c-0.6,0-1.1-0.1-1.6-0.4s-0.9-0.6-1.2-1.1
		C176.3,324.8,176.1,324.2,176.1,323.5z M177.8,323.6c0,0.6,0.1,1.1,0.4,1.4s0.7,0.5,1.1,0.5s0.8-0.2,1.1-0.5s0.4-0.8,0.4-1.4
		c0-0.6-0.1-1.1-0.4-1.4s-0.7-0.5-1.1-0.5s-0.8,0.2-1.1,0.5S177.8,323,177.8,323.6z"/>
	<path fill="#666666" d="M183.9,326.7v-8.6h1.6v8.6C185.5,326.7,183.9,326.7,183.9,326.7z"/>
	<path fill="#666666" d="M188.4,322.4l-1.5-0.3c0.2-0.6,0.5-1,0.9-1.3s1-0.4,1.8-0.4c0.7,0,1.3,0.1,1.6,0.3s0.6,0.4,0.8,0.7
		c0.1,0.3,0.2,0.8,0.2,1.5l0,1.9c0,0.5,0,1,0.1,1.2s0.2,0.5,0.3,0.8H191c0-0.1-0.1-0.3-0.2-0.5c0-0.1,0-0.2-0.1-0.2
		c-0.3,0.3-0.6,0.5-0.9,0.6c-0.3,0.1-0.7,0.2-1,0.2c-0.6,0-1.1-0.2-1.5-0.5s-0.6-0.8-0.6-1.3c0-0.4,0.1-0.7,0.3-0.9s0.4-0.5,0.7-0.6
		c0.3-0.1,0.7-0.3,1.3-0.4c0.8-0.1,1.3-0.3,1.6-0.4v-0.2c0-0.3-0.1-0.5-0.2-0.7s-0.5-0.2-0.9-0.2c-0.3,0-0.5,0.1-0.7,0.2
		C188.7,321.9,188.5,322.1,188.4,322.4z M190.6,323.7c-0.2,0.1-0.5,0.2-1,0.3c-0.5,0.1-0.8,0.2-0.9,0.3c-0.2,0.2-0.3,0.3-0.3,0.6
		c0,0.2,0.1,0.4,0.3,0.6s0.4,0.3,0.7,0.3c0.3,0,0.6-0.1,0.9-0.3c0.2-0.1,0.3-0.3,0.4-0.5c0-0.1,0.1-0.4,0.1-0.8L190.6,323.7
		L190.6,323.7z"/>
	<path fill="#666666" d="M195.4,326.7h-1.6v-6.2h1.5v0.9c0.3-0.4,0.5-0.7,0.7-0.8s0.4-0.2,0.7-0.2c0.4,0,0.7,0.1,1.1,0.3l-0.5,1.4
		c-0.3-0.2-0.5-0.3-0.8-0.3c-0.2,0-0.4,0.1-0.6,0.2c-0.2,0.1-0.3,0.4-0.4,0.7s-0.1,1-0.1,2.1V326.7z"/>
</g>
<g>
	<path fill="#C78D46" d="M26.9,405.3v-8.6h3.6c0.9,0,1.6,0.1,2,0.2c0.4,0.2,0.7,0.4,1,0.8c0.2,0.4,0.4,0.8,0.4,1.4
		c0,0.6-0.2,1.2-0.6,1.6c-0.4,0.4-0.9,0.7-1.7,0.8c0.4,0.2,0.7,0.5,0.9,0.7c0.2,0.3,0.6,0.7,1,1.4l1,1.7h-2.1l-1.3-1.9
		c-0.4-0.7-0.8-1.1-0.9-1.3c-0.2-0.2-0.3-0.3-0.5-0.4c-0.2-0.1-0.5-0.1-0.9-0.1h-0.4v3.6L26.9,405.3L26.9,405.3z M28.7,400.4H30
		c0.8,0,1.4,0,1.6-0.1s0.4-0.2,0.5-0.4c0.1-0.2,0.2-0.4,0.2-0.6c0-0.3-0.1-0.5-0.2-0.7s-0.4-0.3-0.7-0.3c-0.1,0-0.6,0-1.3,0h-1.4
		C28.7,398.2,28.7,400.4,28.7,400.4z"/>
	<path fill="#C78D46" d="M38.6,400.6V399h6v1.5H38.6z M38.6,403.2v-1.5h6v1.5H38.6z"/>
	<path fill="#C78D46" d="M50.5,401l-1.5-0.3c0.2-0.6,0.5-1,0.9-1.3s1-0.4,1.8-0.4c0.7,0,1.3,0.1,1.6,0.3s0.6,0.4,0.8,0.7
		c0.1,0.3,0.2,0.8,0.2,1.5l0,1.9c0,0.5,0,0.9,0.1,1.2s0.2,0.5,0.3,0.8H53c0-0.1-0.1-0.3-0.2-0.5c0-0.1,0-0.2-0.1-0.2
		c-0.3,0.3-0.6,0.5-0.9,0.6s-0.7,0.2-1,0.2c-0.6,0-1.1-0.2-1.5-0.5c-0.4-0.3-0.6-0.8-0.6-1.3c0-0.4,0.1-0.7,0.3-0.9
		c0.2-0.3,0.4-0.5,0.7-0.6c0.3-0.1,0.7-0.3,1.3-0.4c0.8-0.1,1.3-0.3,1.6-0.4v-0.2c0-0.3-0.1-0.5-0.2-0.7s-0.5-0.2-0.9-0.2
		c-0.3,0-0.5,0.1-0.7,0.2S50.6,400.7,50.5,401z M52.7,402.3c-0.2,0.1-0.5,0.2-1,0.3s-0.8,0.2-0.9,0.3c-0.2,0.2-0.3,0.3-0.3,0.6
		c0,0.2,0.1,0.4,0.3,0.6c0.2,0.2,0.4,0.3,0.7,0.3c0.3,0,0.6-0.1,0.8-0.3c0.2-0.1,0.3-0.3,0.4-0.5c0-0.1,0.1-0.4,0.1-0.8L52.7,402.3
		L52.7,402.3z"/>
	<path fill="#C78D46" d="M55.9,405.3v-8.6h1.6v8.6H55.9z"/>
	<path fill="#C78D46" d="M59.2,405.3v-8.6h1.6v4.6l1.9-2.2h2l-2.1,2.3l2.3,3.9h-1.8l-1.6-2.8l-0.8,0.8v2H59.2L59.2,405.3z"/>
	<path fill="#C78D46" d="M65.2,399.1h1.8l1.5,4.4l1.5-4.4h1.7l-2.2,6l-0.4,1.1c-0.1,0.4-0.3,0.6-0.4,0.8s-0.3,0.3-0.5,0.5
		s-0.4,0.2-0.6,0.3c-0.2,0.1-0.5,0.1-0.8,0.1c-0.3,0-0.6,0-0.9-0.1l-0.1-1.3c0.3,0.1,0.5,0.1,0.7,0.1c0.4,0,0.7-0.1,0.8-0.3
		s0.3-0.5,0.4-0.9L65.2,399.1z"/>
	<path fill="#C78D46" d="M72.6,405.3v-8.6h1.6v8.6H72.6z"/>
</g>
<g>
	<path fill="#CF5044" d="M141.3,405.3v-8.6h3.6c0.9,0,1.6,0.1,2,0.2c0.4,0.2,0.7,0.4,1,0.8c0.2,0.4,0.4,0.8,0.4,1.4
		c0,0.6-0.2,1.2-0.6,1.6s-0.9,0.7-1.7,0.8c0.4,0.2,0.7,0.5,0.9,0.7c0.2,0.3,0.6,0.7,1,1.4l1,1.7H147l-1.3-1.9
		c-0.4-0.7-0.8-1.1-0.9-1.3c-0.2-0.2-0.3-0.3-0.5-0.4c-0.2-0.1-0.5-0.1-0.9-0.1H143v3.6L141.3,405.3L141.3,405.3z M143,400.4h1.3
		c0.8,0,1.4,0,1.6-0.1s0.4-0.2,0.5-0.4s0.2-0.4,0.2-0.6c0-0.3-0.1-0.5-0.2-0.7s-0.4-0.3-0.7-0.3c-0.1,0-0.6,0-1.3,0H143L143,400.4
		L143,400.4z"/>
	<path fill="#CF5044" d="M152.9,400.6V399h6v1.5H152.9z M152.9,403.2v-1.5h6v1.5H152.9z"/>
	<path fill="#CF5044" d="M164.9,401l-1.5-0.3c0.2-0.6,0.5-1,0.9-1.3s1-0.4,1.8-0.4c0.7,0,1.3,0.1,1.6,0.3s0.6,0.4,0.8,0.7
		c0.1,0.3,0.2,0.8,0.2,1.5l0,1.9c0,0.5,0,0.9,0.1,1.2s0.2,0.5,0.3,0.8h-1.6c0-0.1-0.1-0.3-0.2-0.5c0-0.1,0-0.2-0.1-0.2
		c-0.3,0.3-0.6,0.5-0.9,0.6s-0.7,0.2-1,0.2c-0.6,0-1.1-0.2-1.5-0.5c-0.4-0.3-0.6-0.8-0.6-1.3c0-0.4,0.1-0.7,0.3-0.9
		c0.2-0.3,0.4-0.5,0.7-0.6c0.3-0.1,0.7-0.3,1.3-0.4c0.8-0.1,1.3-0.3,1.6-0.4v-0.2c0-0.3-0.1-0.5-0.2-0.7s-0.5-0.2-0.9-0.2
		c-0.3,0-0.5,0.1-0.7,0.2S165,400.7,164.9,401z M167.1,402.3c-0.2,0.1-0.5,0.2-1,0.3s-0.8,0.2-0.9,0.3c-0.2,0.2-0.3,0.3-0.3,0.6
		c0,0.2,0.1,0.4,0.3,0.6c0.2,0.2,0.4,0.3,0.7,0.3c0.3,0,0.6-0.1,0.9-0.3c0.2-0.1,0.3-0.3,0.4-0.5c0-0.1,0.1-0.4,0.1-0.8L167.1,402.3
		L167.1,402.3z"/>
	<path fill="#CF5044" d="M171.9,405.3h-1.6v-6.2h1.5v0.9c0.3-0.4,0.5-0.7,0.7-0.8c0.2-0.1,0.4-0.2,0.7-0.2c0.4,0,0.7,0.1,1.1,0.3
		l-0.5,1.4c-0.3-0.2-0.5-0.3-0.8-0.3c-0.2,0-0.4,0.1-0.6,0.2s-0.3,0.4-0.4,0.7c-0.1,0.3-0.1,1-0.1,2.1L171.9,405.3L171.9,405.3z"/>
	<path fill="#CF5044" d="M174.6,402.1c0-0.5,0.1-1.1,0.4-1.6s0.7-0.9,1.1-1.2s1-0.4,1.7-0.4c0.9,0,1.7,0.3,2.3,0.9s0.9,1.4,0.9,2.3
		c0,0.9-0.3,1.7-0.9,2.3c-0.6,0.6-1.4,0.9-2.3,0.9c-0.6,0-1.1-0.1-1.6-0.4s-0.9-0.6-1.2-1.1S174.6,402.8,174.6,402.1z M176.3,402.2
		c0,0.6,0.1,1.1,0.4,1.4s0.7,0.5,1.1,0.5s0.8-0.2,1.1-0.5s0.4-0.8,0.4-1.4c0-0.6-0.1-1.1-0.4-1.4s-0.7-0.5-1.1-0.5s-0.8,0.2-1.1,0.5
		S176.3,401.6,176.3,402.2z"/>
	<path fill="#CF5044" d="M182.2,399.1h1.5v0.8c0.5-0.7,1.2-1,1.9-1c0.4,0,0.7,0.1,1,0.2s0.5,0.4,0.7,0.7c0.3-0.3,0.6-0.6,0.9-0.7
		s0.7-0.2,1-0.2c0.5,0,0.8,0.1,1.2,0.3s0.6,0.5,0.7,0.8c0.1,0.3,0.2,0.7,0.2,1.3v4h-1.6v-3.6c0-0.6-0.1-1-0.2-1.2
		c-0.2-0.2-0.4-0.4-0.7-0.4c-0.2,0-0.4,0.1-0.6,0.2s-0.4,0.3-0.4,0.6s-0.1,0.7-0.1,1.3v3h-1.6v-3.4c0-0.6,0-1-0.1-1.2
		c-0.1-0.2-0.1-0.3-0.3-0.4s-0.3-0.1-0.5-0.1c-0.3,0-0.5,0.1-0.7,0.2s-0.3,0.3-0.4,0.6s-0.1,0.7-0.1,1.3v3h-1.6L182.2,399.1
		L182.2,399.1z"/>
	<path fill="#CF5044" d="M194.2,401l-1.5-0.3c0.2-0.6,0.5-1,0.9-1.3s1-0.4,1.8-0.4c0.7,0,1.3,0.1,1.6,0.3s0.6,0.4,0.8,0.7
		c0.1,0.3,0.2,0.8,0.2,1.5l0,1.9c0,0.5,0,0.9,0.1,1.2s0.2,0.5,0.3,0.8h-1.6c0-0.1-0.1-0.3-0.2-0.5c0-0.1,0-0.2-0.1-0.2
		c-0.3,0.3-0.6,0.5-0.9,0.6s-0.7,0.2-1,0.2c-0.6,0-1.1-0.2-1.5-0.5c-0.4-0.3-0.6-0.8-0.6-1.3c0-0.4,0.1-0.7,0.3-0.9
		c0.2-0.3,0.4-0.5,0.7-0.6c0.3-0.1,0.7-0.3,1.3-0.4c0.8-0.1,1.3-0.3,1.6-0.4v-0.2c0-0.3-0.1-0.5-0.2-0.7s-0.5-0.2-0.9-0.2
		c-0.3,0-0.5,0.1-0.7,0.2S194.3,400.7,194.2,401z M196.4,402.3c-0.2,0.1-0.5,0.2-1,0.3s-0.8,0.2-0.9,0.3c-0.2,0.2-0.3,0.3-0.3,0.6
		c0,0.2,0.1,0.4,0.3,0.6c0.2,0.2,0.4,0.3,0.7,0.3c0.3,0,0.6-0.1,0.9-0.3c0.2-0.1,0.3-0.3,0.4-0.5c0-0.1,0.1-0.4,0.1-0.8L196.4,402.3
		L196.4,402.3z"/>
	<path fill="#CF5044" d="M202.5,399.1v1.3h-1.1v2.5c0,0.5,0,0.8,0,0.9s0.1,0.2,0.1,0.2s0.2,0.1,0.3,0.1c0.2,0,0.4-0.1,0.7-0.2
		l0.1,1.3c-0.4,0.2-0.8,0.2-1.3,0.2c-0.3,0-0.6,0-0.8-0.1s-0.4-0.2-0.5-0.4s-0.2-0.4-0.2-0.6c0-0.2-0.1-0.6-0.1-1.2v-2.7H199v-1.3
		h0.8v-1.2l1.7-1v2.2H202.5z"/>
	<path fill="#CF5044" d="M203.6,398.3v-1.5h1.6v1.5H203.6z M203.6,405.3v-6.2h1.6v6.2H203.6z"/>
	<path fill="#CF5044" d="M212.4,401l-1.6,0.3c-0.1-0.3-0.2-0.6-0.4-0.7s-0.4-0.2-0.8-0.2c-0.4,0-0.7,0.1-1,0.4
		c-0.2,0.3-0.4,0.8-0.4,1.4c0,0.7,0.1,1.3,0.4,1.6s0.6,0.5,1,0.5c0.3,0,0.6-0.1,0.8-0.3s0.3-0.5,0.4-0.9l1.6,0.3
		c-0.2,0.7-0.5,1.3-1,1.7c-0.5,0.4-1.1,0.6-1.9,0.6c-0.9,0-1.6-0.3-2.2-0.9c-0.5-0.6-0.8-1.4-0.8-2.4c0-1,0.3-1.8,0.8-2.4
		c0.5-0.6,1.3-0.9,2.2-0.9c0.8,0,1.4,0.2,1.8,0.5S212.2,400.3,212.4,401z"/>
	<path fill="#CF5044" d="M216.8,405.7l1.9,0.2c0,0.2,0.1,0.4,0.2,0.5c0.2,0.1,0.4,0.2,0.7,0.2c0.4,0,0.8-0.1,1-0.2
		c0.1-0.1,0.3-0.2,0.3-0.4c0.1-0.1,0.1-0.4,0.1-0.8v-0.9c-0.5,0.7-1.1,1-1.9,1c-0.8,0-1.5-0.4-2-1.1c-0.4-0.6-0.6-1.3-0.6-2.1
		c0-1,0.3-1.8,0.8-2.4c0.5-0.6,1.1-0.8,1.9-0.8c0.8,0,1.4,0.3,1.9,1v-0.9h1.5v5.6c0,0.7-0.1,1.3-0.2,1.6s-0.3,0.6-0.5,0.9
		c-0.2,0.2-0.5,0.4-0.9,0.5c-0.4,0.1-0.8,0.2-1.4,0.2c-1.1,0-1.8-0.2-2.2-0.5s-0.7-0.8-0.7-1.4C216.8,405.9,216.8,405.8,216.8,405.7
		z M218.3,402.1c0,0.7,0.1,1.1,0.4,1.5c0.3,0.3,0.6,0.5,0.9,0.5c0.4,0,0.7-0.2,1-0.5s0.4-0.8,0.4-1.4c0-0.6-0.1-1.1-0.4-1.4
		c-0.3-0.3-0.6-0.5-1-0.5c-0.4,0-0.7,0.2-1,0.5S218.3,401.5,218.3,402.1z"/>
	<path fill="#CF5044" d="M225.9,405.3h-1.6v-6.2h1.5v0.9c0.3-0.4,0.5-0.7,0.7-0.8c0.2-0.1,0.4-0.2,0.7-0.2c0.4,0,0.7,0.1,1.1,0.3
		l-0.5,1.4c-0.3-0.2-0.5-0.3-0.8-0.3c-0.2,0-0.4,0.1-0.6,0.2s-0.3,0.4-0.4,0.7c-0.1,0.3-0.1,1-0.1,2.1L225.9,405.3L225.9,405.3z"/>
	<path fill="#CF5044" d="M228.6,402.1c0-0.5,0.1-1.1,0.4-1.6s0.7-0.9,1.1-1.2s1-0.4,1.7-0.4c0.9,0,1.7,0.3,2.3,0.9s0.9,1.4,0.9,2.3
		c0,0.9-0.3,1.7-0.9,2.3c-0.6,0.6-1.4,0.9-2.3,0.9c-0.6,0-1.1-0.1-1.6-0.4s-0.9-0.6-1.2-1.1S228.6,402.8,228.6,402.1z M230.3,402.2
		c0,0.6,0.1,1.1,0.4,1.4s0.7,0.5,1.1,0.5s0.8-0.2,1.1-0.5s0.4-0.8,0.4-1.4c0-0.6-0.1-1.1-0.4-1.4s-0.7-0.5-1.1-0.5s-0.8,0.2-1.1,0.5
		S230.3,401.6,230.3,402.2z"/>
	<path fill="#CF5044" d="M240.4,405.3v-0.9c-0.2,0.3-0.5,0.6-0.9,0.8s-0.8,0.3-1.2,0.3c-0.4,0-0.8-0.1-1.1-0.3
		c-0.3-0.2-0.6-0.4-0.7-0.8s-0.2-0.8-0.2-1.4v-3.9h1.6v2.9c0,0.9,0,1.4,0.1,1.6c0.1,0.2,0.2,0.4,0.3,0.5s0.4,0.2,0.6,0.2
		c0.3,0,0.5-0.1,0.8-0.2s0.4-0.3,0.5-0.6s0.1-0.8,0.1-1.7v-2.6h1.6v6.2H240.4z"/>
	<path fill="#CF5044" d="M243.6,399.1h1.5v0.9c0.2-0.3,0.5-0.6,0.8-0.8c0.3-0.2,0.7-0.3,1.1-0.3c0.7,0,1.3,0.3,1.8,0.8
		c0.5,0.6,0.8,1.4,0.8,2.4c0,1-0.3,1.8-0.8,2.4c-0.5,0.6-1.1,0.9-1.8,0.9c-0.3,0-0.7-0.1-0.9-0.2c-0.3-0.1-0.6-0.4-0.9-0.7v3.1h-1.6
		L243.6,399.1L243.6,399.1z M245.2,402.1c0,0.7,0.1,1.2,0.4,1.5s0.6,0.5,1,0.5c0.4,0,0.7-0.2,1-0.5s0.4-0.8,0.4-1.5
		c0-0.7-0.1-1.1-0.4-1.5c-0.3-0.3-0.6-0.5-1-0.5c-0.4,0-0.7,0.2-1,0.5C245.4,401,245.2,401.5,245.2,402.1z"/>
</g>
<g>
	<path fill="#1C758A" d="M316.8,405.3v-8.6h1.7l3.5,5.7v-5.7h1.6v8.6h-1.7l-3.5-5.6v5.6H316.8z"/>
	<path fill="#1C758A" d="M329,403.4l1.6,0.3c-0.2,0.6-0.5,1.1-1,1.4c-0.5,0.3-1,0.5-1.7,0.5c-1.1,0-1.9-0.4-2.4-1.1
		c-0.4-0.6-0.6-1.3-0.6-2.1c0-1,0.3-1.8,0.8-2.4c0.5-0.6,1.2-0.9,2-0.9c0.9,0,1.7,0.3,2.2,0.9s0.8,1.5,0.8,2.8h-4.1
		c0,0.5,0.1,0.9,0.4,1.1c0.3,0.3,0.6,0.4,0.9,0.4c0.3,0,0.5-0.1,0.6-0.2S329,403.7,329,403.4z M329.1,401.7c0-0.5-0.1-0.8-0.4-1.1
		c-0.2-0.2-0.5-0.4-0.9-0.4c-0.4,0-0.7,0.1-0.9,0.4s-0.4,0.6-0.3,1.1H329.1z"/>
	<path fill="#1C758A" d="M336.2,405.3v-0.9c-0.2,0.3-0.5,0.6-0.9,0.8s-0.8,0.3-1.2,0.3c-0.4,0-0.8-0.1-1.1-0.3
		c-0.3-0.2-0.6-0.4-0.7-0.8s-0.2-0.8-0.2-1.4v-3.9h1.6v2.9c0,0.9,0,1.4,0.1,1.6c0.1,0.2,0.2,0.4,0.3,0.5s0.4,0.2,0.6,0.2
		c0.3,0,0.5-0.1,0.8-0.2s0.4-0.3,0.5-0.6s0.1-0.8,0.1-1.7v-2.6h1.6v6.2H336.2z"/>
	<path fill="#1C758A" d="M342.3,399.1v1.3h-1.1v2.5c0,0.5,0,0.8,0,0.9s0.1,0.2,0.1,0.2s0.2,0.1,0.3,0.1c0.2,0,0.4-0.1,0.7-0.2
		l0.1,1.3c-0.4,0.2-0.8,0.2-1.3,0.2c-0.3,0-0.6,0-0.8-0.1s-0.4-0.2-0.5-0.4s-0.2-0.4-0.2-0.6c0-0.2-0.1-0.6-0.1-1.2v-2.7h-0.8v-1.3
		h0.8v-1.2l1.7-1v2.2H342.3z"/>
	<path fill="#1C758A" d="M345,405.3h-1.6v-6.2h1.5v0.9c0.3-0.4,0.5-0.7,0.7-0.8c0.2-0.1,0.4-0.2,0.7-0.2c0.4,0,0.7,0.1,1.1,0.3
		l-0.5,1.4c-0.3-0.2-0.5-0.3-0.8-0.3c-0.2,0-0.4,0.1-0.6,0.2s-0.3,0.4-0.4,0.7c-0.1,0.3-0.1,1-0.1,2.1L345,405.3L345,405.3z"/>
	<path fill="#1C758A" d="M349.3,401l-1.5-0.3c0.2-0.6,0.5-1,0.9-1.3s1-0.4,1.8-0.4c0.7,0,1.3,0.1,1.6,0.3s0.6,0.4,0.8,0.7
		c0.1,0.3,0.2,0.8,0.2,1.5l0,1.9c0,0.5,0,0.9,0.1,1.2s0.1,0.5,0.3,0.8h-1.6c0-0.1-0.1-0.3-0.2-0.5c0-0.1,0-0.2-0.1-0.2
		c-0.3,0.3-0.6,0.5-0.9,0.6s-0.7,0.2-1,0.2c-0.6,0-1.1-0.2-1.5-0.5c-0.4-0.3-0.6-0.8-0.6-1.3c0-0.4,0.1-0.7,0.3-0.9
		c0.2-0.3,0.4-0.5,0.7-0.6c0.3-0.1,0.7-0.3,1.3-0.4c0.8-0.1,1.3-0.3,1.6-0.4v-0.2c0-0.3-0.1-0.5-0.2-0.7s-0.5-0.2-0.9-0.2
		c-0.3,0-0.5,0.1-0.7,0.2S349.4,400.7,349.3,401z M351.5,402.3c-0.2,0.1-0.5,0.2-1,0.3s-0.8,0.2-0.9,0.3c-0.2,0.2-0.3,0.3-0.3,0.6
		c0,0.2,0.1,0.4,0.3,0.6c0.2,0.2,0.4,0.3,0.7,0.3c0.3,0,0.6-0.1,0.9-0.3c0.2-0.1,0.3-0.3,0.4-0.5c0-0.1,0.1-0.4,0.1-0.8L351.5,402.3
		L351.5,402.3z"/>
	<path fill="#1C758A" d="M354.8,405.3v-8.6h1.6v8.6H354.8z"/>
</g>
<g>
	<path fill="#699C52" d="M469.8,405.3h-1.9l-0.8-2h-3.4l-0.7,2h-1.8l3.3-8.6h1.8L469.8,405.3z M466.6,401.9l-1.2-3.2l-1.2,3.2H466.6
		z"/>
	<path fill="#699C52" d="M476.1,401l-1.6,0.3c-0.1-0.3-0.2-0.6-0.4-0.7s-0.4-0.2-0.8-0.2c-0.4,0-0.7,0.1-1,0.4
		c-0.2,0.3-0.4,0.8-0.4,1.4c0,0.7,0.1,1.3,0.4,1.6s0.6,0.5,1,0.5c0.3,0,0.6-0.1,0.8-0.3s0.3-0.5,0.4-0.9l1.6,0.3
		c-0.2,0.7-0.5,1.3-1,1.7c-0.5,0.4-1.1,0.6-1.9,0.6c-0.9,0-1.6-0.3-2.2-0.9c-0.5-0.6-0.8-1.4-0.8-2.4c0-1,0.3-1.8,0.8-2.4
		c0.5-0.6,1.3-0.9,2.2-0.9c0.8,0,1.4,0.2,1.8,0.5S475.9,400.3,476.1,401z"/>
	<path fill="#699C52" d="M477.4,398.3v-1.5h1.6v1.5H477.4z M477.4,405.3v-6.2h1.6v6.2H477.4z"/>
	<path fill="#699C52" d="M486.4,405.3h-1.5v-0.9c-0.3,0.4-0.6,0.6-0.9,0.8s-0.7,0.3-1,0.3c-0.7,0-1.3-0.3-1.8-0.9s-0.8-1.4-0.8-2.4
		c0-1.1,0.2-1.9,0.7-2.4c0.5-0.5,1.1-0.8,1.9-0.8c0.7,0,1.3,0.3,1.8,0.9v-3.1h1.6V405.3z M482,402.1c0,0.7,0.1,1.1,0.3,1.4
		c0.3,0.4,0.6,0.6,1.1,0.6c0.4,0,0.7-0.2,1-0.5c0.3-0.3,0.4-0.8,0.4-1.4c0-0.7-0.1-1.2-0.4-1.5s-0.6-0.5-1-0.5c-0.4,0-0.7,0.2-1,0.5
		S482,401.5,482,402.1z"/>
	<path fill="#699C52" d="M488,398.3v-1.5h1.6v1.5H488z M488,405.3v-6.2h1.6v6.2H488z"/>
	<path fill="#699C52" d="M496.8,401l-1.6,0.3c-0.1-0.3-0.2-0.6-0.4-0.7s-0.4-0.2-0.8-0.2c-0.4,0-0.7,0.1-1,0.4
		c-0.2,0.3-0.4,0.8-0.4,1.4c0,0.7,0.1,1.3,0.4,1.6s0.6,0.5,1,0.5c0.3,0,0.6-0.1,0.8-0.3s0.3-0.5,0.4-0.9l1.6,0.3
		c-0.2,0.7-0.5,1.3-1,1.7c-0.5,0.4-1.1,0.6-1.9,0.6c-0.9,0-1.6-0.3-2.2-0.9c-0.5-0.6-0.8-1.4-0.8-2.4c0-1,0.3-1.8,0.8-2.4
		c0.5-0.6,1.3-0.9,2.2-0.9c0.8,0,1.4,0.2,1.8,0.5S496.6,400.3,496.8,401z"/>
</g>
<g>
	<path fill="#644172" d="M603.1,396.7h3.4c0.7,0,1.2,0,1.5,0.1s0.6,0.2,0.9,0.4c0.3,0.2,0.5,0.4,0.7,0.7s0.3,0.6,0.3,1
		c0,0.4-0.1,0.8-0.3,1.1s-0.5,0.6-0.9,0.8c0.5,0.2,0.9,0.4,1.2,0.8s0.4,0.8,0.4,1.3c0,0.4-0.1,0.8-0.3,1.1s-0.4,0.7-0.7,0.9
		c-0.3,0.2-0.7,0.4-1.2,0.4c-0.3,0-1,0.1-2.1,0.1h-2.9L603.1,396.7L603.1,396.7z M604.9,398.2v2h1.1c0.7,0,1.1,0,1.3,0
		c0.3,0,0.5-0.1,0.7-0.3c0.2-0.2,0.3-0.4,0.3-0.7c0-0.3-0.1-0.5-0.2-0.6s-0.4-0.3-0.7-0.3c-0.2,0-0.7,0-1.5,0L604.9,398.2
		L604.9,398.2z M604.9,401.6v2.3h1.6c0.6,0,1,0,1.2-0.1c0.3,0,0.5-0.2,0.6-0.3s0.2-0.4,0.2-0.7c0-0.3-0.1-0.5-0.2-0.7
		s-0.3-0.3-0.5-0.4s-0.7-0.1-1.5-0.1L604.9,401.6L604.9,401.6z"/>
	<path fill="#644172" d="M613,401l-1.5-0.3c0.2-0.6,0.5-1,0.9-1.3s1-0.4,1.8-0.4c0.7,0,1.3,0.1,1.6,0.3s0.6,0.4,0.8,0.7
		c0.1,0.3,0.2,0.8,0.2,1.5l0,1.9c0,0.5,0,0.9,0.1,1.2s0.2,0.5,0.3,0.8h-1.6c0-0.1-0.1-0.3-0.2-0.5c0-0.1,0-0.2-0.1-0.2
		c-0.3,0.3-0.6,0.5-0.9,0.6s-0.7,0.2-1,0.2c-0.6,0-1.1-0.2-1.5-0.5c-0.4-0.3-0.6-0.8-0.6-1.3c0-0.4,0.1-0.7,0.3-0.9
		c0.2-0.3,0.4-0.5,0.7-0.6c0.3-0.1,0.7-0.3,1.3-0.4c0.8-0.1,1.3-0.3,1.6-0.4v-0.2c0-0.3-0.1-0.5-0.2-0.7s-0.5-0.2-0.9-0.2
		c-0.3,0-0.5,0.1-0.7,0.2S613.1,400.7,613,401z M615.2,402.3c-0.2,0.1-0.5,0.2-1,0.3s-0.8,0.2-0.9,0.3c-0.2,0.2-0.3,0.3-0.3,0.6
		c0,0.2,0.1,0.4,0.3,0.6c0.2,0.2,0.4,0.3,0.7,0.3c0.3,0,0.6-0.1,0.8-0.3c0.2-0.1,0.3-0.3,0.4-0.5c0-0.1,0.1-0.4,0.1-0.8L615.2,402.3
		L615.2,402.3z"/>
	<path fill="#644172" d="M617.9,403.6l1.7-0.3c0.1,0.3,0.2,0.6,0.4,0.7c0.2,0.2,0.5,0.2,0.9,0.2c0.4,0,0.7-0.1,1-0.2
		c0.1-0.1,0.2-0.3,0.2-0.4c0-0.1,0-0.2-0.1-0.3c-0.1-0.1-0.3-0.1-0.6-0.2c-1.3-0.3-2.2-0.6-2.5-0.8c-0.5-0.3-0.7-0.8-0.7-1.4
		c0-0.5,0.2-1,0.6-1.4c0.4-0.4,1.1-0.6,2-0.6c0.9,0,1.5,0.1,1.9,0.4s0.7,0.7,0.9,1.2l-1.6,0.3c-0.1-0.2-0.2-0.4-0.4-0.6
		s-0.5-0.2-0.8-0.2c-0.4,0-0.7,0.1-0.9,0.2c-0.1,0.1-0.2,0.2-0.2,0.3c0,0.1,0.1,0.2,0.2,0.3c0.1,0.1,0.7,0.3,1.5,0.5
		c0.9,0.2,1.5,0.4,1.8,0.7c0.3,0.3,0.5,0.7,0.5,1.2c0,0.6-0.2,1.1-0.7,1.5s-1.2,0.6-2.1,0.6c-0.8,0-1.5-0.2-2-0.5
		S618,404.1,617.9,403.6z"/>
	<path fill="#644172" d="M625.1,398.3v-1.5h1.6v1.5H625.1z M625.1,405.3v-6.2h1.6v6.2H625.1z"/>
	<path fill="#644172" d="M633.9,401l-1.6,0.3c-0.1-0.3-0.2-0.6-0.4-0.7s-0.4-0.2-0.8-0.2c-0.4,0-0.7,0.1-1,0.4
		c-0.2,0.3-0.4,0.8-0.4,1.4c0,0.7,0.1,1.3,0.4,1.6s0.6,0.5,1,0.5c0.3,0,0.6-0.1,0.8-0.3s0.3-0.5,0.4-0.9l1.6,0.3
		c-0.2,0.7-0.5,1.3-1,1.7c-0.5,0.4-1.1,0.6-1.9,0.6c-0.9,0-1.6-0.3-2.2-0.9c-0.5-0.6-0.8-1.4-0.8-2.4c0-1,0.3-1.8,0.8-2.4
		c0.5-0.6,1.3-0.9,2.2-0.9c0.8,0,1.4,0.2,1.8,0.5S633.7,400.3,633.9,401z"/>
</g>
<g>
	<path fill="#F0AC5F" d="M22.3,451.6v-1.4h3.7v3.4c-0.4,0.4-0.9,0.7-1.6,0.9s-1.4,0.4-2.1,0.4c-0.9,0-1.7-0.2-2.3-0.6
		s-1.2-0.9-1.5-1.6c-0.3-0.7-0.5-1.5-0.5-2.3c0-0.9,0.2-1.7,0.6-2.4c0.4-0.7,0.9-1.2,1.6-1.6c0.6-0.3,1.2-0.4,2.1-0.4
		c1.1,0,1.9,0.2,2.5,0.7c0.6,0.4,1,1.1,1.2,1.9l-1.7,0.3c-0.1-0.4-0.3-0.8-0.7-1s-0.8-0.4-1.3-0.4c-0.8,0-1.4,0.2-1.8,0.7
		c-0.4,0.5-0.7,1.2-0.7,2.1c0,1,0.2,1.8,0.7,2.3s1,0.8,1.8,0.8c0.4,0,0.7-0.1,1.1-0.2s0.7-0.3,0.9-0.5v-1.1H22.3L22.3,451.6z"/>
	<path fill="#F0AC5F" d="M27.7,454.8v-8.6h1.6v8.6H27.7z"/>
	<path fill="#F0AC5F" d="M30.2,448.5H32l1.5,4.4l1.5-4.4h1.7l-2.2,6l-0.4,1.1c-0.1,0.4-0.3,0.6-0.4,0.8c-0.1,0.2-0.3,0.3-0.5,0.5
		c-0.2,0.1-0.4,0.2-0.6,0.3s-0.5,0.1-0.8,0.1c-0.3,0-0.6,0-0.9-0.1l-0.1-1.3c0.3,0.1,0.5,0.1,0.7,0.1c0.4,0,0.7-0.1,0.9-0.3
		c0.2-0.2,0.3-0.5,0.4-0.9L30.2,448.5z"/>
	<path fill="#F0AC5F" d="M43.1,450.4l-1.6,0.3c-0.1-0.3-0.2-0.6-0.4-0.7c-0.2-0.2-0.4-0.2-0.8-0.2c-0.4,0-0.7,0.1-1,0.4
		c-0.2,0.3-0.4,0.8-0.4,1.4c0,0.7,0.1,1.3,0.4,1.6c0.2,0.3,0.6,0.5,1,0.5c0.3,0,0.6-0.1,0.8-0.3c0.2-0.2,0.3-0.5,0.4-0.9l1.6,0.3
		c-0.2,0.7-0.5,1.3-1,1.7s-1.1,0.6-1.9,0.6c-0.9,0-1.6-0.3-2.2-0.9s-0.8-1.4-0.8-2.4c0-1,0.3-1.8,0.8-2.4s1.3-0.9,2.2-0.9
		c0.8,0,1.4,0.2,1.8,0.5C42.6,449.2,42.9,449.7,43.1,450.4z"/>
	<path fill="#F0AC5F" d="M44.4,447.7v-1.5H46v1.5H44.4z M44.4,454.8v-6.2H46v6.2H44.4z"/>
	<path fill="#F0AC5F" d="M53.4,454.8h-1.6v-3.2c0-0.7,0-1.1-0.1-1.3s-0.2-0.4-0.3-0.5s-0.3-0.2-0.6-0.2c-0.3,0-0.5,0.1-0.8,0.2
		s-0.4,0.4-0.5,0.6s-0.1,0.7-0.1,1.4v2.8h-1.6v-6.2h1.5v0.9c0.5-0.7,1.2-1.1,2.1-1.1c0.4,0,0.7,0.1,1,0.2s0.5,0.3,0.7,0.5
		s0.3,0.4,0.3,0.7c0.1,0.3,0.1,0.6,0.1,1.1L53.4,454.8L53.4,454.8z"/>
	<path fill="#F0AC5F" d="M58.6,452.8l1.6,0.3c-0.2,0.6-0.5,1.1-1,1.4s-1,0.5-1.7,0.5c-1.1,0-1.9-0.4-2.4-1.1
		c-0.4-0.6-0.6-1.3-0.6-2.1c0-1,0.3-1.8,0.8-2.4s1.2-0.9,2-0.9c0.9,0,1.7,0.3,2.2,0.9c0.5,0.6,0.8,1.5,0.8,2.8h-4.1
		c0,0.5,0.1,0.9,0.4,1.1s0.6,0.4,0.9,0.4c0.3,0,0.5-0.1,0.7-0.2S58.5,453.1,58.6,452.8z M58.7,451.1c0-0.5-0.1-0.8-0.4-1.1
		s-0.5-0.4-0.9-0.4c-0.4,0-0.7,0.1-0.9,0.4c-0.2,0.3-0.3,0.6-0.3,1.1H58.7z"/>
	<path fill="#F0AC5F" d="M26.1,472.8h-1.9l-0.8-2H20l-0.7,2h-1.8l3.3-8.6h1.8L26.1,472.8z M22.9,469.4l-1.2-3.2l-1.2,3.2H22.9z"/>
	<path fill="#F0AC5F" d="M27,472.8v-8.6h1.6v8.6H27z"/>
	<path fill="#F0AC5F" d="M31.6,468.4l-1.5-0.3c0.2-0.6,0.5-1,0.9-1.3s1-0.4,1.8-0.4c0.7,0,1.3,0.1,1.6,0.3s0.6,0.4,0.8,0.7
		c0.1,0.3,0.2,0.8,0.2,1.5l0,1.9c0,0.5,0,1,0.1,1.2s0.2,0.5,0.3,0.8h-1.6c0-0.1-0.1-0.3-0.2-0.5c0-0.1,0-0.2-0.1-0.2
		c-0.3,0.3-0.6,0.5-0.9,0.6s-0.7,0.2-1,0.2c-0.6,0-1.1-0.2-1.5-0.5c-0.4-0.3-0.6-0.8-0.6-1.3c0-0.4,0.1-0.7,0.3-0.9
		c0.2-0.3,0.4-0.5,0.7-0.6c0.3-0.1,0.7-0.3,1.3-0.4c0.8-0.1,1.3-0.3,1.6-0.4v-0.2c0-0.3-0.1-0.5-0.2-0.7s-0.5-0.2-0.9-0.2
		c-0.3,0-0.5,0.1-0.7,0.2C31.8,467.9,31.7,468.1,31.6,468.4z M33.8,469.8c-0.2,0.1-0.5,0.2-1,0.3s-0.8,0.2-0.9,0.3
		c-0.2,0.2-0.3,0.3-0.3,0.6c0,0.2,0.1,0.4,0.3,0.6c0.2,0.2,0.4,0.3,0.7,0.3c0.3,0,0.6-0.1,0.9-0.3c0.2-0.1,0.3-0.3,0.4-0.5
		c0-0.1,0.1-0.4,0.1-0.8L33.8,469.8L33.8,469.8z"/>
	<path fill="#F0AC5F" d="M42.7,472.8H41v-3.2c0-0.7,0-1.1-0.1-1.3s-0.2-0.4-0.3-0.5c-0.2-0.1-0.3-0.2-0.6-0.2
		c-0.3,0-0.5,0.1-0.8,0.2s-0.4,0.4-0.5,0.6s-0.1,0.7-0.1,1.4v2.8H37v-6.2h1.5v0.9c0.5-0.7,1.2-1.1,2.1-1.1c0.4,0,0.7,0.1,1,0.2
		s0.5,0.3,0.7,0.5c0.2,0.2,0.3,0.4,0.3,0.7c0.1,0.3,0.1,0.6,0.1,1.1L42.7,472.8L42.7,472.8z"/>
	<path fill="#F0AC5F" d="M44.3,465.7v-1.5H46v1.5H44.3z M44.3,472.8v-6.2H46v6.2H44.3z"/>
	<path fill="#F0AC5F" d="M53.3,472.8h-1.6v-3.2c0-0.7,0-1.1-0.1-1.3s-0.2-0.4-0.3-0.5s-0.3-0.2-0.6-0.2c-0.3,0-0.5,0.1-0.8,0.2
		s-0.4,0.4-0.5,0.6s-0.1,0.7-0.1,1.4v2.8h-1.6v-6.2h1.5v0.9c0.5-0.7,1.2-1.1,2.1-1.1c0.4,0,0.7,0.1,1,0.2s0.5,0.3,0.7,0.5
		s0.3,0.4,0.3,0.7c0.1,0.3,0.1,0.6,0.1,1.1L53.3,472.8L53.3,472.8z"/>
	<path fill="#F0AC5F" d="M58.6,470.8l1.6,0.3c-0.2,0.6-0.5,1.1-1,1.4s-1,0.5-1.7,0.5c-1.1,0-1.9-0.4-2.4-1.1
		c-0.4-0.6-0.6-1.3-0.6-2.1c0-1,0.3-1.8,0.8-2.4s1.2-0.9,2-0.9c0.9,0,1.7,0.3,2.2,0.9c0.5,0.6,0.8,1.5,0.8,2.8h-4.1
		c0,0.5,0.1,0.9,0.4,1.1s0.6,0.4,0.9,0.4c0.3,0,0.5-0.1,0.7-0.2S58.5,471.1,58.6,470.8z M58.7,469.1c0-0.5-0.1-0.8-0.4-1.1
		s-0.5-0.4-0.9-0.4c-0.4,0-0.7,0.1-0.9,0.4c-0.2,0.3-0.3,0.6-0.3,1.1H58.7z"/>
	<path fill="#F0AC5F" d="M20.5,490.8l-3.1-8.6h1.9l2.2,6.4l2.1-6.4h1.8l-3.1,8.6H20.5z"/>
	<path fill="#F0AC5F" d="M26.9,486.4l-1.5-0.3c0.2-0.6,0.5-1,0.9-1.3s1-0.4,1.8-0.4c0.7,0,1.3,0.1,1.6,0.3s0.6,0.4,0.8,0.7
		s0.2,0.8,0.2,1.5l0,1.9c0,0.5,0,1,0.1,1.2s0.2,0.5,0.3,0.8h-1.6c0-0.1-0.1-0.3-0.2-0.5c0-0.1,0-0.2-0.1-0.2
		c-0.3,0.3-0.6,0.5-0.9,0.6s-0.7,0.2-1,0.2c-0.6,0-1.1-0.2-1.5-0.5c-0.4-0.3-0.6-0.8-0.6-1.3c0-0.4,0.1-0.7,0.3-0.9
		c0.2-0.3,0.4-0.5,0.7-0.6s0.7-0.3,1.3-0.4c0.8-0.1,1.3-0.3,1.6-0.4v-0.2c0-0.3-0.1-0.5-0.2-0.7s-0.5-0.2-0.9-0.2
		c-0.3,0-0.5,0.1-0.7,0.2C27.1,485.9,27,486.1,26.9,486.4z M29.1,487.8c-0.2,0.1-0.5,0.2-1,0.3s-0.8,0.2-0.9,0.3
		c-0.2,0.2-0.3,0.3-0.3,0.6c0,0.2,0.1,0.4,0.3,0.6s0.4,0.3,0.7,0.3c0.3,0,0.6-0.1,0.9-0.3c0.2-0.1,0.3-0.3,0.4-0.5
		c0-0.1,0.1-0.4,0.1-0.8L29.1,487.8L29.1,487.8z"/>
	<path fill="#F0AC5F" d="M32.4,490.8v-8.6H34v8.6H32.4z"/>
	<path fill="#F0AC5F" d="M35.7,483.7v-1.5h1.6v1.5H35.7z M35.7,490.8v-6.2h1.6v6.2H35.7z"/>
	<path fill="#F0AC5F" d="M44.7,490.8H43v-3.2c0-0.7,0-1.1-0.1-1.3s-0.2-0.4-0.3-0.5c-0.2-0.1-0.3-0.2-0.6-0.2
		c-0.3,0-0.5,0.1-0.8,0.2s-0.4,0.4-0.5,0.6s-0.1,0.7-0.1,1.4v2.8H39v-6.2h1.5v0.9c0.5-0.7,1.2-1.1,2.1-1.1c0.4,0,0.7,0.1,1,0.2
		s0.5,0.3,0.7,0.5s0.3,0.4,0.3,0.7s0.1,0.6,0.1,1.1L44.7,490.8L44.7,490.8z"/>
	<path fill="#F0AC5F" d="M50,488.8l1.6,0.3c-0.2,0.6-0.5,1.1-1,1.4s-1,0.5-1.7,0.5c-1.1,0-1.9-0.4-2.4-1.1c-0.4-0.6-0.6-1.3-0.6-2.1
		c0-1,0.3-1.8,0.8-2.4s1.2-0.9,2-0.9c0.9,0,1.7,0.3,2.2,0.9s0.8,1.5,0.8,2.8h-4.1c0,0.5,0.1,0.9,0.4,1.1s0.6,0.4,0.9,0.4
		c0.3,0,0.5-0.1,0.7-0.2S49.9,489.1,50,488.8z M50.1,487.1c0-0.5-0.1-0.8-0.4-1.1s-0.5-0.4-0.9-0.4c-0.4,0-0.7,0.1-0.9,0.4
		s-0.3,0.6-0.3,1.1H50.1z"/>
	<path fill="#F0AC5F" d="M18.4,508.8v-8.5h1.7v7.1h4.3v1.4L18.4,508.8L18.4,508.8z"/>
	<path fill="#F0AC5F" d="M29.3,506.8l1.6,0.3c-0.2,0.6-0.5,1.1-1,1.4s-1,0.5-1.7,0.5c-1.1,0-1.9-0.4-2.4-1.1
		c-0.4-0.6-0.6-1.3-0.6-2.1c0-1,0.3-1.8,0.8-2.4s1.2-0.9,2-0.9c0.9,0,1.7,0.3,2.2,0.9s0.8,1.5,0.8,2.8h-4.1c0,0.5,0.1,0.9,0.4,1.1
		c0.3,0.3,0.6,0.4,0.9,0.4c0.3,0,0.5-0.1,0.6-0.2S29.2,507.1,29.3,506.8z M29.4,505.1c0-0.5-0.1-0.8-0.4-1.1s-0.5-0.4-0.9-0.4
		c-0.4,0-0.7,0.1-0.9,0.4c-0.2,0.3-0.4,0.6-0.3,1.1H29.4z"/>
	<path fill="#F0AC5F" d="M36.4,508.8v-0.9c-0.2,0.3-0.5,0.6-0.9,0.8s-0.8,0.3-1.2,0.3c-0.4,0-0.8-0.1-1.1-0.3s-0.6-0.4-0.7-0.8
		c-0.1-0.3-0.2-0.8-0.2-1.4v-3.9H34v2.9c0,0.9,0,1.4,0.1,1.6c0.1,0.2,0.2,0.4,0.3,0.5s0.4,0.2,0.6,0.2c0.3,0,0.5-0.1,0.8-0.2
		c0.2-0.2,0.4-0.3,0.5-0.6s0.1-0.8,0.1-1.7v-2.6H38v6.2H36.4z"/>
	<path fill="#F0AC5F" d="M45.1,504.4l-1.6,0.3c-0.1-0.3-0.2-0.6-0.4-0.7s-0.4-0.2-0.8-0.2c-0.4,0-0.7,0.1-1,0.4s-0.4,0.8-0.4,1.4
		c0,0.7,0.1,1.3,0.4,1.6s0.6,0.5,1,0.5c0.3,0,0.6-0.1,0.8-0.3c0.2-0.2,0.3-0.5,0.4-0.9l1.6,0.3c-0.2,0.7-0.5,1.3-1,1.7
		s-1.1,0.6-1.9,0.6c-0.9,0-1.6-0.3-2.2-0.9s-0.8-1.4-0.8-2.4c0-1,0.3-1.8,0.8-2.4s1.3-0.9,2.2-0.9c0.8,0,1.4,0.2,1.8,0.5
		S44.9,503.7,45.1,504.4z"/>
	<path fill="#F0AC5F" d="M46.3,501.7v-1.5H48v1.5H46.3z M46.3,508.8v-6.2H48v6.2H46.3z"/>
	<path fill="#F0AC5F" d="M55.3,508.8h-1.6v-3.2c0-0.7,0-1.1-0.1-1.3s-0.2-0.4-0.3-0.5s-0.3-0.2-0.6-0.2c-0.3,0-0.5,0.1-0.8,0.2
		s-0.4,0.4-0.5,0.6s-0.1,0.7-0.1,1.4v2.8h-1.6v-6.2h1.5v0.9c0.5-0.7,1.2-1.1,2.1-1.1c0.4,0,0.7,0.1,1,0.2s0.5,0.3,0.7,0.5
		s0.3,0.4,0.3,0.7s0.1,0.6,0.1,1.1C55.3,504.9,55.3,508.8,55.3,508.8z"/>
	<path fill="#F0AC5F" d="M60.6,506.8l1.6,0.3c-0.2,0.6-0.5,1.1-1,1.4s-1,0.5-1.7,0.5c-1.1,0-1.9-0.4-2.4-1.1
		c-0.4-0.6-0.6-1.3-0.6-2.1c0-1,0.3-1.8,0.8-2.4s1.2-0.9,2-0.9c0.9,0,1.7,0.3,2.2,0.9s0.8,1.5,0.8,2.8h-4.1c0,0.5,0.1,0.9,0.4,1.1
		s0.6,0.4,0.9,0.4c0.3,0,0.5-0.1,0.7-0.2S60.5,507.1,60.6,506.8z M60.7,505.1c0-0.5-0.1-0.8-0.4-1.1s-0.5-0.4-0.9-0.4
		c-0.4,0-0.7,0.1-0.9,0.4s-0.3,0.6-0.3,1.1H60.7z"/>
	<path fill="#F0AC5F" d="M18.3,526.8v-8.6H20v8.6H18.3z"/>
	<path fill="#F0AC5F" d="M21.1,525l1.7-0.3c0.1,0.3,0.2,0.6,0.4,0.7s0.5,0.2,0.9,0.2c0.4,0,0.7-0.1,1-0.2c0.1-0.1,0.2-0.3,0.2-0.4
		c0-0.1,0-0.2-0.1-0.3c-0.1-0.1-0.3-0.1-0.6-0.2c-1.3-0.3-2.2-0.6-2.5-0.8c-0.5-0.3-0.7-0.8-0.7-1.4c0-0.5,0.2-1,0.6-1.4
		c0.4-0.4,1.1-0.6,2-0.6c0.9,0,1.5,0.1,1.9,0.4c0.4,0.3,0.7,0.7,0.9,1.2l-1.6,0.3c-0.1-0.2-0.2-0.4-0.4-0.6
		c-0.2-0.1-0.5-0.2-0.8-0.2c-0.4,0-0.7,0.1-0.9,0.2c-0.1,0.1-0.2,0.2-0.2,0.3c0,0.1,0.1,0.2,0.2,0.3c0.1,0.1,0.7,0.3,1.5,0.5
		s1.5,0.4,1.8,0.7c0.3,0.3,0.5,0.7,0.5,1.2c0,0.6-0.2,1.1-0.7,1.5c-0.5,0.4-1.2,0.6-2.1,0.6c-0.8,0-1.5-0.2-2-0.5
		S21.2,525.6,21.1,525z"/>
	<path fill="#F0AC5F" d="M28,523.6c0-0.5,0.1-1.1,0.4-1.6c0.3-0.5,0.7-0.9,1.1-1.2c0.5-0.3,1-0.4,1.7-0.4c0.9,0,1.7,0.3,2.3,0.9
		c0.6,0.6,0.9,1.4,0.9,2.3c0,0.9-0.3,1.7-0.9,2.3s-1.4,0.9-2.3,0.9c-0.6,0-1.1-0.1-1.6-0.4s-0.9-0.6-1.2-1.1
		C28.1,524.9,28,524.3,28,523.6z M29.7,523.6c0,0.6,0.1,1.1,0.4,1.4s0.7,0.5,1.1,0.5s0.8-0.2,1.1-0.5c0.3-0.3,0.4-0.8,0.4-1.4
		c0-0.6-0.1-1.1-0.4-1.4s-0.7-0.5-1.1-0.5s-0.8,0.2-1.1,0.5S29.7,523,29.7,523.6z"/>
	<path fill="#F0AC5F" d="M35.7,526.8v-8.6h1.6v8.6H35.7z"/>
	<path fill="#F0AC5F" d="M42.6,524.8l1.6,0.3c-0.2,0.6-0.5,1.1-1,1.4s-1,0.5-1.7,0.5c-1.1,0-1.9-0.4-2.4-1.1
		c-0.4-0.6-0.6-1.3-0.6-2.1c0-1,0.3-1.8,0.8-2.4c0.5-0.6,1.2-0.9,2-0.9c0.9,0,1.7,0.3,2.2,0.9s0.8,1.5,0.8,2.8h-4.1
		c0,0.5,0.1,0.9,0.4,1.1s0.6,0.4,0.9,0.4c0.3,0,0.5-0.1,0.6-0.2S42.5,525.1,42.6,524.8z M42.7,523.1c0-0.5-0.1-0.8-0.4-1.1
		c-0.2-0.2-0.5-0.4-0.9-0.4c-0.4,0-0.7,0.1-0.9,0.4c-0.2,0.3-0.4,0.6-0.3,1.1H42.7z"/>
	<path fill="#F0AC5F" d="M49.8,526.8v-0.9c-0.2,0.3-0.5,0.6-0.9,0.8s-0.8,0.3-1.2,0.3c-0.4,0-0.8-0.1-1.1-0.3s-0.6-0.4-0.7-0.8
		c-0.1-0.3-0.2-0.8-0.2-1.4v-3.9h1.6v2.9c0,0.9,0,1.4,0.1,1.6s0.2,0.4,0.3,0.5s0.4,0.2,0.6,0.2c0.3,0,0.5-0.1,0.8-0.2
		s0.4-0.3,0.5-0.6c0.1-0.2,0.1-0.8,0.1-1.7v-2.6h1.6v6.2H49.8z"/>
	<path fill="#F0AC5F" d="M58.4,522.4l-1.6,0.3c-0.1-0.3-0.2-0.6-0.4-0.7s-0.4-0.2-0.8-0.2c-0.4,0-0.7,0.1-1,0.4
		c-0.2,0.3-0.4,0.8-0.4,1.4c0,0.7,0.1,1.3,0.4,1.6c0.2,0.3,0.6,0.5,1,0.5c0.3,0,0.6-0.1,0.8-0.3c0.2-0.2,0.3-0.5,0.4-0.9l1.6,0.3
		c-0.2,0.7-0.5,1.3-1,1.7s-1.1,0.6-1.9,0.6c-0.9,0-1.6-0.3-2.2-0.9c-0.5-0.6-0.8-1.4-0.8-2.4c0-1,0.3-1.8,0.8-2.4
		c0.5-0.6,1.3-0.9,2.2-0.9c0.8,0,1.4,0.2,1.8,0.5S58.2,521.7,58.4,522.4z"/>
	<path fill="#F0AC5F" d="M59.7,519.7v-1.5h1.6v1.5H59.7z M59.7,526.8v-6.2h1.6v6.2H59.7z"/>
	<path fill="#F0AC5F" d="M68.7,526.8H67v-3.2c0-0.7,0-1.1-0.1-1.3c-0.1-0.2-0.2-0.4-0.3-0.5s-0.3-0.2-0.6-0.2
		c-0.3,0-0.5,0.1-0.8,0.2c-0.2,0.2-0.4,0.4-0.5,0.6c-0.1,0.3-0.1,0.7-0.1,1.4v2.8H63v-6.2h1.5v0.9c0.5-0.7,1.2-1.1,2.1-1.1
		c0.4,0,0.7,0.1,1,0.2c0.3,0.1,0.5,0.3,0.7,0.5s0.3,0.4,0.3,0.7c0.1,0.3,0.1,0.6,0.1,1.1L68.7,526.8L68.7,526.8z"/>
	<path fill="#F0AC5F" d="M74,524.8l1.6,0.3c-0.2,0.6-0.5,1.1-1,1.4s-1,0.5-1.7,0.5c-1.1,0-1.9-0.4-2.4-1.1c-0.4-0.6-0.6-1.3-0.6-2.1
		c0-1,0.3-1.8,0.8-2.4c0.5-0.6,1.2-0.9,2-0.9c0.9,0,1.7,0.3,2.2,0.9s0.8,1.5,0.8,2.8h-4.1c0,0.5,0.1,0.9,0.4,1.1s0.6,0.4,0.9,0.4
		c0.3,0,0.5-0.1,0.6-0.2S73.9,525.1,74,524.8z M74.1,523.1c0-0.5-0.1-0.8-0.4-1.1c-0.2-0.2-0.5-0.4-0.9-0.4c-0.4,0-0.7,0.1-0.9,0.4
		c-0.2,0.3-0.3,0.6-0.3,1.1H74.1z"/>
	<path fill="#F0AC5F" d="M18.3,544.8v-8.6h2.6l1.6,5.9l1.5-5.9h2.6v8.6H25V538l-1.7,6.8h-1.7l-1.7-6.8v6.8H18.3z"/>
	<path fill="#F0AC5F" d="M31.9,542.8l1.6,0.3c-0.2,0.6-0.5,1.1-1,1.4s-1,0.5-1.7,0.5c-1.1,0-1.9-0.4-2.4-1.1
		c-0.4-0.6-0.6-1.3-0.6-2.1c0-1,0.3-1.8,0.8-2.4c0.5-0.6,1.2-0.9,2-0.9c0.9,0,1.7,0.3,2.2,0.9s0.8,1.5,0.8,2.8h-4.1
		c0,0.5,0.1,0.9,0.4,1.1s0.6,0.4,0.9,0.4c0.3,0,0.5-0.1,0.6-0.2S31.9,543.1,31.9,542.8z M32,541.1c0-0.5-0.1-0.8-0.4-1.1
		c-0.2-0.2-0.5-0.4-0.9-0.4c-0.4,0-0.7,0.1-0.9,0.4c-0.2,0.3-0.4,0.6-0.3,1.1H32z"/>
	<path fill="#F0AC5F" d="M37.9,538.5v1.3h-1.1v2.5c0,0.5,0,0.8,0,0.9s0.1,0.2,0.1,0.2s0.2,0.1,0.3,0.1c0.2,0,0.4-0.1,0.7-0.2
		l0.1,1.3c-0.4,0.2-0.8,0.2-1.3,0.2c-0.3,0-0.6,0-0.8-0.1s-0.4-0.2-0.5-0.4c-0.1-0.2-0.2-0.4-0.2-0.6c0-0.2-0.1-0.6-0.1-1.2v-2.7
		h-0.8v-1.3h0.8v-1.2l1.7-1v2.2H37.9L37.9,538.5z"/>
	<path fill="#F0AC5F" d="M40.6,536.2v3.2c0.5-0.6,1.2-0.9,1.9-0.9c0.4,0,0.7,0.1,1,0.2c0.3,0.1,0.5,0.3,0.7,0.5s0.3,0.5,0.3,0.7
		s0.1,0.7,0.1,1.2v3.6H43v-3.3c0-0.7,0-1.1-0.1-1.2c-0.1-0.2-0.2-0.3-0.3-0.4s-0.4-0.2-0.6-0.2c-0.3,0-0.5,0.1-0.7,0.2
		c-0.2,0.1-0.4,0.3-0.5,0.6c-0.1,0.3-0.1,0.7-0.1,1.2v3.1H39v-8.6H40.6z"/>
	<path fill="#F0AC5F" d="M46.3,537.7v-1.5H48v1.5H46.3z M46.3,544.8v-6.2H48v6.2H46.3z"/>
	<path fill="#F0AC5F" d="M49.3,541.6c0-0.5,0.1-1.1,0.4-1.6c0.3-0.5,0.7-0.9,1.1-1.2c0.5-0.3,1-0.4,1.7-0.4c0.9,0,1.7,0.3,2.3,0.9
		c0.6,0.6,0.9,1.4,0.9,2.3c0,0.9-0.3,1.7-0.9,2.3s-1.4,0.9-2.3,0.9c-0.6,0-1.1-0.1-1.6-0.4s-0.9-0.6-1.2-1.1
		C49.4,542.9,49.3,542.3,49.3,541.6z M51,541.6c0,0.6,0.1,1.1,0.4,1.4s0.7,0.5,1.1,0.5s0.8-0.2,1.1-0.5s0.4-0.8,0.4-1.4
		c0-0.6-0.1-1.1-0.4-1.4s-0.7-0.5-1.1-0.5s-0.8,0.2-1.1,0.5S51,541,51,541.6z"/>
	<path fill="#F0AC5F" d="M62.7,544.8H61v-3.2c0-0.7,0-1.1-0.1-1.3s-0.2-0.4-0.3-0.5s-0.3-0.2-0.6-0.2c-0.3,0-0.5,0.1-0.8,0.2
		s-0.4,0.4-0.5,0.6c-0.1,0.3-0.1,0.7-0.1,1.4v2.8H57v-6.2h1.5v0.9c0.5-0.7,1.2-1.1,2.1-1.1c0.4,0,0.7,0.1,1,0.2
		c0.3,0.1,0.5,0.3,0.7,0.5s0.3,0.4,0.3,0.7c0.1,0.3,0.1,0.6,0.1,1.1L62.7,544.8L62.7,544.8z"/>
	<path fill="#F0AC5F" d="M64.3,537.7v-1.5H66v1.5H64.3z M64.3,544.8v-6.2H66v6.2H64.3z"/>
	<path fill="#F0AC5F" d="M73.3,544.8h-1.6v-3.2c0-0.7,0-1.1-0.1-1.3c-0.1-0.2-0.2-0.4-0.3-0.5s-0.3-0.2-0.6-0.2
		c-0.3,0-0.5,0.1-0.8,0.2c-0.2,0.2-0.4,0.4-0.5,0.6c-0.1,0.3-0.1,0.7-0.1,1.4v2.8h-1.6v-6.2h1.5v0.9c0.5-0.7,1.2-1.1,2.1-1.1
		c0.4,0,0.7,0.1,1,0.2c0.3,0.1,0.5,0.3,0.7,0.5s0.3,0.4,0.3,0.7c0.1,0.3,0.1,0.6,0.1,1.1L73.3,544.8L73.3,544.8z"/>
	<path fill="#F0AC5F" d="M78.6,542.8l1.6,0.3c-0.2,0.6-0.5,1.1-1,1.4s-1,0.5-1.7,0.5c-1.1,0-1.9-0.4-2.4-1.1
		c-0.4-0.6-0.6-1.3-0.6-2.1c0-1,0.3-1.8,0.8-2.4c0.5-0.6,1.2-0.9,2-0.9c0.9,0,1.7,0.3,2.2,0.9s0.8,1.5,0.8,2.8h-4.1
		c0,0.5,0.1,0.9,0.4,1.1s0.6,0.4,0.9,0.4c0.3,0,0.5-0.1,0.7-0.2S78.5,543.1,78.6,542.8z M78.7,541.1c0-0.5-0.1-0.8-0.4-1.1
		c-0.2-0.2-0.5-0.4-0.9-0.4c-0.4,0-0.7,0.1-0.9,0.4c-0.2,0.3-0.3,0.6-0.3,1.1H78.7z"/>
	<path fill="#F0AC5F" d="M18.4,562.8v-8.6h2.8c1.1,0,1.7,0,2.1,0.1c0.5,0.1,0.9,0.4,1.2,0.8s0.5,1,0.5,1.7c0,0.5-0.1,1-0.3,1.3
		c-0.2,0.4-0.4,0.6-0.7,0.8c-0.3,0.2-0.6,0.3-0.9,0.4c-0.4,0.1-1,0.1-1.8,0.1h-1.1v3.2L18.4,562.8L18.4,562.8z M20.1,555.6v2.4H21
		c0.7,0,1.1,0,1.4-0.1c0.2-0.1,0.4-0.2,0.5-0.4c0.1-0.2,0.2-0.4,0.2-0.7c0-0.3-0.1-0.6-0.3-0.8s-0.4-0.3-0.7-0.4
		c-0.2,0-0.6-0.1-1.2-0.1L20.1,555.6L20.1,555.6z"/>
	<path fill="#F0AC5F" d="M27.9,562.8h-1.6v-6.2h1.5v0.9c0.3-0.4,0.5-0.7,0.7-0.8s0.4-0.2,0.7-0.2c0.4,0,0.7,0.1,1.1,0.3l-0.5,1.4
		c-0.3-0.2-0.5-0.3-0.8-0.3c-0.2,0-0.4,0.1-0.6,0.2s-0.3,0.4-0.4,0.7s-0.1,1-0.1,2.1C27.9,560.8,27.9,562.8,27.9,562.8z"/>
	<path fill="#F0AC5F" d="M30.6,559.6c0-0.5,0.1-1.1,0.4-1.6c0.3-0.5,0.7-0.9,1.1-1.2c0.5-0.3,1-0.4,1.7-0.4c0.9,0,1.7,0.3,2.3,0.9
		c0.6,0.6,0.9,1.4,0.9,2.3c0,0.9-0.3,1.7-0.9,2.3s-1.4,0.9-2.3,0.9c-0.6,0-1.1-0.1-1.6-0.4c-0.5-0.3-0.9-0.6-1.2-1.1
		C30.8,560.9,30.6,560.3,30.6,559.6z M32.3,559.6c0,0.6,0.1,1.1,0.4,1.4s0.7,0.5,1.1,0.5s0.8-0.2,1.1-0.5c0.3-0.3,0.4-0.8,0.4-1.4
		c0-0.6-0.1-1.1-0.4-1.4s-0.7-0.5-1.1-0.5s-0.8,0.2-1.1,0.5S32.3,559,32.3,559.6z"/>
	<path fill="#F0AC5F" d="M38.3,562.8v-8.6H40v8.6H38.3z"/>
	<path fill="#F0AC5F" d="M41.7,555.7v-1.5h1.6v1.5H41.7z M41.7,562.8v-6.2h1.6v6.2H41.7z"/>
	<path fill="#F0AC5F" d="M50.7,562.8H49v-3.2c0-0.7,0-1.1-0.1-1.3s-0.2-0.4-0.3-0.5s-0.3-0.2-0.6-0.2c-0.3,0-0.5,0.1-0.8,0.2
		s-0.4,0.4-0.5,0.6c-0.1,0.3-0.1,0.7-0.1,1.4v2.8H45v-6.2h1.5v0.9c0.5-0.7,1.2-1.1,2.1-1.1c0.4,0,0.7,0.1,1,0.2
		c0.3,0.1,0.5,0.3,0.7,0.5s0.3,0.4,0.3,0.7c0.1,0.3,0.1,0.6,0.1,1.1L50.7,562.8L50.7,562.8z"/>
	<path fill="#F0AC5F" d="M55.9,560.8l1.6,0.3c-0.2,0.6-0.5,1.1-1,1.4s-1,0.5-1.7,0.5c-1.1,0-1.9-0.4-2.4-1.1
		c-0.4-0.6-0.6-1.3-0.6-2.1c0-1,0.3-1.8,0.8-2.4c0.5-0.6,1.2-0.9,2-0.9c0.9,0,1.7,0.3,2.2,0.9s0.8,1.5,0.8,2.8h-4.1
		c0,0.5,0.1,0.9,0.4,1.1s0.6,0.4,0.9,0.4c0.3,0,0.5-0.1,0.7-0.2S55.9,561.1,55.9,560.8z M56,559.1c0-0.5-0.1-0.8-0.4-1.1
		c-0.2-0.2-0.5-0.4-0.9-0.4c-0.4,0-0.7,0.1-0.9,0.4c-0.2,0.3-0.3,0.6-0.3,1.1H56z"/>
</g>
<g>
	<path fill="#FC6255" d="M155.1,454.8v-8.6h2.8c1.1,0,1.7,0,2.1,0.1c0.5,0.1,0.9,0.4,1.2,0.8s0.5,1,0.5,1.7c0,0.5-0.1,1-0.3,1.3
		s-0.4,0.6-0.7,0.8c-0.3,0.2-0.6,0.3-0.9,0.4c-0.4,0.1-1,0.1-1.8,0.1h-1.1v3.2H155.1L155.1,454.8z M156.8,447.6v2.4h0.9
		c0.7,0,1.1,0,1.4-0.1s0.4-0.2,0.5-0.4s0.2-0.4,0.2-0.7c0-0.3-0.1-0.6-0.3-0.8c-0.2-0.2-0.4-0.3-0.7-0.4c-0.2,0-0.6-0.1-1.2-0.1
		H156.8L156.8,447.6z"/>
	<path fill="#FC6255" d="M164.7,446.2v3.2c0.5-0.6,1.2-0.9,1.9-0.9c0.4,0,0.7,0.1,1,0.2s0.5,0.3,0.7,0.5s0.3,0.5,0.3,0.7
		c0.1,0.3,0.1,0.7,0.1,1.2v3.6h-1.6v-3.3c0-0.7,0-1.1-0.1-1.2s-0.2-0.3-0.3-0.4s-0.4-0.2-0.6-0.2c-0.3,0-0.5,0.1-0.7,0.2
		s-0.4,0.3-0.5,0.6s-0.1,0.7-0.1,1.2v3.1H163v-8.6H164.7L164.7,446.2z"/>
	<path fill="#FC6255" d="M174,452.8l1.6,0.3c-0.2,0.6-0.5,1.1-1,1.4s-1,0.5-1.7,0.5c-1.1,0-1.9-0.4-2.4-1.1
		c-0.4-0.6-0.6-1.3-0.6-2.1c0-1,0.3-1.8,0.8-2.4s1.2-0.9,2-0.9c0.9,0,1.7,0.3,2.2,0.9c0.5,0.6,0.8,1.5,0.8,2.8h-4.1
		c0,0.5,0.1,0.9,0.4,1.1s0.6,0.4,0.9,0.4c0.3,0,0.5-0.1,0.6-0.2S173.9,453.1,174,452.8z M174.1,451.1c0-0.5-0.1-0.8-0.4-1.1
		s-0.5-0.4-0.9-0.4c-0.4,0-0.7,0.1-0.9,0.4c-0.2,0.3-0.4,0.6-0.3,1.1H174.1z"/>
	<path fill="#FC6255" d="M182.7,454.8h-1.6v-3.2c0-0.7,0-1.1-0.1-1.3s-0.2-0.4-0.3-0.5s-0.3-0.2-0.6-0.2c-0.3,0-0.5,0.1-0.8,0.2
		s-0.4,0.4-0.5,0.6s-0.1,0.7-0.1,1.4v2.8H177v-6.2h1.5v0.9c0.5-0.7,1.2-1.1,2.1-1.1c0.4,0,0.7,0.1,1,0.2s0.5,0.3,0.7,0.5
		s0.3,0.4,0.3,0.7c0.1,0.3,0.1,0.6,0.1,1.1L182.7,454.8L182.7,454.8z"/>
	<path fill="#FC6255" d="M183.6,448.5h1.8l1.5,4.4l1.5-4.4h1.7l-2.2,6l-0.4,1.1c-0.1,0.4-0.3,0.6-0.4,0.8c-0.1,0.2-0.3,0.3-0.5,0.5
		c-0.2,0.1-0.4,0.2-0.6,0.3s-0.5,0.1-0.8,0.1c-0.3,0-0.6,0-0.9-0.1l-0.1-1.3c0.3,0.1,0.5,0.1,0.7,0.1c0.4,0,0.7-0.1,0.9-0.3
		c0.2-0.2,0.3-0.5,0.4-0.9L183.6,448.5z"/>
	<path fill="#FC6255" d="M191.1,454.8v-8.6h1.6v8.6H191.1z"/>
	<path fill="#FC6255" d="M195.6,450.4l-1.5-0.3c0.2-0.6,0.5-1,0.9-1.3s1-0.4,1.8-0.4c0.7,0,1.3,0.1,1.6,0.3s0.6,0.4,0.8,0.7
		c0.1,0.3,0.2,0.8,0.2,1.5l0,1.9c0,0.5,0,1,0.1,1.2s0.2,0.5,0.3,0.8h-1.6c0-0.1-0.1-0.3-0.2-0.5c0-0.1,0-0.2-0.1-0.2
		c-0.3,0.3-0.6,0.5-0.9,0.6s-0.7,0.2-1,0.2c-0.6,0-1.1-0.2-1.5-0.5c-0.4-0.3-0.6-0.8-0.6-1.3c0-0.4,0.1-0.7,0.3-0.9
		c0.2-0.3,0.4-0.5,0.7-0.6c0.3-0.1,0.7-0.3,1.3-0.4c0.8-0.1,1.3-0.3,1.6-0.4v-0.2c0-0.3-0.1-0.5-0.2-0.7s-0.5-0.2-0.9-0.2
		c-0.3,0-0.5,0.1-0.7,0.2S195.7,450.1,195.6,450.4z M197.8,451.8c-0.2,0.1-0.5,0.2-1,0.3s-0.8,0.2-0.9,0.3c-0.2,0.2-0.3,0.3-0.3,0.6
		c0,0.2,0.1,0.4,0.3,0.6c0.2,0.2,0.4,0.3,0.7,0.3c0.3,0,0.6-0.1,0.9-0.3c0.2-0.1,0.3-0.3,0.4-0.5c0-0.1,0.1-0.4,0.1-0.8L197.8,451.8
		L197.8,451.8z"/>
	<path fill="#FC6255" d="M201.1,454.8v-8.6h1.6v8.6H201.1z"/>
	<path fill="#FC6255" d="M205.6,450.4l-1.5-0.3c0.2-0.6,0.5-1,0.9-1.3s1-0.4,1.8-0.4c0.7,0,1.3,0.1,1.6,0.3s0.6,0.4,0.8,0.7
		c0.1,0.3,0.2,0.8,0.2,1.5l0,1.9c0,0.5,0,1,0.1,1.2s0.2,0.5,0.3,0.8h-1.6c0-0.1-0.1-0.3-0.2-0.5c0-0.1,0-0.2-0.1-0.2
		c-0.3,0.3-0.6,0.5-0.9,0.6s-0.7,0.2-1,0.2c-0.6,0-1.1-0.2-1.5-0.5c-0.4-0.3-0.6-0.8-0.6-1.3c0-0.4,0.1-0.7,0.3-0.9
		c0.2-0.3,0.4-0.5,0.7-0.6c0.3-0.1,0.7-0.3,1.3-0.4c0.8-0.1,1.3-0.3,1.6-0.4v-0.2c0-0.3-0.1-0.5-0.2-0.7s-0.5-0.2-0.9-0.2
		c-0.3,0-0.5,0.1-0.7,0.2S205.7,450.1,205.6,450.4z M207.8,451.8c-0.2,0.1-0.5,0.2-1,0.3s-0.8,0.2-0.9,0.3c-0.2,0.2-0.3,0.3-0.3,0.6
		c0,0.2,0.1,0.4,0.3,0.6c0.2,0.2,0.4,0.3,0.7,0.3c0.3,0,0.6-0.1,0.9-0.3c0.2-0.1,0.3-0.3,0.4-0.5c0-0.1,0.1-0.4,0.1-0.8L207.8,451.8
		L207.8,451.8z"/>
	<path fill="#FC6255" d="M216.7,454.8h-1.6v-3.2c0-0.7,0-1.1-0.1-1.3s-0.2-0.4-0.3-0.5s-0.3-0.2-0.6-0.2c-0.3,0-0.5,0.1-0.8,0.2
		s-0.4,0.4-0.5,0.6s-0.1,0.7-0.1,1.4v2.8h-1.6v-6.2h1.5v0.9c0.5-0.7,1.2-1.1,2.1-1.1c0.4,0,0.7,0.1,1,0.2s0.5,0.3,0.7,0.5
		s0.3,0.4,0.3,0.7c0.1,0.3,0.1,0.6,0.1,1.1L216.7,454.8L216.7,454.8z"/>
	<path fill="#FC6255" d="M218.4,447.7v-1.5h1.6v1.5H218.4z M218.4,454.8v-6.2h1.6v6.2H218.4z"/>
	<path fill="#FC6255" d="M227.4,454.8h-1.6v-3.2c0-0.7,0-1.1-0.1-1.3s-0.2-0.4-0.3-0.5s-0.3-0.2-0.6-0.2c-0.3,0-0.5,0.1-0.8,0.2
		s-0.4,0.4-0.5,0.6s-0.1,0.7-0.1,1.4v2.8h-1.6v-6.2h1.5v0.9c0.5-0.7,1.2-1.1,2.1-1.1c0.4,0,0.7,0.1,1,0.2s0.5,0.3,0.7,0.5
		s0.3,0.4,0.3,0.7c0.1,0.3,0.1,0.6,0.1,1.1L227.4,454.8L227.4,454.8z"/>
	<path fill="#FC6255" d="M232.7,452.8l1.6,0.3c-0.2,0.6-0.5,1.1-1,1.4s-1,0.5-1.7,0.5c-1.1,0-1.9-0.4-2.4-1.1
		c-0.4-0.6-0.6-1.3-0.6-2.1c0-1,0.3-1.8,0.8-2.4s1.2-0.9,2-0.9c0.9,0,1.7,0.3,2.2,0.9c0.5,0.6,0.8,1.5,0.8,2.8h-4.1
		c0,0.5,0.1,0.9,0.4,1.1s0.6,0.4,0.9,0.4c0.3,0,0.5-0.1,0.6-0.2S232.6,453.1,232.7,452.8z M232.8,451.1c0-0.5-0.1-0.8-0.4-1.1
		s-0.5-0.4-0.9-0.4c-0.4,0-0.7,0.1-0.9,0.4c-0.2,0.3-0.4,0.6-0.3,1.1H232.8z"/>
	<path fill="#FC6255" d="M157,472.8v-7.1h-2.5v-1.5h6.8v1.5h-2.5v7.1H157z"/>
	<path fill="#FC6255" d="M163.3,472.8h-1.6v-6.2h1.5v0.9c0.3-0.4,0.5-0.7,0.7-0.8s0.4-0.2,0.7-0.2c0.4,0,0.7,0.1,1.1,0.3l-0.5,1.4
		c-0.3-0.2-0.5-0.3-0.8-0.3c-0.2,0-0.4,0.1-0.6,0.2c-0.2,0.1-0.3,0.4-0.4,0.7s-0.1,1-0.1,2.1L163.3,472.8L163.3,472.8z"/>
	<path fill="#FC6255" d="M165.6,466.5h1.8l1.5,4.4l1.5-4.4h1.7l-2.2,6l-0.4,1.1c-0.1,0.4-0.3,0.6-0.4,0.8c-0.1,0.2-0.3,0.3-0.5,0.5
		c-0.2,0.1-0.4,0.2-0.6,0.3s-0.5,0.1-0.8,0.1c-0.3,0-0.6,0-0.9-0.1l-0.1-1.3c0.3,0.1,0.5,0.1,0.7,0.1c0.4,0,0.7-0.1,0.9-0.3
		c0.2-0.2,0.3-0.5,0.4-0.9L165.6,466.5z"/>
	<path fill="#FC6255" d="M173,466.5h1.5v0.9c0.2-0.3,0.5-0.6,0.8-0.8s0.7-0.3,1.1-0.3c0.7,0,1.3,0.3,1.8,0.9s0.8,1.4,0.8,2.4
		c0,1-0.3,1.8-0.8,2.4s-1.1,0.9-1.8,0.9c-0.3,0-0.7-0.1-0.9-0.2s-0.6-0.4-0.9-0.7v3.1H173L173,466.5L173,466.5z M174.6,469.5
		c0,0.7,0.1,1.2,0.4,1.6c0.3,0.3,0.6,0.5,1,0.5c0.4,0,0.7-0.2,1-0.5s0.4-0.8,0.4-1.5c0-0.7-0.1-1.1-0.4-1.5s-0.6-0.5-1-0.5
		c-0.4,0-0.7,0.2-1,0.5S174.6,468.9,174.6,469.5z"/>
	<path fill="#FC6255" d="M183.2,466.5v1.3h-1.1v2.5c0,0.5,0,0.8,0,0.9c0,0.1,0.1,0.2,0.1,0.2s0.2,0.1,0.3,0.1c0.2,0,0.4-0.1,0.7-0.2
		l0.1,1.3c-0.4,0.2-0.8,0.2-1.3,0.2c-0.3,0-0.6-0.1-0.8-0.1s-0.4-0.2-0.5-0.4c-0.1-0.2-0.2-0.4-0.2-0.6c0-0.2-0.1-0.6-0.1-1.2v-2.7
		h-0.8v-1.3h0.8v-1.2l1.7-1v2.2H183.2z"/>
	<path fill="#FC6255" d="M184,469.6c0-0.5,0.1-1.1,0.4-1.6s0.7-0.9,1.1-1.2s1-0.4,1.7-0.4c0.9,0,1.7,0.3,2.3,0.9s0.9,1.4,0.9,2.3
		c0,0.9-0.3,1.7-0.9,2.3c-0.6,0.6-1.4,0.9-2.3,0.9c-0.6,0-1.1-0.1-1.6-0.4s-0.9-0.6-1.2-1.1S184,470.3,184,469.6z M185.7,469.6
		c0,0.6,0.1,1.1,0.4,1.4s0.7,0.5,1.1,0.5s0.8-0.2,1.1-0.5s0.4-0.8,0.4-1.4c0-0.6-0.1-1.1-0.4-1.4s-0.7-0.5-1.1-0.5s-0.8,0.2-1.1,0.5
		S185.7,469,185.7,469.6z"/>
	<path fill="#FC6255" d="M191.7,466.5h1.5v0.9c0.2-0.3,0.5-0.6,0.8-0.8s0.7-0.3,1.1-0.3c0.7,0,1.3,0.3,1.8,0.9s0.8,1.4,0.8,2.4
		c0,1-0.3,1.8-0.8,2.4s-1.1,0.9-1.8,0.9c-0.3,0-0.7-0.1-0.9-0.2s-0.6-0.4-0.9-0.7v3.1h-1.6L191.7,466.5L191.7,466.5z M193.3,469.5
		c0,0.7,0.1,1.2,0.4,1.6c0.3,0.3,0.6,0.5,1,0.5c0.4,0,0.7-0.2,1-0.5s0.4-0.8,0.4-1.5c0-0.7-0.1-1.1-0.4-1.5s-0.6-0.5-1-0.5
		c-0.4,0-0.7,0.2-1,0.5S193.3,468.9,193.3,469.5z"/>
	<path fill="#FC6255" d="M200.7,464.2v3.2c0.5-0.6,1.2-0.9,1.9-0.9c0.4,0,0.7,0.1,1,0.2s0.5,0.3,0.7,0.5s0.3,0.5,0.3,0.7
		c0.1,0.3,0.1,0.7,0.1,1.2v3.6h-1.6v-3.3c0-0.7,0-1.1-0.1-1.2s-0.2-0.3-0.3-0.4s-0.4-0.2-0.6-0.2c-0.3,0-0.5,0.1-0.7,0.2
		s-0.4,0.3-0.5,0.6s-0.1,0.7-0.1,1.2v3.1H199v-8.6H200.7L200.7,464.2z"/>
	<path fill="#FC6255" d="M207.6,468.4l-1.5-0.3c0.2-0.6,0.5-1,0.9-1.3s1-0.4,1.8-0.4c0.7,0,1.3,0.1,1.6,0.3s0.6,0.4,0.8,0.7
		c0.1,0.3,0.2,0.8,0.2,1.5l0,1.9c0,0.5,0,1,0.1,1.2s0.2,0.5,0.3,0.8h-1.6c0-0.1-0.1-0.3-0.2-0.5c0-0.1,0-0.2-0.1-0.2
		c-0.3,0.3-0.6,0.5-0.9,0.6s-0.7,0.2-1,0.2c-0.6,0-1.1-0.2-1.5-0.5c-0.4-0.3-0.6-0.8-0.6-1.3c0-0.4,0.1-0.7,0.3-0.9
		c0.2-0.3,0.4-0.5,0.7-0.6c0.3-0.1,0.7-0.3,1.3-0.4c0.8-0.1,1.3-0.3,1.6-0.4v-0.2c0-0.3-0.1-0.5-0.2-0.7s-0.5-0.2-0.9-0.2
		c-0.3,0-0.5,0.1-0.7,0.2S207.7,468.1,207.6,468.4z M209.8,469.8c-0.2,0.1-0.5,0.2-1,0.3s-0.8,0.2-0.9,0.3c-0.2,0.2-0.3,0.3-0.3,0.6
		c0,0.2,0.1,0.4,0.3,0.6c0.2,0.2,0.4,0.3,0.7,0.3c0.3,0,0.6-0.1,0.9-0.3c0.2-0.1,0.3-0.3,0.4-0.5c0-0.1,0.1-0.4,0.1-0.8L209.8,469.8
		L209.8,469.8z"/>
	<path fill="#FC6255" d="M218.7,472.8h-1.6v-3.2c0-0.7,0-1.1-0.1-1.3s-0.2-0.4-0.3-0.5s-0.3-0.2-0.6-0.2c-0.3,0-0.5,0.1-0.8,0.2
		s-0.4,0.4-0.5,0.6s-0.1,0.7-0.1,1.4v2.8H213v-6.2h1.5v0.9c0.5-0.7,1.2-1.1,2.1-1.1c0.4,0,0.7,0.1,1,0.2s0.5,0.3,0.7,0.5
		s0.3,0.4,0.3,0.7c0.1,0.3,0.1,0.6,0.1,1.1L218.7,472.8L218.7,472.8z"/>
</g>
<g>
	<path fill="#29ABCA" d="M307,454.8v-7.1h-2.5v-1.5h6.8v1.5h-2.5v7.1H307z"/>
	<path fill="#29ABCA" d="M310.7,448.5h1.8l1.5,4.4l1.5-4.4h1.7l-2.2,6l-0.4,1.1c-0.1,0.4-0.3,0.6-0.4,0.8s-0.3,0.3-0.5,0.5
		c-0.2,0.1-0.4,0.2-0.6,0.3s-0.5,0.1-0.8,0.1c-0.3,0-0.6,0-0.9-0.1l-0.1-1.3c0.3,0.1,0.5,0.1,0.7,0.1c0.4,0,0.7-0.1,0.9-0.3
		c0.2-0.2,0.3-0.5,0.4-0.9L310.7,448.5z"/>
	<path fill="#29ABCA" d="M319.7,454.8h-1.6v-6.2h1.5v0.9c0.3-0.4,0.5-0.7,0.7-0.8s0.4-0.2,0.7-0.2c0.4,0,0.7,0.1,1.1,0.3l-0.5,1.4
		c-0.3-0.2-0.5-0.3-0.8-0.3c-0.2,0-0.4,0.1-0.6,0.2s-0.3,0.4-0.4,0.7s-0.1,1-0.1,2.1V454.8z"/>
	<path fill="#29ABCA" d="M322.4,451.6c0-0.5,0.1-1.1,0.4-1.6c0.3-0.5,0.6-0.9,1.1-1.2c0.5-0.3,1-0.4,1.7-0.4c0.9,0,1.7,0.3,2.3,0.9
		s0.9,1.4,0.9,2.3c0,0.9-0.3,1.7-0.9,2.3s-1.4,0.9-2.3,0.9c-0.6,0-1.1-0.1-1.6-0.4s-0.9-0.6-1.2-1.1
		C322.6,452.9,322.4,452.3,322.4,451.6z M324.1,451.6c0,0.6,0.1,1.1,0.4,1.4s0.7,0.5,1.1,0.5s0.8-0.2,1.1-0.5s0.4-0.8,0.4-1.4
		c0-0.6-0.1-1.1-0.4-1.4s-0.6-0.5-1.1-0.5s-0.8,0.2-1.1,0.5S324.1,451,324.1,451.6z"/>
	<path fill="#29ABCA" d="M329.6,453l1.7-0.3c0.1,0.3,0.2,0.6,0.4,0.7c0.2,0.2,0.5,0.2,0.9,0.2c0.4,0,0.7-0.1,1-0.2
		c0.1-0.1,0.2-0.3,0.2-0.4c0-0.1,0-0.2-0.1-0.3c-0.1-0.1-0.3-0.2-0.6-0.2c-1.3-0.3-2.2-0.6-2.5-0.8c-0.5-0.3-0.7-0.8-0.7-1.4
		c0-0.5,0.2-1,0.6-1.4s1.1-0.6,2-0.6c0.9,0,1.5,0.1,1.9,0.4c0.4,0.3,0.7,0.7,0.9,1.2l-1.6,0.3c-0.1-0.2-0.2-0.4-0.4-0.6
		c-0.2-0.1-0.4-0.2-0.8-0.2c-0.4,0-0.7,0.1-0.9,0.2c-0.1,0.1-0.2,0.2-0.2,0.3c0,0.1,0.1,0.2,0.2,0.3c0.1,0.1,0.7,0.3,1.5,0.5
		s1.5,0.4,1.8,0.7c0.3,0.3,0.5,0.7,0.5,1.2c0,0.6-0.2,1.1-0.7,1.5c-0.5,0.4-1.2,0.6-2.1,0.6c-0.8,0-1.5-0.2-2-0.5
		C330,454,329.7,453.6,329.6,453z"/>
	<path fill="#29ABCA" d="M336.8,447.7v-1.5h1.6v1.5H336.8z M336.8,454.8v-6.2h1.6v6.2H336.8z"/>
	<path fill="#29ABCA" d="M345.8,454.8h-1.6v-3.2c0-0.7,0-1.1-0.1-1.3s-0.2-0.4-0.3-0.5s-0.3-0.2-0.6-0.2c-0.3,0-0.5,0.1-0.8,0.2
		c-0.2,0.2-0.4,0.4-0.5,0.6s-0.1,0.7-0.1,1.4v2.8h-1.6v-6.2h1.5v0.9c0.5-0.7,1.2-1.1,2.1-1.1c0.4,0,0.7,0.1,1,0.2
		c0.3,0.1,0.5,0.3,0.7,0.5s0.3,0.4,0.3,0.7s0.1,0.6,0.1,1.1L345.8,454.8L345.8,454.8z"/>
	<path fill="#29ABCA" d="M351.1,452.8l1.6,0.3c-0.2,0.6-0.5,1.1-1,1.4s-1,0.5-1.7,0.5c-1.1,0-1.9-0.4-2.4-1.1
		c-0.4-0.6-0.6-1.3-0.6-2.1c0-1,0.3-1.8,0.8-2.4s1.2-0.9,2-0.9c0.9,0,1.7,0.3,2.2,0.9c0.5,0.6,0.8,1.5,0.8,2.8h-4.1
		c0,0.5,0.1,0.9,0.4,1.1c0.3,0.3,0.6,0.4,0.9,0.4c0.3,0,0.5-0.1,0.6-0.2S351,453.1,351.1,452.8z M351.2,451.1c0-0.5-0.1-0.8-0.4-1.1
		c-0.2-0.2-0.5-0.4-0.9-0.4c-0.4,0-0.7,0.1-0.9,0.4s-0.4,0.6-0.3,1.1H351.2z"/>
	<path fill="#29ABCA" d="M304.6,470l1.7-0.2c0.1,0.6,0.3,1,0.6,1.2c0.3,0.3,0.7,0.4,1.3,0.4c0.6,0,1-0.1,1.3-0.4s0.4-0.5,0.4-0.8
		c0-0.2-0.1-0.4-0.2-0.5s-0.3-0.3-0.6-0.4c-0.2-0.1-0.7-0.2-1.4-0.4c-0.9-0.2-1.6-0.5-2-0.9c-0.5-0.5-0.8-1-0.8-1.7
		c0-0.4,0.1-0.8,0.4-1.2c0.2-0.4,0.6-0.7,1.1-0.9c0.5-0.2,1-0.3,1.7-0.3c1.1,0,1.9,0.2,2.4,0.7c0.5,0.5,0.8,1.1,0.9,1.9l-1.7,0.1
		c-0.1-0.4-0.2-0.8-0.5-1c-0.2-0.2-0.6-0.3-1.1-0.3c-0.5,0-0.9,0.1-1.2,0.3c-0.2,0.1-0.3,0.3-0.3,0.5c0,0.2,0.1,0.4,0.3,0.5
		c0.2,0.2,0.8,0.4,1.6,0.6c0.8,0.2,1.5,0.4,1.9,0.6s0.7,0.5,0.9,0.9c0.2,0.4,0.3,0.8,0.3,1.4c0,0.5-0.1,1-0.4,1.4s-0.7,0.8-1.2,1
		s-1.1,0.3-1.9,0.3c-1.1,0-1.9-0.2-2.5-0.8S304.7,470.9,304.6,470z"/>
	<path fill="#29ABCA" d="M316.6,470.8l1.6,0.3c-0.2,0.6-0.5,1.1-1,1.4s-1,0.5-1.7,0.5c-1.1,0-1.9-0.4-2.4-1.1
		c-0.4-0.6-0.6-1.3-0.6-2.1c0-1,0.3-1.8,0.8-2.4s1.2-0.9,2-0.9c0.9,0,1.7,0.3,2.2,0.9c0.5,0.6,0.8,1.5,0.8,2.8h-4.1
		c0,0.5,0.1,0.9,0.4,1.1c0.3,0.3,0.6,0.4,0.9,0.4c0.3,0,0.5-0.1,0.6-0.2S316.6,471.1,316.6,470.8z M316.7,469.1
		c0-0.5-0.1-0.8-0.4-1.1c-0.2-0.2-0.5-0.4-0.9-0.4c-0.4,0-0.7,0.1-0.9,0.4s-0.4,0.6-0.3,1.1H316.7z"/>
	<path fill="#29ABCA" d="M321.3,472.8h-1.6v-6.2h1.5v0.9c0.3-0.4,0.5-0.7,0.7-0.8s0.4-0.2,0.7-0.2c0.4,0,0.7,0.1,1.1,0.3l-0.5,1.4
		c-0.3-0.2-0.5-0.3-0.8-0.3c-0.2,0-0.4,0.1-0.6,0.2s-0.3,0.4-0.4,0.7s-0.1,1-0.1,2.1V472.8z"/>
	<path fill="#29ABCA" d="M324.4,465.7v-1.5h1.6v1.5H324.4z M324.4,472.8v-6.2h1.6v6.2H324.4z"/>
	<path fill="#29ABCA" d="M333.4,472.8h-1.6v-3.2c0-0.7,0-1.1-0.1-1.3s-0.2-0.4-0.3-0.5s-0.3-0.2-0.6-0.2c-0.3,0-0.5,0.1-0.8,0.2
		c-0.2,0.2-0.4,0.4-0.5,0.6s-0.1,0.7-0.1,1.4v2.8h-1.6v-6.2h1.5v0.9c0.5-0.7,1.2-1.1,2.1-1.1c0.4,0,0.7,0.1,1,0.2
		c0.3,0.1,0.5,0.3,0.7,0.5s0.3,0.4,0.3,0.7s0.1,0.6,0.1,1.1L333.4,472.8L333.4,472.8z"/>
	<path fill="#29ABCA" d="M338.7,470.8l1.6,0.3c-0.2,0.6-0.5,1.1-1,1.4s-1,0.5-1.7,0.5c-1.1,0-1.9-0.4-2.4-1.1
		c-0.4-0.6-0.6-1.3-0.6-2.1c0-1,0.3-1.8,0.8-2.4s1.2-0.9,2-0.9c0.9,0,1.7,0.3,2.2,0.9c0.5,0.6,0.8,1.5,0.8,2.8h-4.1
		c0,0.5,0.1,0.9,0.4,1.1c0.3,0.3,0.6,0.4,0.9,0.4c0.3,0,0.5-0.1,0.6-0.2S338.6,471.1,338.7,470.8z M338.7,469.1
		c0-0.5-0.1-0.8-0.4-1.1c-0.2-0.2-0.5-0.4-0.9-0.4c-0.4,0-0.7,0.1-0.9,0.4s-0.4,0.6-0.3,1.1H338.7z"/>
	<path fill="#29ABCA" d="M307,490.8v-7.1h-2.5v-1.5h6.8v1.5h-2.5v7.1H307z"/>
	<path fill="#29ABCA" d="M314,482.2v3.2c0.5-0.6,1.2-0.9,1.9-0.9c0.4,0,0.7,0.1,1,0.2s0.5,0.3,0.7,0.5s0.3,0.5,0.3,0.7
		s0.1,0.7,0.1,1.2v3.6h-1.6v-3.3c0-0.7,0-1.1-0.1-1.2s-0.2-0.3-0.3-0.4s-0.4-0.2-0.6-0.2c-0.3,0-0.5,0.1-0.7,0.2s-0.4,0.3-0.5,0.6
		s-0.1,0.7-0.1,1.2v3.1h-1.6v-8.6L314,482.2L314,482.2z"/>
	<path fill="#29ABCA" d="M321.3,490.8h-1.6v-6.2h1.5v0.9c0.3-0.4,0.5-0.7,0.7-0.8s0.4-0.2,0.7-0.2c0.4,0,0.7,0.1,1.1,0.3l-0.5,1.4
		c-0.3-0.2-0.5-0.3-0.8-0.3c-0.2,0-0.4,0.1-0.6,0.2s-0.3,0.4-0.4,0.7s-0.1,1-0.1,2.1V490.8z"/>
	<path fill="#29ABCA" d="M328,488.8l1.6,0.3c-0.2,0.6-0.5,1.1-1,1.4s-1,0.5-1.7,0.5c-1.1,0-1.9-0.4-2.4-1.1
		c-0.4-0.6-0.6-1.3-0.6-2.1c0-1,0.3-1.8,0.8-2.4s1.2-0.9,2-0.9c0.9,0,1.7,0.3,2.2,0.9s0.8,1.5,0.8,2.8h-4.1c0,0.5,0.1,0.9,0.4,1.1
		s0.6,0.4,0.9,0.4c0.3,0,0.5-0.1,0.6-0.2S327.9,489.1,328,488.8z M328.1,487.1c0-0.5-0.1-0.8-0.4-1.1s-0.5-0.4-0.9-0.4
		c-0.4,0-0.7,0.1-0.9,0.4s-0.4,0.6-0.3,1.1L328.1,487.1L328.1,487.1z"/>
	<path fill="#29ABCA" d="M330.7,487.6c0-0.5,0.1-1.1,0.4-1.6s0.6-0.9,1.1-1.2s1-0.4,1.7-0.4c0.9,0,1.7,0.3,2.3,0.9s0.9,1.4,0.9,2.3
		c0,0.9-0.3,1.7-0.9,2.3s-1.4,0.9-2.3,0.9c-0.6,0-1.1-0.1-1.6-0.4s-0.9-0.6-1.2-1.1S330.7,488.3,330.7,487.6z M332.4,487.6
		c0,0.6,0.1,1.1,0.4,1.4s0.7,0.5,1.1,0.5s0.8-0.2,1.1-0.5s0.4-0.8,0.4-1.4c0-0.6-0.1-1.1-0.4-1.4s-0.6-0.5-1.1-0.5s-0.8,0.2-1.1,0.5
		S332.4,487,332.4,487.6z"/>
	<path fill="#29ABCA" d="M344,490.8h-1.6v-3.2c0-0.7,0-1.1-0.1-1.3s-0.2-0.4-0.3-0.5s-0.3-0.2-0.6-0.2c-0.3,0-0.5,0.1-0.8,0.2
		s-0.4,0.4-0.5,0.6s-0.1,0.7-0.1,1.4v2.8h-1.6v-6.2h1.5v0.9c0.5-0.7,1.2-1.1,2.1-1.1c0.4,0,0.7,0.1,1,0.2s0.5,0.3,0.7,0.5
		s0.3,0.4,0.3,0.7s0.1,0.6,0.1,1.1L344,490.8L344,490.8z"/>
	<path fill="#29ABCA" d="M345.7,483.7v-1.5h1.6v1.5H345.7z M345.7,490.8v-6.2h1.6v6.2H345.7z"/>
	<path fill="#29ABCA" d="M354.7,490.8h-1.6v-3.2c0-0.7,0-1.1-0.1-1.3s-0.2-0.4-0.3-0.5s-0.3-0.2-0.6-0.2c-0.3,0-0.5,0.1-0.8,0.2
		s-0.4,0.4-0.5,0.6s-0.1,0.7-0.1,1.4v2.8H349v-6.2h1.5v0.9c0.5-0.7,1.2-1.1,2.1-1.1c0.4,0,0.7,0.1,1,0.2s0.5,0.3,0.7,0.5
		s0.3,0.4,0.3,0.7s0.1,0.6,0.1,1.1L354.7,490.8L354.7,490.8z"/>
	<path fill="#29ABCA" d="M360,488.8l1.6,0.3c-0.2,0.6-0.5,1.1-1,1.4s-1,0.5-1.7,0.5c-1.1,0-1.9-0.4-2.4-1.1
		c-0.4-0.6-0.6-1.3-0.6-2.1c0-1,0.3-1.8,0.8-2.4s1.2-0.9,2-0.9c0.9,0,1.7,0.3,2.2,0.9s0.8,1.5,0.8,2.8h-4.1c0,0.5,0.1,0.9,0.4,1.1
		s0.6,0.4,0.9,0.4c0.3,0,0.5-0.1,0.6-0.2S359.9,489.1,360,488.8z M360.1,487.1c0-0.5-0.1-0.8-0.4-1.1s-0.5-0.4-0.9-0.4
		c-0.4,0-0.7,0.1-0.9,0.4s-0.4,0.6-0.3,1.1L360.1,487.1L360.1,487.1z"/>
	<path fill="#29ABCA" d="M310.5,505.6l1.7,0.5c-0.3,0.9-0.7,1.6-1.3,2.1s-1.4,0.7-2.3,0.7c-1.1,0-2.1-0.4-2.8-1.2s-1.1-1.8-1.1-3.2
		c0-1.4,0.4-2.5,1.1-3.3s1.7-1.2,2.9-1.2c1.1,0,1.9,0.3,2.6,0.9c0.4,0.4,0.7,0.9,0.9,1.6l-1.7,0.4c-0.1-0.4-0.3-0.8-0.6-1.1
		s-0.7-0.4-1.2-0.4c-0.6,0-1.2,0.2-1.6,0.7s-0.6,1.2-0.6,2.2c0,1.1,0.2,1.9,0.6,2.3s0.9,0.7,1.5,0.7c0.5,0,0.9-0.1,1.2-0.4
		S310.4,506.2,310.5,505.6z"/>
	<path fill="#29ABCA" d="M312.9,502.5h1.8l1.5,4.4l1.5-4.4h1.7l-2.2,6l-0.4,1.1c-0.1,0.4-0.3,0.6-0.4,0.8s-0.3,0.3-0.5,0.5
		s-0.4,0.2-0.6,0.3s-0.5,0.1-0.8,0.1c-0.3,0-0.6,0-0.9-0.1l-0.1-1.3c0.3,0.1,0.5,0.1,0.7,0.1c0.4,0,0.7-0.1,0.9-0.3s0.3-0.5,0.4-0.9
		L312.9,502.5z"/>
	<path fill="#29ABCA" d="M319.8,507l1.7-0.3c0.1,0.3,0.2,0.6,0.4,0.7s0.5,0.2,0.9,0.2c0.4,0,0.7-0.1,1-0.2c0.1-0.1,0.2-0.3,0.2-0.4
		c0-0.1,0-0.2-0.1-0.3c-0.1-0.1-0.3-0.1-0.6-0.2c-1.3-0.3-2.2-0.6-2.5-0.8c-0.5-0.3-0.7-0.8-0.7-1.4c0-0.5,0.2-1,0.6-1.4
		s1.1-0.6,2-0.6c0.9,0,1.5,0.1,1.9,0.4s0.7,0.7,0.9,1.2l-1.6,0.3c-0.1-0.2-0.2-0.4-0.4-0.6s-0.4-0.2-0.8-0.2c-0.4,0-0.7,0.1-0.9,0.2
		c-0.1,0.1-0.2,0.2-0.2,0.3c0,0.1,0.1,0.2,0.2,0.3c0.1,0.1,0.7,0.3,1.5,0.5s1.5,0.4,1.8,0.7c0.3,0.3,0.5,0.7,0.5,1.2
		c0,0.6-0.2,1.1-0.7,1.5s-1.2,0.6-2.1,0.6c-0.8,0-1.5-0.2-2-0.5S320,507.6,319.8,507z"/>
	<path fill="#29ABCA" d="M329.9,502.5v1.3h-1.1v2.5c0,0.5,0,0.8,0,0.9s0.1,0.2,0.1,0.2s0.2,0.1,0.3,0.1c0.2,0,0.4-0.1,0.7-0.2
		l0.1,1.3c-0.4,0.2-0.8,0.2-1.3,0.2c-0.3,0-0.6,0-0.8-0.1s-0.4-0.2-0.5-0.4s-0.2-0.4-0.2-0.6c0-0.2-0.1-0.6-0.1-1.2v-2.7h-0.8v-1.3
		h0.8v-1.2l1.7-1v2.2H329.9z"/>
	<path fill="#29ABCA" d="M334.7,506.8l1.6,0.3c-0.2,0.6-0.5,1.1-1,1.4s-1,0.5-1.7,0.5c-1.1,0-1.9-0.4-2.4-1.1
		c-0.4-0.6-0.6-1.3-0.6-2.1c0-1,0.3-1.8,0.8-2.4s1.2-0.9,2-0.9c0.9,0,1.7,0.3,2.2,0.9s0.8,1.5,0.8,2.8h-4.1c0,0.5,0.1,0.9,0.4,1.1
		s0.6,0.4,0.9,0.4c0.3,0,0.5-0.1,0.6-0.2S334.6,507.1,334.7,506.8z M334.7,505.1c0-0.5-0.1-0.8-0.4-1.1s-0.5-0.4-0.9-0.4
		c-0.4,0-0.7,0.1-0.9,0.4s-0.4,0.6-0.3,1.1L334.7,505.1L334.7,505.1z"/>
	<path fill="#29ABCA" d="M337.7,501.7v-1.5h1.6v1.5H337.7z M337.7,508.8v-6.2h1.6v6.2H337.7z"/>
	<path fill="#29ABCA" d="M346.7,508.8h-1.6v-3.2c0-0.7,0-1.1-0.1-1.3s-0.2-0.4-0.3-0.5s-0.3-0.2-0.6-0.2c-0.3,0-0.5,0.1-0.8,0.2
		s-0.4,0.4-0.5,0.6s-0.1,0.7-0.1,1.4v2.8H341v-6.2h1.5v0.9c0.5-0.7,1.2-1.1,2.1-1.1c0.4,0,0.7,0.1,1,0.2s0.5,0.3,0.7,0.5
		s0.3,0.4,0.3,0.7s0.1,0.6,0.1,1.1L346.7,508.8L346.7,508.8z"/>
	<path fill="#29ABCA" d="M352,506.8l1.6,0.3c-0.2,0.6-0.5,1.1-1,1.4s-1,0.5-1.7,0.5c-1.1,0-1.9-0.4-2.4-1.1
		c-0.4-0.6-0.6-1.3-0.6-2.1c0-1,0.3-1.8,0.8-2.4s1.2-0.9,2-0.9c0.9,0,1.7,0.3,2.2,0.9s0.8,1.5,0.8,2.8h-4.1c0,0.5,0.1,0.9,0.4,1.1
		s0.6,0.4,0.9,0.4c0.3,0,0.5-0.1,0.6-0.2S351.9,507.1,352,506.8z M352.1,505.1c0-0.5-0.1-0.8-0.4-1.1s-0.5-0.4-0.9-0.4
		c-0.4,0-0.7,0.1-0.9,0.4s-0.4,0.6-0.3,1.1L352.1,505.1L352.1,505.1z"/>
	<path fill="#29ABCA" d="M309,523.6v-1.4h3.7v3.4c-0.4,0.4-0.9,0.7-1.6,0.9s-1.4,0.4-2.1,0.4c-0.9,0-1.7-0.2-2.4-0.6
		s-1.2-0.9-1.5-1.6s-0.5-1.5-0.5-2.3c0-0.9,0.2-1.7,0.6-2.4s0.9-1.2,1.6-1.6c0.6-0.3,1.2-0.4,2.1-0.4c1.1,0,1.9,0.2,2.5,0.7
		s1,1.1,1.2,1.9l-1.7,0.3c-0.1-0.4-0.4-0.8-0.7-1c-0.3-0.2-0.8-0.4-1.2-0.4c-0.8,0-1.4,0.2-1.8,0.7c-0.4,0.5-0.7,1.2-0.7,2.1
		c0,1,0.2,1.8,0.7,2.3s1,0.8,1.8,0.8c0.4,0,0.7-0.1,1.1-0.2s0.7-0.3,0.9-0.5v-1.1L309,523.6L309,523.6z"/>
	<path fill="#29ABCA" d="M314.4,526.8v-8.6h1.6v8.6H314.4z"/>
	<path fill="#29ABCA" d="M321.8,526.8v-0.9c-0.2,0.3-0.5,0.6-0.9,0.8s-0.8,0.3-1.2,0.3c-0.4,0-0.8-0.1-1.1-0.3s-0.6-0.4-0.7-0.8
		c-0.1-0.3-0.2-0.8-0.2-1.4v-3.9h1.6v2.9c0,0.9,0,1.4,0.1,1.6s0.2,0.4,0.3,0.5s0.4,0.2,0.6,0.2c0.3,0,0.5-0.1,0.8-0.2
		s0.4-0.3,0.5-0.6c0.1-0.2,0.1-0.8,0.1-1.7v-2.6h1.6v6.2L321.8,526.8L321.8,526.8z"/>
	<path fill="#29ABCA" d="M327.9,520.5v1.3h-1.1v2.5c0,0.5,0,0.8,0,0.9s0.1,0.2,0.1,0.2c0.1,0.1,0.2,0.1,0.3,0.1
		c0.2,0,0.4-0.1,0.7-0.2l0.1,1.3c-0.4,0.2-0.8,0.2-1.3,0.2c-0.3,0-0.6,0-0.8-0.1s-0.4-0.2-0.5-0.4s-0.2-0.4-0.2-0.6
		c0-0.2-0.1-0.6-0.1-1.2v-2.7h-0.8v-1.3h0.8v-1.2l1.7-1v2.2H327.9z"/>
	<path fill="#29ABCA" d="M330.3,522.4l-1.5-0.3c0.2-0.6,0.5-1,0.9-1.3c0.4-0.3,1-0.4,1.8-0.4c0.7,0,1.3,0.1,1.6,0.3
		c0.4,0.2,0.6,0.4,0.8,0.7c0.1,0.3,0.2,0.8,0.2,1.5l0,1.9c0,0.5,0,1,0.1,1.2s0.2,0.5,0.3,0.8h-1.6c0-0.1-0.1-0.3-0.2-0.5
		c0-0.1,0-0.2-0.1-0.2c-0.3,0.3-0.6,0.5-0.9,0.6s-0.7,0.2-1,0.2c-0.6,0-1.1-0.2-1.5-0.5c-0.4-0.3-0.6-0.8-0.6-1.3
		c0-0.4,0.1-0.7,0.3-0.9s0.4-0.5,0.7-0.6s0.7-0.3,1.3-0.4c0.8-0.1,1.3-0.3,1.6-0.4v-0.2c0-0.3-0.1-0.5-0.2-0.7s-0.5-0.2-0.9-0.2
		c-0.3,0-0.5,0.1-0.7,0.2C330.5,521.9,330.4,522.1,330.3,522.4z M332.5,523.8c-0.2,0.1-0.5,0.2-1,0.3s-0.8,0.2-0.9,0.3
		c-0.2,0.2-0.3,0.3-0.3,0.6c0,0.2,0.1,0.4,0.3,0.6s0.4,0.3,0.7,0.3c0.3,0,0.6-0.1,0.9-0.3c0.2-0.1,0.3-0.3,0.4-0.5
		c0-0.1,0.1-0.4,0.1-0.8L332.5,523.8L332.5,523.8z"/>
	<path fill="#29ABCA" d="M335.6,520.5h1.5v0.8c0.5-0.7,1.2-1,1.9-1c0.4,0,0.7,0.1,1,0.2c0.3,0.2,0.5,0.4,0.7,0.7
		c0.3-0.3,0.6-0.6,0.9-0.7c0.3-0.2,0.7-0.2,1-0.2c0.5,0,0.8,0.1,1.2,0.3s0.6,0.5,0.7,0.8c0.1,0.3,0.2,0.7,0.2,1.3v4h-1.6v-3.6
		c0-0.6-0.1-1-0.2-1.2c-0.2-0.2-0.4-0.4-0.7-0.4c-0.2,0-0.4,0.1-0.6,0.2s-0.4,0.3-0.4,0.6s-0.1,0.7-0.1,1.3v3h-1.6v-3.4
		c0-0.6,0-1-0.1-1.2c-0.1-0.2-0.1-0.3-0.3-0.4c-0.1-0.1-0.3-0.1-0.5-0.1c-0.3,0-0.5,0.1-0.7,0.2c-0.2,0.1-0.4,0.3-0.4,0.6
		s-0.1,0.7-0.1,1.3v3h-1.6L335.6,520.5L335.6,520.5z"/>
	<path fill="#29ABCA" d="M346.4,519.7v-1.5h1.6v1.5H346.4z M346.4,526.8v-6.2h1.6v6.2H346.4z"/>
	<path fill="#29ABCA" d="M355.4,526.8h-1.6v-3.2c0-0.7,0-1.1-0.1-1.3s-0.2-0.4-0.3-0.5s-0.3-0.2-0.6-0.2c-0.3,0-0.5,0.1-0.8,0.2
		s-0.4,0.4-0.5,0.6s-0.1,0.7-0.1,1.4v2.8h-1.6v-6.2h1.5v0.9c0.5-0.7,1.2-1.1,2.1-1.1c0.4,0,0.7,0.1,1,0.2s0.5,0.3,0.7,0.5
		s0.3,0.4,0.3,0.7c0.1,0.3,0.1,0.6,0.1,1.1V526.8z"/>
	<path fill="#29ABCA" d="M360.6,524.8l1.6,0.3c-0.2,0.6-0.5,1.1-1,1.4c-0.5,0.3-1,0.5-1.7,0.5c-1.1,0-1.9-0.4-2.4-1.1
		c-0.4-0.6-0.6-1.3-0.6-2.1c0-1,0.3-1.8,0.8-2.4s1.2-0.9,2-0.9c0.9,0,1.7,0.3,2.2,0.9s0.8,1.5,0.8,2.8h-4.1c0,0.5,0.1,0.9,0.4,1.1
		c0.3,0.3,0.6,0.4,0.9,0.4c0.3,0,0.5-0.1,0.6-0.2S360.6,525.1,360.6,524.8z M360.7,523.1c0-0.5-0.1-0.8-0.4-1.1
		c-0.2-0.2-0.5-0.4-0.9-0.4c-0.4,0-0.7,0.1-0.9,0.4c-0.2,0.3-0.4,0.6-0.3,1.1H360.7L360.7,523.1z"/>
	<path fill="#29ABCA" d="M312.8,544.8h-1.9l-0.8-2h-3.4l-0.7,2h-1.8l3.3-8.6h1.8L312.8,544.8z M309.6,541.4l-1.2-3.2l-1.2,3.2H309.6
		z"/>
	<path fill="#29ABCA" d="M313.1,543l1.7-0.3c0.1,0.3,0.2,0.6,0.4,0.7s0.5,0.2,0.9,0.2c0.4,0,0.7-0.1,1-0.2c0.1-0.1,0.2-0.3,0.2-0.4
		c0-0.1,0-0.2-0.1-0.3c-0.1-0.1-0.3-0.2-0.6-0.2c-1.3-0.3-2.2-0.6-2.5-0.8c-0.5-0.3-0.7-0.8-0.7-1.4c0-0.5,0.2-1,0.6-1.4
		c0.4-0.4,1.1-0.6,2-0.6c0.9,0,1.5,0.1,1.9,0.4s0.7,0.7,0.9,1.2l-1.6,0.3c-0.1-0.2-0.2-0.4-0.4-0.6s-0.4-0.2-0.8-0.2
		c-0.4,0-0.7,0.1-0.9,0.2c-0.1,0.1-0.2,0.2-0.2,0.3c0,0.1,0.1,0.2,0.2,0.3c0.1,0.1,0.7,0.3,1.5,0.5c0.9,0.2,1.5,0.4,1.8,0.7
		c0.3,0.3,0.5,0.7,0.5,1.2c0,0.6-0.2,1.1-0.7,1.5s-1.2,0.6-2.1,0.6c-0.8,0-1.5-0.2-2-0.5S313.3,543.6,313.1,543z"/>
	<path fill="#29ABCA" d="M320.3,538.5h1.5v0.9c0.2-0.3,0.5-0.6,0.8-0.8s0.7-0.3,1.1-0.3c0.7,0,1.3,0.3,1.8,0.8s0.8,1.4,0.8,2.4
		c0,1-0.3,1.8-0.8,2.4s-1.1,0.9-1.8,0.9c-0.3,0-0.7-0.1-0.9-0.2s-0.6-0.4-0.9-0.7v3.1h-1.6V538.5z M322,541.5c0,0.7,0.1,1.2,0.4,1.6
		s0.6,0.5,1,0.5c0.4,0,0.7-0.2,1-0.5s0.4-0.8,0.4-1.5c0-0.7-0.1-1.1-0.4-1.5s-0.6-0.5-1-0.5c-0.4,0-0.7,0.2-1,0.5
		S322,540.9,322,541.5z"/>
	<path fill="#29ABCA" d="M328.9,540.4l-1.5-0.3c0.2-0.6,0.5-1,0.9-1.3c0.4-0.3,1-0.4,1.8-0.4c0.7,0,1.3,0.1,1.6,0.3
		c0.4,0.2,0.6,0.4,0.8,0.7c0.1,0.3,0.2,0.8,0.2,1.5l0,1.9c0,0.5,0,1,0.1,1.2s0.2,0.5,0.3,0.8h-1.6c0-0.1-0.1-0.3-0.2-0.5
		c0-0.1,0-0.2-0.1-0.2c-0.3,0.3-0.6,0.5-0.9,0.6s-0.7,0.2-1,0.2c-0.6,0-1.1-0.2-1.5-0.5c-0.4-0.3-0.6-0.8-0.6-1.3
		c0-0.4,0.1-0.7,0.3-0.9s0.4-0.5,0.7-0.6s0.7-0.3,1.3-0.4c0.8-0.1,1.3-0.3,1.6-0.4v-0.2c0-0.3-0.1-0.5-0.2-0.7s-0.5-0.2-0.9-0.2
		c-0.3,0-0.5,0.1-0.7,0.2C329.2,539.9,329,540.1,328.9,540.4z M331.1,541.8c-0.2,0.1-0.5,0.2-1,0.3s-0.8,0.2-0.9,0.3
		c-0.2,0.2-0.3,0.3-0.3,0.6c0,0.2,0.1,0.4,0.3,0.6s0.4,0.3,0.7,0.3c0.3,0,0.6-0.1,0.9-0.3c0.2-0.1,0.3-0.3,0.4-0.5
		c0-0.1,0.1-0.4,0.1-0.8L331.1,541.8L331.1,541.8z"/>
	<path fill="#29ABCA" d="M336,544.8h-1.6v-6.2h1.5v0.9c0.3-0.4,0.5-0.7,0.7-0.8s0.4-0.2,0.7-0.2c0.4,0,0.7,0.1,1.1,0.3l-0.5,1.4
		c-0.3-0.2-0.5-0.3-0.8-0.3c-0.2,0-0.4,0.1-0.6,0.2c-0.2,0.1-0.3,0.4-0.4,0.7c-0.1,0.3-0.1,1-0.1,2.1V544.8z"/>
	<path fill="#29ABCA" d="M340.3,540.4l-1.5-0.3c0.2-0.6,0.5-1,0.9-1.3c0.4-0.3,1-0.4,1.8-0.4c0.7,0,1.3,0.1,1.6,0.3
		c0.4,0.2,0.6,0.4,0.8,0.7c0.1,0.3,0.2,0.8,0.2,1.5l0,1.9c0,0.5,0,1,0.1,1.2s0.2,0.5,0.3,0.8h-1.6c0-0.1-0.1-0.3-0.2-0.5
		c0-0.1,0-0.2-0.1-0.2c-0.3,0.3-0.6,0.5-0.9,0.6s-0.7,0.2-1,0.2c-0.6,0-1.1-0.2-1.5-0.5c-0.4-0.3-0.6-0.8-0.6-1.3
		c0-0.4,0.1-0.7,0.3-0.9s0.4-0.5,0.7-0.6s0.7-0.3,1.3-0.4c0.8-0.1,1.3-0.3,1.6-0.4v-0.2c0-0.3-0.1-0.5-0.2-0.7s-0.5-0.2-0.9-0.2
		c-0.3,0-0.5,0.1-0.7,0.2C340.5,539.9,340.4,540.1,340.3,540.4z M342.5,541.8c-0.2,0.1-0.5,0.2-1,0.3s-0.8,0.2-0.9,0.3
		c-0.2,0.2-0.3,0.3-0.3,0.6c0,0.2,0.1,0.4,0.3,0.6s0.4,0.3,0.7,0.3c0.3,0,0.6-0.1,0.9-0.3c0.2-0.1,0.3-0.3,0.4-0.5
		c0-0.1,0.1-0.4,0.1-0.8L342.5,541.8L342.5,541.8z"/>
	<path fill="#29ABCA" d="M345.6,545.2l1.9,0.2c0,0.2,0.1,0.4,0.2,0.5c0.2,0.1,0.4,0.2,0.7,0.2c0.4,0,0.8-0.1,1-0.2
		c0.1-0.1,0.3-0.2,0.3-0.4c0.1-0.1,0.1-0.4,0.1-0.8v-0.9c-0.5,0.7-1.1,1-1.9,1c-0.8,0-1.5-0.4-2-1.1c-0.4-0.6-0.6-1.3-0.6-2.1
		c0-1,0.2-1.8,0.8-2.4c0.5-0.6,1.1-0.8,1.9-0.8c0.8,0,1.4,0.3,1.9,1v-0.9h1.5v5.6c0,0.7-0.1,1.3-0.2,1.6c-0.1,0.4-0.3,0.6-0.5,0.9
		s-0.5,0.4-0.9,0.5c-0.4,0.1-0.8,0.2-1.4,0.2c-1.1,0-1.8-0.2-2.2-0.5c-0.4-0.4-0.7-0.8-0.7-1.4C345.6,545.3,345.6,545.2,345.6,545.2
		z M347,541.5c0,0.7,0.1,1.1,0.4,1.5s0.6,0.5,0.9,0.5c0.4,0,0.7-0.2,1-0.5c0.3-0.3,0.4-0.8,0.4-1.4c0-0.6-0.1-1.1-0.4-1.4
		s-0.6-0.5-1-0.5c-0.4,0-0.7,0.2-1,0.5S347,540.9,347,541.5z"/>
	<path fill="#29ABCA" d="M353.1,537.7v-1.5h1.6v1.5H353.1z M353.1,544.8v-6.2h1.6v6.2H353.1z"/>
	<path fill="#29ABCA" d="M362.1,544.8h-1.6v-3.2c0-0.7,0-1.1-0.1-1.3s-0.2-0.4-0.3-0.5s-0.3-0.2-0.6-0.2c-0.3,0-0.5,0.1-0.8,0.2
		s-0.4,0.4-0.5,0.6s-0.1,0.7-0.1,1.4v2.8h-1.6v-6.2h1.5v0.9c0.5-0.7,1.2-1.1,2.1-1.1c0.4,0,0.7,0.1,1,0.2s0.5,0.3,0.7,0.5
		s0.3,0.4,0.3,0.7c0.1,0.3,0.1,0.6,0.1,1.1L362.1,544.8L362.1,544.8z"/>
	<path fill="#29ABCA" d="M367.3,542.8l1.6,0.3c-0.2,0.6-0.5,1.1-1,1.4c-0.5,0.3-1,0.5-1.7,0.5c-1.1,0-1.9-0.4-2.4-1.1
		c-0.4-0.6-0.6-1.3-0.6-2.1c0-1,0.3-1.8,0.8-2.4s1.2-0.9,2-0.9c0.9,0,1.7,0.3,2.2,0.9s0.8,1.5,0.8,2.8h-4.1c0,0.5,0.1,0.9,0.4,1.1
		c0.3,0.3,0.6,0.4,0.9,0.4c0.3,0,0.5-0.1,0.6-0.2S367.2,543.1,367.3,542.8z M367.4,541.1c0-0.5-0.1-0.8-0.4-1.1
		c-0.2-0.2-0.5-0.4-0.9-0.4c-0.4,0-0.7,0.1-0.9,0.4c-0.2,0.3-0.4,0.6-0.3,1.1H367.4L367.4,541.1z"/>
</g>
<g>
	<path fill="#83C167" d="M442.4,451.6v-1.4h3.7v3.4c-0.4,0.4-0.9,0.7-1.6,0.9s-1.4,0.4-2.1,0.4c-0.9,0-1.7-0.2-2.4-0.6
		s-1.2-0.9-1.5-1.6s-0.5-1.5-0.5-2.3c0-0.9,0.2-1.7,0.6-2.4c0.4-0.7,0.9-1.2,1.6-1.6c0.6-0.3,1.2-0.4,2.1-0.4c1.1,0,1.9,0.2,2.5,0.7
		s1,1.1,1.2,1.9l-1.7,0.3c-0.1-0.4-0.3-0.8-0.7-1s-0.8-0.4-1.3-0.4c-0.8,0-1.4,0.2-1.8,0.7c-0.4,0.5-0.7,1.2-0.7,2.1
		c0,1,0.2,1.8,0.7,2.3c0.5,0.5,1,0.8,1.8,0.8c0.4,0,0.7-0.1,1.1-0.2s0.7-0.3,0.9-0.5v-1.1L442.4,451.6L442.4,451.6z"/>
	<path fill="#83C167" d="M447.7,454.8v-8.6h1.6v8.6H447.7z"/>
	<path fill="#83C167" d="M455.2,454.8v-0.9c-0.2,0.3-0.5,0.6-0.9,0.8c-0.4,0.2-0.8,0.3-1.2,0.3c-0.4,0-0.8-0.1-1.1-0.3
		s-0.6-0.4-0.7-0.8c-0.1-0.3-0.2-0.8-0.2-1.4v-3.9h1.6v2.9c0,0.9,0,1.4,0.1,1.6c0.1,0.2,0.2,0.4,0.3,0.5s0.4,0.2,0.6,0.2
		c0.3,0,0.5-0.1,0.8-0.2s0.4-0.3,0.5-0.6s0.1-0.8,0.1-1.7v-2.6h1.6v6.2H455.2z"/>
	<path fill="#83C167" d="M461.3,448.5v1.3h-1.1v2.5c0,0.5,0,0.8,0,0.9s0.1,0.2,0.1,0.2s0.2,0.1,0.3,0.1c0.2,0,0.4-0.1,0.7-0.2
		l0.1,1.3c-0.4,0.2-0.8,0.2-1.3,0.2c-0.3,0-0.6,0-0.8-0.1s-0.4-0.2-0.5-0.4c-0.1-0.2-0.2-0.4-0.2-0.6c0-0.2-0.1-0.6-0.1-1.2v-2.7
		h-0.8v-1.3h0.8v-1.2l1.7-1v2.2H461.3L461.3,448.5z"/>
	<path fill="#83C167" d="M463.6,450.4l-1.5-0.3c0.2-0.6,0.5-1,0.9-1.3s1-0.4,1.8-0.4c0.7,0,1.3,0.1,1.6,0.3s0.6,0.4,0.8,0.7
		c0.1,0.3,0.2,0.8,0.2,1.5l0,1.9c0,0.5,0,1,0.1,1.2s0.2,0.5,0.3,0.8h-1.6c0-0.1-0.1-0.3-0.2-0.5c0-0.1,0-0.2-0.1-0.2
		c-0.3,0.3-0.6,0.5-0.9,0.6s-0.7,0.2-1,0.2c-0.6,0-1.1-0.2-1.5-0.5c-0.4-0.3-0.6-0.8-0.6-1.3c0-0.4,0.1-0.7,0.3-0.9
		c0.2-0.3,0.4-0.5,0.7-0.6c0.3-0.1,0.7-0.3,1.3-0.4c0.8-0.1,1.3-0.3,1.6-0.4v-0.2c0-0.3-0.1-0.5-0.2-0.7c-0.2-0.1-0.5-0.2-0.9-0.2
		c-0.3,0-0.5,0.1-0.7,0.2S463.7,450.1,463.6,450.4z M465.8,451.8c-0.2,0.1-0.5,0.2-1,0.3c-0.5,0.1-0.8,0.2-0.9,0.3
		c-0.2,0.2-0.3,0.3-0.3,0.6c0,0.2,0.1,0.4,0.3,0.6s0.4,0.3,0.7,0.3c0.3,0,0.6-0.1,0.9-0.3c0.2-0.1,0.3-0.3,0.4-0.5
		c0-0.1,0.1-0.4,0.1-0.8L465.8,451.8L465.8,451.8z"/>
	<path fill="#83C167" d="M469,448.5h1.5v0.8c0.5-0.7,1.2-1,1.9-1c0.4,0,0.7,0.1,1,0.2s0.5,0.4,0.7,0.7c0.3-0.3,0.6-0.6,0.9-0.7
		s0.7-0.2,1-0.2c0.5,0,0.8,0.1,1.2,0.3c0.3,0.2,0.6,0.5,0.7,0.8c0.1,0.3,0.2,0.7,0.2,1.3v4h-1.6v-3.6c0-0.6-0.1-1-0.2-1.2
		c-0.2-0.2-0.4-0.4-0.7-0.4c-0.2,0-0.4,0.1-0.6,0.2s-0.4,0.3-0.4,0.6s-0.1,0.7-0.1,1.3v3h-1.6v-3.4c0-0.6,0-1-0.1-1.2
		s-0.1-0.3-0.3-0.4s-0.3-0.1-0.5-0.1c-0.3,0-0.5,0.1-0.7,0.2c-0.2,0.1-0.3,0.3-0.4,0.6s-0.1,0.7-0.1,1.3v3H469L469,448.5L469,448.5z
		"/>
	<path fill="#83C167" d="M479.8,447.7v-1.5h1.6v1.5H479.8z M479.8,454.8v-6.2h1.6v6.2H479.8z"/>
	<path fill="#83C167" d="M488.5,450.4l-1.6,0.3c-0.1-0.3-0.2-0.6-0.4-0.7s-0.4-0.2-0.8-0.2c-0.4,0-0.7,0.1-1,0.4
		c-0.2,0.3-0.4,0.8-0.4,1.4c0,0.7,0.1,1.3,0.4,1.6s0.6,0.5,1,0.5c0.3,0,0.6-0.1,0.8-0.3c0.2-0.2,0.3-0.5,0.4-0.9l1.6,0.3
		c-0.2,0.7-0.5,1.3-1,1.7c-0.5,0.4-1.1,0.6-1.9,0.6c-0.9,0-1.6-0.3-2.2-0.9c-0.5-0.6-0.8-1.4-0.8-2.4c0-1,0.3-1.8,0.8-2.4
		c0.5-0.6,1.3-0.9,2.2-0.9c0.8,0,1.4,0.2,1.8,0.5C488,449.2,488.3,449.7,488.5,450.4z"/>
	<path fill="#83C167" d="M494.3,450.4l-1.5-0.3c0.2-0.6,0.5-1,0.9-1.3s1-0.4,1.8-0.4c0.7,0,1.3,0.1,1.6,0.3s0.6,0.4,0.8,0.7
		c0.1,0.3,0.2,0.8,0.2,1.5l0,1.9c0,0.5,0,1,0.1,1.2s0.2,0.5,0.3,0.8h-1.6c0-0.1-0.1-0.3-0.2-0.5c0-0.1,0-0.2-0.1-0.2
		c-0.3,0.3-0.6,0.5-0.9,0.6s-0.7,0.2-1,0.2c-0.6,0-1.1-0.2-1.5-0.5c-0.4-0.3-0.6-0.8-0.6-1.3c0-0.4,0.1-0.7,0.3-0.9
		c0.2-0.3,0.4-0.5,0.7-0.6c0.3-0.1,0.7-0.3,1.3-0.4c0.8-0.1,1.3-0.3,1.6-0.4v-0.2c0-0.3-0.1-0.5-0.2-0.7c-0.2-0.1-0.5-0.2-0.9-0.2
		c-0.3,0-0.5,0.1-0.7,0.2S494.4,450.1,494.3,450.4z M496.5,451.8c-0.2,0.1-0.5,0.2-1,0.3c-0.5,0.1-0.8,0.2-0.9,0.3
		c-0.2,0.2-0.3,0.3-0.3,0.6c0,0.2,0.1,0.4,0.3,0.6s0.4,0.3,0.7,0.3c0.3,0,0.6-0.1,0.9-0.3c0.2-0.1,0.3-0.3,0.4-0.5
		c0-0.1,0.1-0.4,0.1-0.8L496.5,451.8L496.5,451.8z"/>
	<path fill="#83C167" d="M505.2,450.4l-1.6,0.3c-0.1-0.3-0.2-0.6-0.4-0.7s-0.4-0.2-0.8-0.2c-0.4,0-0.7,0.1-1,0.4
		c-0.2,0.3-0.4,0.8-0.4,1.4c0,0.7,0.1,1.3,0.4,1.6s0.6,0.5,1,0.5c0.3,0,0.6-0.1,0.8-0.3c0.2-0.2,0.3-0.5,0.4-0.9l1.6,0.3
		c-0.2,0.7-0.5,1.3-1,1.7c-0.5,0.4-1.1,0.6-1.9,0.6c-0.9,0-1.6-0.3-2.2-0.9c-0.5-0.6-0.8-1.4-0.8-2.4c0-1,0.3-1.8,0.8-2.4
		c0.5-0.6,1.3-0.9,2.2-0.9c0.8,0,1.4,0.2,1.8,0.5C504.7,449.2,505,449.7,505.2,450.4z"/>
	<path fill="#83C167" d="M506.4,447.7v-1.5h1.6v1.5H506.4z M506.4,454.8v-6.2h1.6v6.2H506.4z"/>
	<path fill="#83C167" d="M515.5,454.8H514v-0.9c-0.3,0.4-0.6,0.6-0.9,0.8c-0.3,0.2-0.7,0.3-1,0.3c-0.7,0-1.3-0.3-1.8-0.9
		c-0.5-0.6-0.8-1.4-0.8-2.4c0-1.1,0.2-1.9,0.7-2.4s1.1-0.8,1.9-0.8c0.7,0,1.3,0.3,1.8,0.9v-3.1h1.6V454.8z M511.1,451.5
		c0,0.7,0.1,1.1,0.3,1.4c0.3,0.4,0.6,0.6,1.1,0.6c0.4,0,0.7-0.2,1-0.5c0.3-0.3,0.4-0.8,0.4-1.4c0-0.7-0.1-1.2-0.4-1.5
		c-0.3-0.3-0.6-0.5-1-0.5c-0.4,0-0.7,0.2-1,0.5C511.2,450.4,511.1,450.9,511.1,451.5z"/>
	<path fill="#83C167" d="M446.2,472.8h-1.9l-0.8-2h-3.4l-0.7,2h-1.8l3.3-8.6h1.8L446.2,472.8z M443,469.4l-1.2-3.2l-1.2,3.2H443z"/>
	<path fill="#83C167" d="M446.5,471l1.7-0.3c0.1,0.3,0.2,0.6,0.4,0.7c0.2,0.2,0.5,0.2,0.9,0.2c0.4,0,0.7-0.1,1-0.2
		c0.1-0.1,0.2-0.3,0.2-0.4c0-0.1,0-0.2-0.1-0.3c-0.1-0.1-0.3-0.2-0.6-0.2c-1.3-0.3-2.2-0.6-2.5-0.8c-0.5-0.3-0.7-0.8-0.7-1.4
		c0-0.5,0.2-1,0.6-1.4s1.1-0.6,2-0.6c0.9,0,1.5,0.1,1.9,0.4c0.4,0.3,0.7,0.7,0.9,1.2l-1.6,0.3c-0.1-0.2-0.2-0.4-0.4-0.6
		c-0.2-0.1-0.5-0.2-0.8-0.2c-0.4,0-0.7,0.1-0.9,0.2c-0.1,0.1-0.2,0.2-0.2,0.3c0,0.1,0.1,0.2,0.2,0.3c0.1,0.1,0.7,0.3,1.5,0.5
		s1.5,0.4,1.8,0.7c0.3,0.3,0.5,0.7,0.5,1.2c0,0.6-0.2,1.1-0.7,1.5c-0.5,0.4-1.2,0.6-2.1,0.6c-0.8,0-1.5-0.2-2-0.5
		C447,472,446.6,471.6,446.5,471z"/>
	<path fill="#83C167" d="M453.7,466.5h1.5v0.9c0.2-0.3,0.5-0.6,0.8-0.8c0.3-0.2,0.7-0.3,1.1-0.3c0.7,0,1.3,0.3,1.8,0.8
		c0.5,0.6,0.8,1.4,0.8,2.4c0,1-0.3,1.8-0.8,2.4s-1.1,0.9-1.8,0.9c-0.3,0-0.7-0.1-0.9-0.2c-0.3-0.1-0.6-0.4-0.9-0.7v3.1h-1.6
		L453.7,466.5L453.7,466.5z M455.3,469.5c0,0.7,0.1,1.2,0.4,1.6s0.6,0.5,1,0.5c0.4,0,0.7-0.2,1-0.5s0.4-0.8,0.4-1.5
		c0-0.7-0.1-1.1-0.4-1.5s-0.6-0.5-1-0.5c-0.4,0-0.7,0.2-1,0.5C455.5,468.5,455.3,468.9,455.3,469.5z"/>
	<path fill="#83C167" d="M462.3,468.4l-1.5-0.3c0.2-0.6,0.5-1,0.9-1.3s1-0.4,1.8-0.4c0.7,0,1.3,0.1,1.6,0.3s0.6,0.4,0.8,0.7
		c0.1,0.3,0.2,0.8,0.2,1.5l0,1.9c0,0.5,0,1,0.1,1.2s0.2,0.5,0.3,0.8h-1.6c0-0.1-0.1-0.3-0.2-0.5c0-0.1,0-0.2-0.1-0.2
		c-0.3,0.3-0.6,0.5-0.9,0.6s-0.7,0.2-1,0.2c-0.6,0-1.1-0.2-1.5-0.5c-0.4-0.3-0.6-0.8-0.6-1.3c0-0.4,0.1-0.7,0.3-0.9
		c0.2-0.3,0.4-0.5,0.7-0.6c0.3-0.1,0.7-0.3,1.3-0.4c0.8-0.1,1.3-0.3,1.6-0.4v-0.2c0-0.3-0.1-0.5-0.2-0.7c-0.2-0.1-0.5-0.2-0.9-0.2
		c-0.3,0-0.5,0.1-0.7,0.2S462.4,468.1,462.3,468.4z M464.5,469.8c-0.2,0.1-0.5,0.2-1,0.3c-0.5,0.1-0.8,0.2-0.9,0.3
		c-0.2,0.2-0.3,0.3-0.3,0.6c0,0.2,0.1,0.4,0.3,0.6s0.4,0.3,0.7,0.3c0.3,0,0.6-0.1,0.9-0.3c0.2-0.1,0.3-0.3,0.4-0.5
		c0-0.1,0.1-0.4,0.1-0.8L464.5,469.8L464.5,469.8z"/>
	<path fill="#83C167" d="M469.3,472.8h-1.6v-6.2h1.5v0.9c0.3-0.4,0.5-0.7,0.7-0.8s0.4-0.2,0.7-0.2c0.4,0,0.7,0.1,1.1,0.3l-0.5,1.4
		c-0.3-0.2-0.5-0.3-0.8-0.3c-0.2,0-0.4,0.1-0.6,0.2s-0.3,0.4-0.4,0.7s-0.1,1-0.1,2.1V472.8z"/>
	<path fill="#83C167" d="M475.3,466.5v1.3h-1.1v2.5c0,0.5,0,0.8,0,0.9s0.1,0.2,0.1,0.2s0.2,0.1,0.3,0.1c0.2,0,0.4-0.1,0.7-0.2
		l0.1,1.3c-0.4,0.2-0.8,0.2-1.3,0.2c-0.3,0-0.6,0-0.8-0.1s-0.4-0.2-0.5-0.4c-0.1-0.2-0.2-0.4-0.2-0.6c0-0.2-0.1-0.6-0.1-1.2v-2.7
		h-0.8v-1.3h0.8v-1.2l1.7-1v2.2H475.3L475.3,466.5z"/>
	<path fill="#83C167" d="M476.4,465.7v-1.5h1.6v1.5H476.4z M476.4,472.8v-6.2h1.6v6.2H476.4z"/>
	<path fill="#83C167" d="M485.2,468.4l-1.6,0.3c-0.1-0.3-0.2-0.6-0.4-0.7s-0.4-0.2-0.8-0.2c-0.4,0-0.7,0.1-1,0.4
		c-0.2,0.3-0.4,0.8-0.4,1.4c0,0.7,0.1,1.3,0.4,1.6s0.6,0.5,1,0.5c0.3,0,0.6-0.1,0.8-0.3c0.2-0.2,0.3-0.5,0.4-0.9l1.6,0.3
		c-0.2,0.7-0.5,1.3-1,1.7c-0.5,0.4-1.1,0.6-1.9,0.6c-0.9,0-1.6-0.3-2.2-0.9c-0.5-0.6-0.8-1.4-0.8-2.4c0-1,0.3-1.8,0.8-2.4
		c0.5-0.6,1.3-0.9,2.2-0.9c0.8,0,1.4,0.2,1.8,0.5C484.7,467.2,485,467.7,485.2,468.4z"/>
	<path fill="#83C167" d="M491,468.4l-1.5-0.3c0.2-0.6,0.5-1,0.9-1.3s1-0.4,1.8-0.4c0.7,0,1.3,0.1,1.6,0.3s0.6,0.4,0.8,0.7
		c0.1,0.3,0.2,0.8,0.2,1.5l0,1.9c0,0.5,0,1,0.1,1.2s0.2,0.5,0.3,0.8h-1.6c0-0.1-0.1-0.3-0.2-0.5c0-0.1,0-0.2-0.1-0.2
		c-0.3,0.3-0.6,0.5-0.9,0.6s-0.7,0.2-1,0.2c-0.6,0-1.1-0.2-1.5-0.5c-0.4-0.3-0.6-0.8-0.6-1.3c0-0.4,0.1-0.7,0.3-0.9
		c0.2-0.3,0.4-0.5,0.7-0.6c0.3-0.1,0.7-0.3,1.3-0.4c0.8-0.1,1.3-0.3,1.6-0.4v-0.2c0-0.3-0.1-0.5-0.2-0.7c-0.2-0.1-0.5-0.2-0.9-0.2
		c-0.3,0-0.5,0.1-0.7,0.2S491.1,468.1,491,468.4z M493.2,469.8c-0.2,0.1-0.5,0.2-1,0.3c-0.5,0.1-0.8,0.2-0.9,0.3
		c-0.2,0.2-0.3,0.3-0.3,0.6c0,0.2,0.1,0.4,0.3,0.6s0.4,0.3,0.7,0.3c0.3,0,0.6-0.1,0.9-0.3c0.2-0.1,0.3-0.3,0.4-0.5
		c0-0.1,0.1-0.4,0.1-0.8L493.2,469.8L493.2,469.8z"/>
	<path fill="#83C167" d="M501.9,468.4l-1.6,0.3c-0.1-0.3-0.2-0.6-0.4-0.7s-0.4-0.2-0.8-0.2c-0.4,0-0.7,0.1-1,0.4
		c-0.2,0.3-0.4,0.8-0.4,1.4c0,0.7,0.1,1.3,0.4,1.6s0.6,0.5,1,0.5c0.3,0,0.6-0.1,0.8-0.3c0.2-0.2,0.3-0.5,0.4-0.9l1.6,0.3
		c-0.2,0.7-0.5,1.3-1,1.7c-0.5,0.4-1.1,0.6-1.9,0.6c-0.9,0-1.6-0.3-2.2-0.9c-0.5-0.6-0.8-1.4-0.8-2.4c0-1,0.3-1.8,0.8-2.4
		c0.5-0.6,1.3-0.9,2.2-0.9c0.8,0,1.4,0.2,1.8,0.5C501.3,467.2,501.7,467.7,501.9,468.4z"/>
	<path fill="#83C167" d="M503.1,465.7v-1.5h1.6v1.5H503.1z M503.1,472.8v-6.2h1.6v6.2H503.1z"/>
	<path fill="#83C167" d="M512.2,472.8h-1.5v-0.9c-0.3,0.4-0.6,0.6-0.9,0.8s-0.7,0.3-1,0.3c-0.7,0-1.3-0.3-1.8-0.9
		c-0.5-0.6-0.8-1.4-0.8-2.4c0-1.1,0.2-1.9,0.7-2.4s1.1-0.8,1.9-0.8c0.7,0,1.3,0.3,1.8,0.9v-3.1h1.6V472.8z M507.8,469.5
		c0,0.7,0.1,1.1,0.3,1.4c0.3,0.4,0.6,0.6,1.1,0.6c0.4,0,0.7-0.2,1-0.5c0.3-0.3,0.4-0.8,0.4-1.4c0-0.7-0.1-1.2-0.4-1.5
		c-0.3-0.3-0.6-0.5-1-0.5c-0.4,0-0.7,0.2-1,0.5C507.9,468.4,507.8,468.9,507.8,469.5z"/>
</g>
<g>
	<path fill="#9A72AC" d="M592.4,455.1v-8.5h1.7v7.1h4.3v1.4L592.4,455.1L592.4,455.1z"/>
	<path fill="#9A72AC" d="M598.5,448.9h1.8l1.5,4.4l1.5-4.4h1.7l-2.2,6l-0.4,1.1c-0.1,0.4-0.3,0.6-0.4,0.8s-0.3,0.3-0.5,0.5
		s-0.4,0.2-0.6,0.3c-0.2,0.1-0.5,0.1-0.8,0.1c-0.3,0-0.6,0-0.9-0.1l-0.1-1.3c0.3,0.1,0.5,0.1,0.7,0.1c0.4,0,0.7-0.1,0.8-0.3
		s0.3-0.5,0.4-0.9L598.5,448.9z"/>
	<path fill="#9A72AC" d="M605.3,453.3l1.7-0.3c0.1,0.3,0.2,0.6,0.4,0.7c0.2,0.2,0.5,0.2,0.9,0.2c0.4,0,0.7-0.1,1-0.2
		c0.1-0.1,0.2-0.3,0.2-0.4c0-0.1,0-0.2-0.1-0.3c-0.1-0.1-0.3-0.1-0.6-0.2c-1.3-0.3-2.2-0.6-2.5-0.8c-0.5-0.3-0.7-0.8-0.7-1.4
		c0-0.5,0.2-1,0.6-1.4c0.4-0.4,1.1-0.6,2-0.6c0.9,0,1.5,0.1,1.9,0.4s0.7,0.7,0.9,1.2l-1.6,0.3c-0.1-0.2-0.2-0.4-0.4-0.6
		s-0.5-0.2-0.8-0.2c-0.4,0-0.7,0.1-0.9,0.2c-0.1,0.1-0.2,0.2-0.2,0.3c0,0.1,0.1,0.2,0.2,0.3c0.1,0.1,0.7,0.3,1.5,0.5
		c0.9,0.2,1.5,0.4,1.8,0.7c0.3,0.3,0.5,0.7,0.5,1.2c0,0.6-0.2,1.1-0.7,1.5s-1.2,0.6-2.1,0.6c-0.8,0-1.5-0.2-2-0.5
		S605.5,453.9,605.3,453.3z"/>
	<path fill="#9A72AC" d="M612.6,448v-1.5h1.6v1.5H612.6z M612.6,455.1v-6.2h1.6v6.2H612.6z"/>
	<path fill="#9A72AC" d="M621.6,455.1h-1.6v-3.2c0-0.7,0-1.1-0.1-1.3s-0.2-0.4-0.3-0.5s-0.3-0.2-0.6-0.2c-0.3,0-0.5,0.1-0.8,0.2
		c-0.2,0.2-0.4,0.4-0.5,0.6s-0.1,0.7-0.1,1.4v2.8h-1.6v-6.2h1.5v0.9c0.5-0.7,1.2-1.1,2.1-1.1c0.4,0,0.7,0.1,1,0.2
		c0.3,0.1,0.5,0.3,0.7,0.5s0.3,0.4,0.3,0.7s0.1,0.6,0.1,1.1L621.6,455.1L621.6,455.1z"/>
	<path fill="#9A72AC" d="M626.9,453.1l1.6,0.3c-0.2,0.6-0.5,1.1-1,1.4c-0.5,0.3-1,0.5-1.7,0.5c-1.1,0-1.9-0.4-2.4-1.1
		c-0.4-0.6-0.6-1.3-0.6-2.1c0-1,0.3-1.8,0.8-2.4c0.5-0.6,1.2-0.9,2-0.9c0.9,0,1.7,0.3,2.2,0.9s0.8,1.5,0.8,2.8h-4.1
		c0,0.5,0.1,0.9,0.4,1.1c0.3,0.3,0.6,0.4,0.9,0.4c0.3,0,0.5-0.1,0.7-0.2S626.8,453.4,626.9,453.1z M627,451.4c0-0.5-0.1-0.8-0.4-1.1
		c-0.2-0.2-0.5-0.4-0.9-0.4c-0.4,0-0.7,0.1-0.9,0.4s-0.3,0.6-0.3,1.1H627z"/>
	<path fill="#9A72AC" d="M592.4,473.1v-8.6h1.7v3.4h3.4v-3.4h1.7v8.6h-1.7v-3.8h-3.4v3.8H592.4z"/>
	<path fill="#9A72AC" d="M601,466v-1.5h1.6v1.5H601z M601,473.1v-6.2h1.6v6.2H601z"/>
	<path fill="#9A72AC" d="M603.8,471.3l1.7-0.3c0.1,0.3,0.2,0.6,0.4,0.7c0.2,0.2,0.5,0.2,0.9,0.2c0.4,0,0.7-0.1,1-0.2
		c0.1-0.1,0.2-0.3,0.2-0.4c0-0.1,0-0.2-0.1-0.3c-0.1-0.1-0.3-0.1-0.6-0.2c-1.3-0.3-2.2-0.6-2.5-0.8c-0.5-0.3-0.7-0.8-0.7-1.4
		c0-0.5,0.2-1,0.6-1.4c0.4-0.4,1.1-0.6,2-0.6c0.9,0,1.5,0.1,1.9,0.4s0.7,0.7,0.9,1.2l-1.6,0.3c-0.1-0.2-0.2-0.4-0.4-0.6
		s-0.5-0.2-0.8-0.2c-0.4,0-0.7,0.1-0.9,0.2c-0.1,0.1-0.2,0.2-0.2,0.3c0,0.1,0.1,0.2,0.2,0.3c0.1,0.1,0.7,0.3,1.5,0.5
		c0.9,0.2,1.5,0.4,1.8,0.7c0.3,0.3,0.5,0.7,0.5,1.2c0,0.6-0.2,1.1-0.7,1.5s-1.2,0.6-2.1,0.6c-0.8,0-1.5-0.2-2-0.5
		S603.9,471.9,603.8,471.3z"/>
	<path fill="#9A72AC" d="M613.9,466.9v1.3h-1.1v2.5c0,0.5,0,0.8,0,0.9s0.1,0.2,0.1,0.2s0.2,0.1,0.3,0.1c0.2,0,0.4-0.1,0.7-0.2
		l0.1,1.3c-0.4,0.2-0.8,0.2-1.3,0.2c-0.3,0-0.6-0.1-0.8-0.1s-0.4-0.2-0.5-0.4s-0.2-0.4-0.2-0.6c0-0.2-0.1-0.6-0.1-1.2v-2.7h-0.8
		v-1.3h0.8v-1.2l1.7-1v2.2H613.9z"/>
	<path fill="#9A72AC" d="M615,466v-1.5h1.6v1.5H615z M615,473.1v-6.2h1.6v6.2H615z"/>
	<path fill="#9A72AC" d="M624.1,473.1h-1.5v-0.9c-0.3,0.4-0.6,0.6-0.9,0.8s-0.7,0.3-1,0.3c-0.7,0-1.3-0.3-1.8-0.9s-0.8-1.4-0.8-2.4
		c0-1.1,0.2-1.9,0.7-2.4c0.5-0.5,1.1-0.8,1.9-0.8c0.7,0,1.3,0.3,1.8,0.9v-3.1h1.6V473.1z M619.7,469.8c0,0.7,0.1,1.1,0.3,1.4
		c0.3,0.4,0.6,0.6,1.1,0.6c0.4,0,0.7-0.2,1-0.5s0.4-0.8,0.4-1.4c0-0.7-0.1-1.2-0.4-1.5s-0.6-0.5-1-0.5c-0.4,0-0.7,0.2-1,0.5
		C619.8,468.8,619.7,469.2,619.7,469.8z"/>
	<path fill="#9A72AC" d="M625.7,466v-1.5h1.6v1.5H625.7z M625.7,473.1v-6.2h1.6v6.2H625.7z"/>
	<path fill="#9A72AC" d="M634.7,473.1H633v-3.2c0-0.7,0-1.1-0.1-1.3s-0.2-0.4-0.3-0.5s-0.3-0.2-0.6-0.2c-0.3,0-0.5,0.1-0.8,0.2
		c-0.2,0.2-0.4,0.4-0.5,0.6s-0.1,0.7-0.1,1.4v2.8H629v-6.2h1.5v0.9c0.5-0.7,1.2-1.1,2.1-1.1c0.4,0,0.7,0.1,1,0.2
		c0.3,0.1,0.5,0.3,0.7,0.5s0.3,0.4,0.3,0.7s0.1,0.6,0.1,1.1L634.7,473.1L634.7,473.1z"/>
	<path fill="#9A72AC" d="M640,471.1l1.6,0.3c-0.2,0.6-0.5,1.1-1,1.4c-0.5,0.3-1,0.5-1.7,0.5c-1.1,0-1.9-0.4-2.4-1.1
		c-0.4-0.6-0.6-1.3-0.6-2.1c0-1,0.3-1.8,0.8-2.4c0.5-0.6,1.2-0.9,2-0.9c0.9,0,1.7,0.3,2.2,0.9s0.8,1.5,0.8,2.8h-4.1
		c0,0.5,0.1,0.9,0.4,1.1c0.3,0.3,0.6,0.4,0.9,0.4c0.3,0,0.5-0.1,0.7-0.2S639.9,471.4,640,471.1z M640.1,469.4c0-0.5-0.1-0.8-0.4-1.1
		c-0.2-0.2-0.5-0.4-0.9-0.4c-0.4,0-0.7,0.1-0.9,0.4s-0.3,0.6-0.3,1.1H640.1z"/>
	<path fill="#9A72AC" d="M600.1,491.1h-1.9l-0.8-2H594l-0.7,2h-1.8l3.3-8.6h1.8L600.1,491.1z M596.9,487.7l-1.2-3.2l-1.2,3.2H596.9z
		"/>
	<path fill="#9A72AC" d="M602.6,491.1H601v-6.2h1.5v0.9c0.3-0.4,0.5-0.7,0.7-0.8s0.4-0.2,0.7-0.2c0.4,0,0.7,0.1,1.1,0.3l-0.5,1.4
		c-0.3-0.2-0.5-0.3-0.8-0.3c-0.2,0-0.4,0.1-0.6,0.2s-0.3,0.4-0.4,0.7s-0.1,1-0.1,2.1L602.6,491.1L602.6,491.1z"/>
	<path fill="#9A72AC" d="M605.5,491.5l1.9,0.2c0,0.2,0.1,0.4,0.2,0.5c0.2,0.1,0.4,0.2,0.7,0.2c0.4,0,0.8-0.1,1-0.2
		c0.1-0.1,0.3-0.2,0.3-0.4c0.1-0.1,0.1-0.4,0.1-0.8v-0.9c-0.5,0.7-1.1,1-1.9,1c-0.8,0-1.5-0.4-2-1.1c-0.4-0.6-0.6-1.3-0.6-2.1
		c0-1,0.3-1.8,0.8-2.4s1.1-0.8,1.9-0.8c0.8,0,1.4,0.3,1.9,1v-0.9h1.5v5.6c0,0.7-0.1,1.3-0.2,1.6s-0.3,0.6-0.5,0.9s-0.5,0.4-0.9,0.5
		s-0.8,0.2-1.4,0.2c-1.1,0-1.8-0.2-2.2-0.5s-0.7-0.8-0.7-1.4C605.5,491.6,605.5,491.6,605.5,491.5z M607,487.8
		c0,0.7,0.1,1.1,0.4,1.5s0.6,0.5,0.9,0.5c0.4,0,0.7-0.2,1-0.5s0.4-0.8,0.4-1.4c0-0.6-0.1-1.1-0.4-1.4s-0.6-0.5-1-0.5
		c-0.4,0-0.7,0.2-1,0.5S607,487.2,607,487.8z"/>
	<path fill="#9A72AC" d="M616.6,489.1l1.6,0.3c-0.2,0.6-0.5,1.1-1,1.4s-1,0.5-1.7,0.5c-1.1,0-1.9-0.4-2.4-1.1
		c-0.4-0.6-0.6-1.3-0.6-2.1c0-1,0.3-1.8,0.8-2.4s1.2-0.9,2-0.9c0.9,0,1.7,0.3,2.2,0.9s0.8,1.5,0.8,2.8h-4.1c0,0.5,0.1,0.9,0.4,1.1
		s0.6,0.4,0.9,0.4c0.3,0,0.5-0.1,0.7-0.2S616.5,489.4,616.6,489.1z M616.7,487.4c0-0.5-0.1-0.8-0.4-1.1s-0.5-0.4-0.9-0.4
		c-0.4,0-0.7,0.1-0.9,0.4s-0.3,0.6-0.3,1.1H616.7z"/>
	<path fill="#9A72AC" d="M625.4,491.1h-1.6v-3.2c0-0.7,0-1.1-0.1-1.3s-0.2-0.4-0.3-0.5s-0.3-0.2-0.6-0.2c-0.3,0-0.5,0.1-0.8,0.2
		s-0.4,0.4-0.5,0.6s-0.1,0.7-0.1,1.4v2.8h-1.6v-6.2h1.5v0.9c0.5-0.7,1.2-1.1,2.1-1.1c0.4,0,0.7,0.1,1,0.2s0.5,0.3,0.7,0.5
		s0.3,0.4,0.3,0.7s0.1,0.6,0.1,1.1L625.4,491.1L625.4,491.1z"/>
	<path fill="#9A72AC" d="M627,484v-1.5h1.6v1.5H627z M627,491.1v-6.2h1.6v6.2H627z"/>
	<path fill="#9A72AC" d="M636,491.1h-1.6v-3.2c0-0.7,0-1.1-0.1-1.3s-0.2-0.4-0.3-0.5s-0.3-0.2-0.6-0.2c-0.3,0-0.5,0.1-0.8,0.2
		s-0.4,0.4-0.5,0.6s-0.1,0.7-0.1,1.4v2.8h-1.6v-6.2h1.5v0.9c0.5-0.7,1.2-1.1,2.1-1.1c0.4,0,0.7,0.1,1,0.2s0.5,0.3,0.7,0.5
		s0.3,0.4,0.3,0.7s0.1,0.6,0.1,1.1L636,491.1L636,491.1z"/>
	<path fill="#9A72AC" d="M641.3,489.1l1.6,0.3c-0.2,0.6-0.5,1.1-1,1.4s-1,0.5-1.7,0.5c-1.1,0-1.9-0.4-2.4-1.1
		c-0.4-0.6-0.6-1.3-0.6-2.1c0-1,0.3-1.8,0.8-2.4s1.2-0.9,2-0.9c0.9,0,1.7,0.3,2.2,0.9s0.8,1.5,0.8,2.8h-4.1c0,0.5,0.1,0.9,0.4,1.1
		s0.6,0.4,0.9,0.4c0.3,0,0.5-0.1,0.7-0.2S641.2,489.4,641.3,489.1z M641.4,487.4c0-0.5-0.1-0.8-0.4-1.1s-0.5-0.4-0.9-0.4
		c-0.4,0-0.7,0.1-0.9,0.4s-0.3,0.6-0.3,1.1H641.4z"/>
</g>
<g>
	
		<line fill="none" stroke="#49A88F" stroke-width="3" stroke-linecap="round" stroke-linejoin="round" x1="297.4" y1="250.3" x2="268" y2="283.9"/>
	<g>
		<polygon fill="#49A88F" points="266.6,277.1 269.2,282.5 274.9,284.4 262.1,290.6 		"/>
	</g>
</g>
<g>
	
		<line fill="none" stroke="#49A88F" stroke-width="3" stroke-linecap="round" stroke-linejoin="round" x1="297.4" y1="250.3" x2="321.2" y2="283.4"/>
	<g>
		<polygon fill="#49A88F" points="314.3,283.2 320.2,281.8 323.3,276.7 326.5,290.6 		"/>
	</g>
</g>
<g>
	
		<line fill="none" stroke="#49A88F" stroke-width="3" stroke-linecap="round" stroke-linejoin="round" x1="166.1" y1="337.1" x2="88.3" y2="376.8"/>
	<g>
		<polygon fill="#49A88F" points="89.5,370 89.9,376 94.6,379.9 80.3,380.9 		"/>
	</g>
</g>
<g>
	
		<line fill="none" stroke="#49A88F" stroke-width="3" stroke-linecap="round" stroke-linejoin="round" x1="166.1" y1="337.1" x2="185.4" y2="373"/>
	<g>
		<polygon fill="#49A88F" points="178.6,371.9 184.6,371.4 188.3,366.7 189.7,380.9 		"/>
	</g>
</g>
<g>
	
		<line fill="none" stroke="#49A88F" stroke-width="3" stroke-linecap="round" stroke-linejoin="round" x1="413.1" y1="337.1" x2="359.1" y2="375.7"/>
	<g>
		<polygon fill="#49A88F" points="359.3,368.7 360.7,374.6 365.8,377.8 351.9,380.9 		"/>
	</g>
</g>
<g>
	
		<line fill="none" stroke="#49A88F" stroke-width="3" stroke-linecap="round" stroke-linejoin="round" x1="413.1" y1="337.1" x2="454.1" y2="374.8"/>
	<g>
		<polygon fill="#49A88F" points="447.2,376.1 452.7,373.6 454.7,367.9 460.6,380.9 		"/>
	</g>
</g>
<g>
	
		<line fill="none" stroke="#49A88F" stroke-width="3" stroke-linecap="round" stroke-linejoin="round" x1="413.1" y1="337.1" x2="589.8" y2="378.8"/>
	<g>
		<polygon fill="#49A88F" points="584.4,383.3 587.9,378.4 586.9,372.5 598.5,380.9 		"/>
	</g>
</g>
</svg>
